<?xml version="1.0" standalone="no"?>
<!DOCTYPE svg PUBLIC "-//W3C//DTD SVG 1.1//EN" "http://www.w3.org/Graphics/SVG/1.1/DTD/svg11.dtd" >
<svg xmlns="http://www.w3.org/2000/svg" xmlns:xlink="http://www.w3.org/1999/xlink" version="1.1">
<metadata>
Created by FontForge 20170731 at Thu Jul 29 11:47:17 2021
 By Aleksey,,,
(c)2009 Commercial Type.
</metadata>
<defs>
<font id="Graphik-RegularItalic" horiz-adv-x="1228" >
  <font-face 
    font-family="Graphik Regular"
    font-weight="400"
    font-style="italic"
    font-stretch="normal"
    units-per-em="2048"
    panose-1="2 11 5 3 3 2 2 13 2 3"
    ascent="1675"
    descent="-373"
    x-height="1071"
    cap-height="1464"
    bbox="-539 -451 2193 2279"
    underline-thickness="102"
    underline-position="-307"
    slope="-8"
    unicode-range="U+0020-FB02"
  />
<missing-glyph horiz-adv-x="1024" 
 />
    <glyph glyph-name="f_f" unicode="ff" horiz-adv-x="1269" 
d="M692 0l148 928h-414l-145 -928h-170l145 928h-152l23 143h152l30 189q24 150 117 229.5t231 79.5q86 0 142 -27l-21 -135q-48 20 -112 20q-159 0 -187 -172l-30 -184h413l33 209q24 150 117 229.5t231 79.5q87 0 141 -26l-20 -136q-51 21 -113 21q-158 0 -186 -172
l-33 -205h262l-22 -143h-262l-148 -928h-170z" />
    <glyph glyph-name=".notdef" horiz-adv-x="1024" 
 />
    <glyph glyph-name=".null" horiz-adv-x="0" 
 />
    <glyph glyph-name="nonmarkingreturn" horiz-adv-x="682" 
 />
    <glyph glyph-name="space" unicode=" " horiz-adv-x="542" 
 />
    <glyph glyph-name="exclam" unicode="!" horiz-adv-x="585" 
d="M207 414l139 1050h189l-197 -1050h-131zM231 -10q-54 0 -92.5 38t-38.5 93t37.5 93t91.5 38q55 0 94 -38t39 -93t-38.5 -93t-92.5 -38z" />
    <glyph glyph-name="quotedbl" unicode="&#x22;" horiz-adv-x="768" 
d="M223 963l45 501h185l-107 -501h-123zM557 963l45 501h184l-106 -501h-123z" />
    <glyph glyph-name="numbersign" unicode="#" horiz-adv-x="1030" 
d="M504 203l88 375h-199l-88 -375h-139l88 375h-178l22 143h189l63 270h-180l23 144h192l78 329h139l-78 -329h199l78 329h139l-78 -329h180l-22 -144h-193l-63 -270h184l-22 -143h-195l-88 -375h-139zM489 991l-63 -270h199l63 270h-199z" />
    <glyph glyph-name="dollar" unicode="$" horiz-adv-x="1263" 
d="M614 -18h-10l-41 -258h-121l41 268q-103 16 -183.5 59.5t-130.5 105t-76 135t-27 154.5h172q5 -114 70.5 -200t197.5 -113l90 561q-194 62 -282.5 147t-88.5 236q0 109 61.5 201t176 148t258.5 57l29 182h120l-30 -192q164 -27 261 -129t101 -265h-160q-19 207 -225 252
l-82 -514q212 -66 305 -152t93 -237q0 -197 -140.5 -321.5t-378.5 -124.5zM961 412q0 93 -52.5 147t-197.5 100l-84 -536q159 1 246.5 79t87.5 210zM393 1083q0 -80 48 -130.5t180 -98.5l77 487q-149 -1 -227 -73.5t-78 -184.5z" />
    <glyph glyph-name="percent" unicode="%" horiz-adv-x="1605" 
d="M305 1096q0 -49 13.5 -87.5t52 -66t98.5 -27.5q89 0 142 68t53 174q0 78 -38.5 133.5t-123.5 55.5q-95 0 -146 -70.5t-51 -179.5zM465 784q-139 0 -227 91.5t-88 228.5q0 151 104.5 262t253.5 111q141 0 226 -93t85 -233q0 -149 -103 -258t-251 -109zM197 0l1120 1464
h162l-1121 -1464h-161zM1010 295q0 -36 8 -66.5t26 -57t51 -41.5t79 -15q89 0 141.5 67.5t52.5 173.5q0 78 -38.5 133.5t-123.5 55.5q-95 0 -145.5 -70.5t-50.5 -179.5zM1169 -16q-139 0 -227 91t-88 228q0 151 104.5 262t253.5 111q141 0 226.5 -93t85.5 -233
q0 -149 -103.5 -257.5t-251.5 -108.5z" />
    <glyph glyph-name="ampersand" unicode="&#x26;" horiz-adv-x="1392" 
d="M1235 0h-199l-116 174q-77 -80 -184 -132.5t-224 -53.5q-65 0 -125 12t-117 40.5t-99 71t-67.5 108.5t-25.5 149q0 89 30 163t87.5 130t126.5 97t161 77q-86 147 -86 270q0 165 104.5 266t260.5 101q136 0 226.5 -79t90.5 -212q0 -62 -21 -116t-53 -93t-83 -75t-98 -60
t-111 -50l243 -370l222 338h163l-303 -459zM254 373q0 -117 71 -182.5t193 -65.5q86 0 172 41.5t158 118.5l-299 448q-64 -25 -111.5 -52.5t-92 -69.5t-68 -102t-23.5 -136zM758 1341q-86 0 -140.5 -59t-54.5 -160q0 -88 86 -229q47 18 79 33t71.5 40.5t62.5 53t39.5 68.5
t16.5 90q0 69 -41 116t-119 47z" />
    <glyph glyph-name="quotesingle" unicode="'" horiz-adv-x="434" 
d="M223 963l45 501h185l-107 -501h-123z" />
    <glyph glyph-name="parenleft" unicode="(" horiz-adv-x="659" 
d="M317 -303q-215 312 -215 717q0 665 504 1169h187q-162 -167 -272 -338t-176 -384.5t-66 -446.5q0 -383 202 -717h-164z" />
    <glyph glyph-name="parenright" unicode=")" horiz-adv-x="659" 
d="M371 1589q215 -312 215 -717q0 -665 -504 -1169h-186q162 167 272 338t176 384.5t66 446.5q0 382 -203 717h164z" />
    <glyph glyph-name="asterisk" unicode="*" horiz-adv-x="864" 
d="M332 852l-103 90l203 215l-242 74l68 133l225 -111l29 269h150l-58 -275l256 82l23 -137l-265 -45l138 -236l-129 -75l-115 251z" />
    <glyph glyph-name="plus" unicode="+" horiz-adv-x="1062" 
d="M403 215l66 414h-383l23 143h383l65 414h150l-66 -414h383l-23 -143h-383l-65 -414h-150z" />
    <glyph glyph-name="comma" unicode="," horiz-adv-x="577" 
d="M84 -252l-102 57l241 449l154 -78z" />
    <glyph glyph-name="hyphen" unicode="-" horiz-adv-x="686" 
d="M113 483l24 160h438l-24 -160h-438z" />
    <glyph glyph-name="period" unicode="." horiz-adv-x="577" 
d="M221 -10q-54 0 -92.5 38t-38.5 93t37.5 93t91.5 38q55 0 94 -38t39 -93t-38.5 -93t-92.5 -38z" />
    <glyph glyph-name="slash" unicode="/" horiz-adv-x="825" 
d="M-121 -303l889 1892h160l-891 -1892h-158z" />
    <glyph glyph-name="zero" unicode="0" horiz-adv-x="1394" 
d="M651 -18q-129 0 -228.5 44t-161 121.5t-92.5 178t-32 219.5q0 97 15 182l12 76q51 313 224.5 496.5t426.5 183.5q128 0 226 -45t156.5 -124t88 -180t29.5 -221q0 -91 -15 -180l-12 -76q-50 -310 -218 -492.5t-419 -182.5zM662 129q179 0 293 141t157 408l12 76
q13 80 13 159q0 85 -16 156.5t-52 134.5t-103.5 99t-160.5 36q-177 0 -298.5 -143.5t-164.5 -404.5l-12 -76q-15 -96 -15 -172q0 -65 9.5 -122t33.5 -112t62 -93.5t100 -62.5t142 -24z" />
    <glyph glyph-name="one" unicode="1" horiz-adv-x="817" 
d="M309 0l203 1284l-365 -235l27 170l379 245h166l-232 -1464h-178z" />
    <glyph glyph-name="two" unicode="2" horiz-adv-x="1134" 
d="M-68 0l7 41l698 606q123 107 195.5 216t72.5 237q0 101 -60.5 170t-172.5 69q-130 2 -218 -73t-130 -252h-168q37 232 178 351.5t348 117.5q173 0 288 -102t115 -277q0 -69 -19.5 -135.5t-50.5 -120.5t-81.5 -113t-98.5 -104.5t-116 -102.5l-453 -383h690l-22 -145h-1002
z" />
    <glyph glyph-name="three" unicode="3" horiz-adv-x="1236" 
d="M555 -18q-226 0 -360 122t-134 328h168q3 -137 84.5 -222t249.5 -85q166 0 256 80.5t90 243.5q0 112 -69.5 177.5t-210.5 65.5h-94l24 150h127q126 0 205.5 65.5t79.5 200.5q0 108 -66 168.5t-182 60.5q-134 0 -224 -70.5t-122 -205.5h-158q28 189 170.5 305.5
t343.5 116.5q79 0 151.5 -22.5t132 -65.5t95 -116t35.5 -165q0 -126 -74.5 -220.5t-204.5 -131.5q107 -34 165.5 -115t58.5 -198q0 -214 -149 -340.5t-388 -126.5z" />
    <glyph glyph-name="four" unicode="4" horiz-adv-x="1263" 
d="M727 0l47 307h-729l10 58l840 1099h238l-160 -1011h203l-25 -146h-203l-47 -307h-174zM293 453h506l135 860z" />
    <glyph glyph-name="five" unicode="5" horiz-adv-x="1202" 
d="M528 -18q-201 0 -327 107t-135 306h172q8 -128 79.5 -199t212.5 -71q167 0 265 109.5t98 297.5q0 132 -73.5 210.5t-217.5 78.5q-109 0 -189 -37t-151 -104h-65l125 784h823l-25 -153h-676l-69 -439q120 93 287 93q186 0 300.5 -117t114.5 -307q0 -158 -68.5 -285
t-194.5 -200.5t-286 -73.5z" />
    <glyph glyph-name="six" unicode="6" horiz-adv-x="1267" 
d="M612 -18q-237 0 -362 130t-125 375q0 73 18 199l11 64q18 113 49 213t84.5 197.5t123.5 167t171.5 112.5t222.5 43q189 0 294 -93.5t113 -261.5h-168q-11 101 -68 155t-181 54q-101 0 -182 -46.5t-135 -129.5t-88.5 -178.5t-55.5 -212.5q138 180 377 180
q189 0 311.5 -117.5t122.5 -308.5q0 -151 -66.5 -274.5t-189 -195.5t-277.5 -72zM299 432q0 -135 80 -223t235 -88q156 0 252.5 112.5t96.5 282.5q0 127 -77 211t-227 84q-154 0 -257 -109t-103 -270z" />
    <glyph glyph-name="seven" unicode="7" horiz-adv-x="1075" 
d="M180 0l731 1321h-731l23 143h964l-4 -24l-796 -1440h-187z" />
    <glyph glyph-name="eight" unicode="8" horiz-adv-x="1243" 
d="M588 -18q-93 0 -178.5 26t-155 74t-111 126t-41.5 173q0 157 91.5 268t246.5 156q-84 38 -132 112t-48 162q0 117 64.5 210t172.5 143.5t238 50.5q108 0 203 -42.5t157 -127.5t62 -195q0 -243 -272 -332q106 -43 168.5 -133.5t62.5 -203.5q0 -146 -73 -253.5t-191 -160.5
t-264 -53zM285 403q0 -125 88.5 -200.5t224.5 -75.5q152 0 244 84t92 235q0 122 -84 196.5t-213 74.5q-156 0 -254 -82.5t-98 -231.5zM438 1085q0 -97 74.5 -162t192.5 -65q74 0 134 24.5t100 83t40 144.5q0 100 -72 166.5t-186 66.5q-120 0 -201.5 -67t-81.5 -191z" />
    <glyph glyph-name="nine" unicode="9" horiz-adv-x="1269" 
d="M532 -16q-123 0 -217.5 38t-156.5 124t-72 214h174q18 -126 87.5 -178.5t199.5 -52.5q169 0 282 140.5t158 418.5q-61 -82 -160.5 -127t-216.5 -45q-182 0 -307 114.5t-125 309.5q0 154 69.5 278.5t195.5 195.5t284 71q226 0 344.5 -130.5t120.5 -367.5q0 -106 -16 -205
l-15 -90q-58 -356 -217 -532t-412 -176zM360 948q0 -132 72 -212.5t203 -80.5q169 0 278 97.5t109 279.5q0 63 -17 117.5t-51.5 99.5t-94.5 71t-138 26q-159 0 -260 -112t-101 -286z" />
    <glyph glyph-name="colon" unicode=":" horiz-adv-x="598" 
d="M229 -10q-54 0 -92.5 38t-38.5 93t37.5 93t91.5 38q55 0 94 -38t39 -93t-38.5 -93t-92.5 -38zM328 598q-54 0 -92.5 38t-38.5 93t37.5 93t91.5 38q55 0 94 -38t39 -93t-38.5 -93t-92.5 -38z" />
    <glyph glyph-name="semicolon" unicode=";" horiz-adv-x="598" 
d="M53 -252l-102 57l242 449l153 -78zM344 598q-54 0 -92.5 38t-38.5 93t37.5 93t91.5 38q55 0 94 -38t39 -93t-38.5 -93t-92.5 -38z" />
    <glyph glyph-name="less" unicode="&#x3c;" horiz-adv-x="1032" 
d="M840 195l-717 452l6 41l856 436l-24 -168l-590 -292l493 -310z" />
    <glyph glyph-name="equal" unicode="=" horiz-adv-x="991" 
d="M59 401l23 148h827l-22 -148h-828zM117 770l22 148h828l-23 -148h-827z" />
    <glyph glyph-name="greater" unicode="&#x3e;" horiz-adv-x="1032" 
d="M227 1124l717 -452l-6 -41l-856 -436l24 172l590 292l-493 310z" />
    <glyph glyph-name="question" unicode="?" horiz-adv-x="1001" 
d="M344 414l16 104q5 29 13.5 56.5t16.5 49t24 46t25.5 39.5t31.5 37t31.5 32t36 31.5t34 27.5t37.5 28t35 26q44 34 70 57t52.5 55.5t38 70t11.5 83.5q0 86 -56 135t-159 49q-110 0 -188 -69.5t-99 -196.5h-161q26 192 155 301t312 107q182 0 276 -93.5t94 -230.5
q0 -69 -17.5 -123t-62 -102.5t-73 -72t-97.5 -72.5l-12 -9q-49 -35 -76.5 -57.5t-62 -58t-54 -75t-26.5 -85.5l-14 -90h-152zM385 -10q-54 0 -92.5 38t-38.5 93t37.5 93t91.5 38q55 0 94 -38t39 -93t-38.5 -93t-92.5 -38z" />
    <glyph glyph-name="at" unicode="@" horiz-adv-x="1873" 
d="M1380 938l-80 -516q-20 -162 99 -162q46 0 88.5 23t78.5 69t57.5 124.5t21.5 178.5q0 280 -178 449.5t-490 169.5q-153 0 -286 -54.5t-228 -151t-149 -234t-54 -297.5q0 -142 44.5 -267.5t128.5 -223.5t217.5 -155t299.5 -57q161 0 272.5 40.5t211.5 125.5h157
q-79 -136 -251 -218.5t-390 -82.5q-160 0 -297.5 44.5t-237.5 123t-171.5 184t-106.5 228t-35 253.5q0 184 70.5 348t189 279.5t279.5 182.5t336 67q180 0 333 -58t258.5 -158.5t164.5 -238.5t59 -295q0 -111 -25.5 -201.5t-66 -149t-93.5 -98t-105.5 -56.5t-104.5 -17
q-212 0 -240 176q-46 -87 -121.5 -138.5t-179.5 -51.5q-150 0 -239 93t-89 257q0 206 120 343.5t298 137.5q101 0 162 -40t82 -99l20 123h170zM889 254q107 0 188.5 97.5t81.5 252.5q0 105 -53 160t-143 55q-112 0 -186.5 -94.5t-74.5 -255.5q0 -102 52 -158.5t135 -56.5z
" />
    <glyph glyph-name="A" unicode="A" horiz-adv-x="1331" 
d="M1024 0l-76 422h-604l-209 -422h-172l735 1464h234l264 -1464h-172zM786 1317l-372 -754h508z" />
    <glyph glyph-name="B" unicode="B" horiz-adv-x="1273" 
d="M98 0l232 1464h418q431 0 428 -342q0 -274 -277 -360q247 -62 250 -320q0 -203 -141 -322.5t-375 -119.5h-535zM293 139h340q168 0 255 83.5t87 223.5q0 120 -74 180t-239 60h-281zM401 825h271q329 0 329 289q0 108 -61.5 159.5t-198.5 51.5h-260z" />
    <glyph glyph-name="C" unicode="C" horiz-adv-x="1490" 
d="M791 -18q-301 0 -476.5 174t-175.5 467q0 238 98 435t277 313t404 116q229 0 379 -125t165 -354h-168q-27 169 -120 253.5t-265 84.5q-135 0 -246.5 -56.5t-185 -154t-113.5 -229.5t-40 -283q0 -240 118.5 -369t350.5 -129q172 0 288.5 96.5t169.5 263.5h170
q-58 -232 -228 -367.5t-402 -135.5z" />
    <glyph glyph-name="D" unicode="D" horiz-adv-x="1429" 
d="M98 0l232 1464h356q142 0 256 -30.5t193 -85.5t132 -133.5t77.5 -172t25.5 -202.5q0 -140 -34.5 -266t-105 -231t-170 -181.5t-236.5 -119t-298 -42.5h-428zM299 145h221q315 0 491.5 184t176.5 509q0 86 -17.5 157.5t-56 132.5t-97 103.5t-145 66t-194.5 23.5h-193z" />
    <glyph glyph-name="E" unicode="E" horiz-adv-x="1171" 
d="M98 0l232 1464h846l-25 -145h-668l-77 -498h544l-22 -145h-545l-84 -531h713l-23 -145h-891z" />
    <glyph glyph-name="F" unicode="F" horiz-adv-x="1138" 
d="M98 0l232 1464h856l-25 -145h-678l-82 -518h529l-23 -146h-528l-103 -655h-178z" />
    <glyph glyph-name="G" unicode="G" horiz-adv-x="1576" 
d="M807 -18q-156 0 -283 50t-210.5 139t-128 209.5t-44.5 262.5q0 169 58 323.5t158.5 268t244 181t305.5 67.5q113 0 212 -28.5t177.5 -84t127 -145t55.5 -203.5h-176q-10 107 -64.5 179.5t-139.5 106t-196 33.5q-131 0 -240.5 -55t-182.5 -149.5t-113.5 -222t-40.5 -271.5
q0 -241 124.5 -379.5t360.5 -138.5q210 0 332.5 126.5t156.5 340.5h-434l25 147h604q-65 -757 -688 -757z" />
    <glyph glyph-name="H" unicode="H" horiz-adv-x="1495" 
d="M98 0l232 1464h178l-107 -663h770l107 663h178l-231 -1464h-178l102 651h-770l-103 -651h-178z" />
    <glyph glyph-name="I" unicode="I" horiz-adv-x="571" 
d="M109 0l231 1464h178l-231 -1464h-178z" />
    <glyph glyph-name="J" unicode="J" horiz-adv-x="860" 
d="M231 -18q-150 0 -235 53l22 143q104 -51 207 -51q111 0 174.5 62t85.5 196l170 1079h179l-175 -1095q-31 -196 -144.5 -291.5t-283.5 -95.5z" />
    <glyph glyph-name="K" unicode="K" horiz-adv-x="1261" 
d="M98 0l232 1464h178l-111 -696l744 696h207l-764 -706l557 -758h-199l-549 735l-117 -735h-178z" />
    <glyph glyph-name="L" unicode="L" horiz-adv-x="1095" 
d="M98 0l232 1464h178l-209 -1319h670l-23 -145h-848z" />
    <glyph glyph-name="M" unicode="M" horiz-adv-x="1753" 
d="M98 0l232 1464h241l273 -1140l618 1140h252l-231 -1464h-178l194 1233l-680 -1233h-55l-307 1233l-195 -1233h-164z" />
    <glyph glyph-name="N" unicode="N" horiz-adv-x="1482" 
d="M98 0l232 1464h227l524 -1210l193 1210h170l-232 -1464h-200l-545 1255l-199 -1255h-170z" />
    <glyph glyph-name="O" unicode="O" horiz-adv-x="1660" 
d="M1583 823q0 -178 -60.5 -335t-164 -267.5t-246.5 -174.5t-303 -64q-199 0 -352.5 85.5t-235.5 234.5t-82 337q0 230 103.5 424t284.5 307t399 113q154 0 280 -52.5t207.5 -143.5t125.5 -210t44 -254zM1399 823q0 108 -31.5 201t-90.5 163.5t-150 111t-203 40.5
q-179 0 -317.5 -96.5t-210.5 -254.5t-72 -349q0 -236 135 -374t352 -138q171 0 305.5 90.5t208.5 249t74 356.5z" />
    <glyph glyph-name="P" unicode="P" horiz-adv-x="1189" 
d="M98 0l232 1464h407q206 0 328.5 -97.5t122.5 -283.5q0 -104 -31 -187.5t-83 -139t-124.5 -92t-152 -52.5t-168.5 -16h-258l-95 -596h-178zM393 737h246q184 0 278.5 89t94.5 255q0 124 -72 182t-221 58h-234z" />
    <glyph glyph-name="Q" unicode="Q" horiz-adv-x="1660" 
d="M1583 823q0 -224 -91 -407.5t-249 -296.5l164 -201l-123 -100l-182 223q-136 -59 -293 -59q-199 0 -352.5 85.5t-235.5 234.5t-82 337q0 230 103.5 424t284.5 307t399 113q154 0 280 -52.5t207.5 -143.5t125.5 -210t44 -254zM1399 823q0 108 -31.5 201t-90.5 163.5
t-150 111t-203 40.5q-179 0 -317.5 -96.5t-210.5 -254.5t-72 -349q0 -236 135 -374t352 -138q110 0 195 33l-154 190l123 101l172 -213q119 93 185.5 245t66.5 340z" />
    <glyph glyph-name="R" unicode="R" horiz-adv-x="1286" 
d="M98 0l232 1464h432q200 0 324.5 -96.5t121.5 -275.5q0 -190 -116.5 -303t-300.5 -138l358 -651h-193l-348 637h-231l-101 -637h-178zM399 778h275q358 0 358 314q3 229 -280 229h-267z" />
    <glyph glyph-name="S" unicode="S" horiz-adv-x="1284" 
d="M614 -18q-134 0 -239.5 38t-170.5 103.5t-99 147.5t-35 175h176q3 -64 25.5 -119.5t66 -102t117 -73t170.5 -26.5q162 -1 253 77t91 212q0 100 -66.5 157t-249.5 111q-111 32 -184.5 64.5t-131 78t-84 107.5t-26.5 145q0 171 136 288.5t356 117.5q215 0 342 -105.5
t131 -298.5h-164q-13 139 -97 199.5t-229 60.5q-151 0 -228 -71t-77 -185q0 -89 64.5 -140t253.5 -109q229 -69 328.5 -156.5t99.5 -245.5q0 -197 -144 -323.5t-385 -126.5z" />
    <glyph glyph-name="T" unicode="T" horiz-adv-x="1148" 
d="M397 0l207 1319h-426l25 145h1030l-25 -145h-426l-207 -1319h-178z" />
    <glyph glyph-name="U" unicode="U" horiz-adv-x="1425" 
d="M666 -18q-280 0 -408.5 152.5t-81.5 445.5l141 884h179l-142 -886q-37 -239 42.5 -344t277.5 -105q169 0 267 95t132 311l148 929h178l-152 -954q-40 -250 -183 -389t-398 -139z" />
    <glyph glyph-name="V" unicode="V" horiz-adv-x="1302" 
d="M455 0l-267 1464h174l232 -1292l641 1292h170l-737 -1464h-213z" />
    <glyph glyph-name="W" unicode="W" horiz-adv-x="1822" 
d="M340 0l-150 1464h179l110 -1194l518 1194h115l160 -1198l481 1198h170l-604 -1464h-166l-147 1149l-506 -1149h-160z" />
    <glyph glyph-name="X" unicode="X" horiz-adv-x="1243" 
d="M-39 0l598 764l-334 700h185l280 -583l445 583h184l-561 -727l352 -737h-192l-295 621l-478 -621h-184z" />
    <glyph glyph-name="Y" unicode="Y" horiz-adv-x="1212" 
d="M444 0l101 639l-359 825h191l282 -680l476 680h182l-596 -839l-98 -625h-179z" />
    <glyph glyph-name="Z" unicode="Z" horiz-adv-x="1218" 
d="M-29 0l4 29l1026 1296h-747l22 139h1002l-4 -26l-1008 -1293h791l-23 -145h-1063z" />
    <glyph glyph-name="bracketleft" unicode="[" horiz-adv-x="729" 
d="M45 -303l299 1892h459l-21 -135h-288l-256 -1622h288l-22 -135h-459z" />
    <glyph glyph-name="backslash" unicode="\" horiz-adv-x="825" 
d="M526 -303l-301 1892h152l301 -1892h-152z" />
    <glyph glyph-name="bracketright" unicode="]" horiz-adv-x="729" 
d="M-45 -303l22 135h289l256 1622h-289l21 135h459l-299 -1892h-459z" />
    <glyph glyph-name="asciicircum" unicode="^" horiz-adv-x="1038" 
d="M135 836l436 628h174l248 -628h-166l-190 483l-328 -483h-174z" />
    <glyph glyph-name="underscore" unicode="_" horiz-adv-x="806" 
d="M-139 -324l22 136h809l-22 -136h-809z" />
    <glyph glyph-name="grave" unicode="`" horiz-adv-x="819" 
d="M477 1255l-180 301h209l96 -301h-125z" />
    <glyph glyph-name="a" unicode="a" horiz-adv-x="1101" 
d="M403 -16q-162 0 -254 82.5t-92 220.5q0 96 41 164.5t115.5 106t163.5 54.5t201 17h206l13 78q21 125 -26.5 183t-174.5 58q-214 0 -256 -192h-170q18 92 63.5 159.5t107.5 104t127 53.5t134 17q93 0 164.5 -22t123 -68t71.5 -124.5t4 -183.5l-60 -373q-32 -193 -18 -319
h-160q-9 87 -2 170q-56 -91 -140 -138.5t-182 -47.5zM426 117q125 0 211.5 69.5t107.5 204.5l19 117h-182q-185 0 -271 -50.5t-86 -170.5q0 -75 51.5 -122.5t149.5 -47.5z" />
    <glyph glyph-name="b" unicode="b" horiz-adv-x="1284" 
d="M666 -18q-78 0 -143 19t-110 52t-75 69.5t-49 78.5l-33 -201h-170l250 1583h170l-111 -700q55 91 157 149t218 58q190 0 310 -129.5t120 -342.5q0 -103 -23 -198t-68.5 -174.5t-109 -138.5t-149 -92t-184.5 -33zM655 121q114 0 197.5 64t125.5 173t42 250
q0 163 -75.5 252.5t-207.5 89.5q-178 0 -294.5 -135t-116.5 -360q0 -155 88.5 -244.5t240.5 -89.5z" />
    <glyph glyph-name="c" unicode="c" horiz-adv-x="1134" 
d="M580 -16q-237 0 -368.5 133.5t-131.5 353.5q0 144 45.5 262.5t123 194.5t177 117.5t209.5 41.5q121 0 214.5 -39t153 -125t66.5 -212h-162q-14 130 -85.5 182.5t-194.5 52.5q-165 0 -269 -125t-104 -350q0 -170 83.5 -259t246.5 -89q116 0 202 68.5t107 189.5h160
q-33 -187 -162 -292t-311 -105z" />
    <glyph glyph-name="d" unicode="d" horiz-adv-x="1273" 
d="M535 -18q-201 0 -327 129t-126 344q0 172 66 315.5t194 231.5t295 88q140 0 227 -61t131 -152l111 706h170l-199 -1264q-28 -179 -22 -319h-162q-6 89 8 195q-59 -98 -154.5 -155.5t-211.5 -57.5zM555 123q178 0 289.5 129t111.5 369q0 150 -87 238.5t-226 88.5
q-177 0 -279 -135t-102 -350q0 -160 77.5 -250t215.5 -90z" />
    <glyph glyph-name="e" unicode="e" horiz-adv-x="1132" 
d="M252 432q0 -309 295 -309q113 0 188.5 47t106.5 139h170q-48 -160 -175 -243.5t-296 -83.5q-215 0 -339 126.5t-124 331.5q0 186 74 334.5t201.5 230.5t283.5 82q227 0 342 -140t74 -406l-6 -39h-793q-2 -23 -2 -70zM627 948q-123 0 -219 -76.5t-134 -232.5h621
q12 160 -54 234.5t-214 74.5z" />
    <glyph glyph-name="f" unicode="f" horiz-adv-x="688" 
d="M104 928l23 143h154l32 209q24 150 117.5 229.5t231.5 79.5q87 0 141 -26l-21 -136q-51 21 -112 21q-159 0 -187 -172l-32 -205h262l-23 -143h-262l-147 -928h-170l147 928h-154z" />
    <glyph glyph-name="g" unicode="g" horiz-adv-x="1275" 
d="M557 176q167 0 283 126t116 335q0 145 -88.5 228t-228.5 83q-166 0 -267.5 -129.5t-101.5 -314.5q0 -149 74.5 -238.5t212.5 -89.5zM1196 1071l-160 -1018q-35 -219 -171 -330.5t-361 -111.5q-100 0 -180 19.5t-132 51t-88 75.5t-53.5 88.5t-23.5 93.5h172
q16 -86 90 -135.5t211 -49.5q167 0 253 78t113 238l25 149q-125 -180 -352 -180q-197 0 -322 127.5t-125 329.5q0 119 41 228t111.5 190t172 128.5t216.5 47.5q140 0 229.5 -61.5t132.5 -151.5l31 194h170z" />
    <glyph glyph-name="h" unicode="h" horiz-adv-x="1212" 
d="M86 0l250 1583h170l-111 -702q53 88 146.5 148.5t214.5 60.5q86 0 150 -24.5t108.5 -78.5t57 -139.5t-4.5 -206.5l-102 -641h-170l108 680q43 264 -184 264q-137 0 -239 -86t-126 -235l-98 -623h-170z" />
    <glyph glyph-name="i" unicode="i" horiz-adv-x="522" 
d="M393 1294q-46 0 -79 32.5t-33 78.5t34 80.5t80 34.5t78.5 -32.5t32.5 -78.5t-33.5 -80.5t-79.5 -34.5zM90 0l170 1071h170l-170 -1071h-170z" />
    <glyph glyph-name="j" unicode="j" horiz-adv-x="522" 
d="M-129 -389l23 141q88 4 129.5 44.5t54.5 119.5l182 1155h170l-184 -1165q-23 -145 -112.5 -220t-262.5 -75zM393 1294q-46 0 -79 32.5t-33 78.5t34 80.5t80 34.5t78.5 -32.5t32.5 -78.5t-33.5 -80.5t-79.5 -34.5z" />
    <glyph glyph-name="k" unicode="k" horiz-adv-x="1046" 
d="M86 0l250 1583h170l-156 -985l510 473h211l-541 -491l400 -580h-195l-389 571l-90 -571h-170z" />
    <glyph glyph-name="l" unicode="l" horiz-adv-x="524" 
d="M90 0l250 1583h172l-250 -1583h-172z" />
    <glyph glyph-name="m" unicode="m" horiz-adv-x="1837" 
d="M86 0l119 752q24 153 28 319h160q0 -113 -10 -203q58 103 147 162.5t193 59.5q249 0 293 -234q45 82 111 136.5t130 76t129 21.5q63 0 115.5 -15t96 -48t68.5 -86t34 -128.5t-8 -175.5l-101 -637h-170l105 664q23 145 -20 212.5t-156 67.5q-114 0 -207.5 -79.5
t-118.5 -229.5l-100 -635h-170l106 676q22 133 -24 200.5t-154 67.5q-115 0 -208.5 -82t-117.5 -227l-100 -635h-170z" />
    <glyph glyph-name="n" unicode="n" horiz-adv-x="1212" 
d="M86 0l119 752q24 153 28 319h160q0 -105 -12 -213q60 104 155.5 168t219.5 64q86 0 150 -24.5t108.5 -78.5t57 -139.5t-4.5 -206.5l-102 -641h-170l108 680q43 264 -184 264q-137 0 -239 -86t-126 -235l-98 -623h-170z" />
    <glyph glyph-name="o" unicode="o" horiz-adv-x="1206" 
d="M555 -16q-219 0 -348 133.5t-129 341.5q0 132 44 249t119.5 200t181 131t224.5 48q220 0 349.5 -130.5t129.5 -340.5q0 -181 -72 -325t-203 -225.5t-296 -81.5zM563 123q178 0 281.5 137.5t103.5 351.5q0 156 -80 246t-231 90q-170 0 -276.5 -138.5t-106.5 -350.5
q0 -157 78 -246.5t231 -89.5z" />
    <glyph glyph-name="p" unicode="p" horiz-adv-x="1284" 
d="M770 1090q190 0 310 -129.5t120 -342.5q0 -103 -23 -198t-68.5 -174.5t-109 -138.5t-149 -92t-184.5 -33q-78 0 -143 19t-110 52t-75 69.5t-49 78.5l-92 -574h-170l178 1125q24 153 28 319h160q0 -107 -12 -209q57 103 164 165.5t225 62.5zM655 121q114 0 197.5 64
t125.5 173t42 250q0 163 -75.5 252.5t-207.5 89.5q-178 0 -294.5 -135t-116.5 -360q0 -155 88.5 -244.5t240.5 -89.5z" />
    <glyph glyph-name="q" unicode="q" horiz-adv-x="1284" 
d="M797 -373l86 539q-128 -184 -348 -184q-201 0 -327 129t-126 344q0 172 66 315.5t194 231.5t295 88q140 0 227 -61t131 -152l31 194h170l-229 -1444h-170zM555 123q178 0 289.5 129t111.5 369q0 150 -87 238.5t-226 88.5q-177 0 -279 -135t-102 -350q0 -160 77.5 -250
t215.5 -90z" />
    <glyph glyph-name="r" unicode="r" horiz-adv-x="765" 
d="M86 0l119 752q24 153 28 319h160q0 -96 -12 -219q37 58 71 97t80.5 72.5t106.5 50.5t137 18l-24 -160q-172 -8 -274.5 -93.5t-133.5 -279.5l-88 -557h-170z" />
    <glyph glyph-name="s" unicode="s" horiz-adv-x="983" 
d="M469 -18q-103 0 -184 28t-131 77t-75.5 110.5t-27.5 132.5h166q14 -207 258 -207q219 0 219 176q0 68 -47 105.5t-170 68.5q-179 44 -252 113.5t-73 191.5q0 146 109 229t263 83q165 0 267.5 -77t111.5 -233h-160q-5 77 -64.5 122.5t-158.5 45.5t-154 -42.5t-55 -117.5
q0 -62 46 -97.5t171 -65.5q174 -43 253 -111t79 -207q0 -148 -106 -236.5t-285 -88.5z" />
    <glyph glyph-name="t" unicode="t" horiz-adv-x="702" 
d="M418 -14q-152 0 -216.5 85t-43.5 222l100 635h-154l23 143h154l38 244h170l-38 -244h243l-22 -143h-244l-102 -641q-13 -86 15.5 -122t102.5 -36q63 0 127 23l-22 -142q-55 -24 -131 -24z" />
    <glyph glyph-name="u" unicode="u" horiz-adv-x="1204" 
d="M1116 1071l-119 -752q-28 -179 -22 -319h-162q-6 96 10 213q-62 -105 -155.5 -168t-216.5 -63q-175 0 -259 111.5t-49 336.5l103 641h170l-109 -680q-20 -127 25.5 -195.5t154.5 -68.5q137 0 237 86.5t124 235.5l98 622h170z" />
    <glyph glyph-name="v" unicode="v" horiz-adv-x="1052" 
d="M334 0l-211 1071h180l166 -907l449 907h180l-547 -1071h-217z" />
    <glyph glyph-name="w" unicode="w" horiz-adv-x="1570" 
d="M276 0l-145 1071h180l99 -872l393 872h147l103 -872l377 872h178l-492 -1071h-188l-92 813l-373 -813h-187z" />
    <glyph glyph-name="x" unicode="x" horiz-adv-x="1007" 
d="M-59 0l465 565l-273 506h191l200 -383l314 383h190l-428 -524l295 -547h-193l-219 428l-352 -428h-190z" />
    <glyph glyph-name="y" unicode="y" horiz-adv-x="1034" 
d="M90 -373l287 494l-254 950h174l192 -768l408 768h182l-809 -1444h-180z" />
    <glyph glyph-name="z" unicode="z" horiz-adv-x="972" 
d="M-43 0l4 25l750 903h-551l22 143h817l-6 -31l-731 -890h590l-25 -150h-870z" />
    <glyph glyph-name="braceleft" unicode="{" horiz-adv-x="780" 
d="M555 -301q-230 12 -316 128.5t-12 328.5l68 186q39 110 -7.5 178t-195.5 72l17 125q153 -3 217 55.5t61 183.5l-6 218q-6 231 110.5 328.5t364.5 92.5l-20 -127q-115 -1 -178.5 -29t-91 -93t-25.5 -183l4 -207q3 -252 -242 -311q110 -30 147 -113t-8 -219l-59 -166
q-56 -170 -11.5 -240t203.5 -79z" />
    <glyph glyph-name="bar" unicode="|" horiz-adv-x="518" 
d="M221 -303v1892h137v-1892h-137z" />
    <glyph glyph-name="braceright" unicode="}" horiz-adv-x="780" 
d="M256 1595q230 -12 316 -128.5t12 -327.5l-68 -191q-39 -107 7.5 -178t195.5 -84l-17 -125q-154 12 -217.5 -42t-60.5 -181l6 -217q6 -231 -110.5 -329t-364.5 -93l20 127q115 1 178.5 29t91 93t25.5 183l-4 219q-1 137 62.5 204.5t179.5 86.5q-108 36 -148 121.5t2 204.5
l66 180q56 170 11.5 240t-203.5 79z" />
    <glyph glyph-name="asciitilde" unicode="~" horiz-adv-x="911" 
d="M82 457q24 128 87 195t144 67q58 0 114.5 -26.5t100.5 -52.5t70 -26q36 0 67.5 28.5t39.5 80.5h135q-22 -129 -87 -195.5t-143 -66.5q-48 0 -95 16.5t-77.5 35.5t-62.5 35.5t-53 16.5q-35 0 -64 -28t-41 -80h-135z" />
    <glyph glyph-name="uni00A0" unicode="&#xa0;" horiz-adv-x="573" 
 />
    <glyph glyph-name="exclamdown" unicode="&#xa1;" horiz-adv-x="589" 
d="M403 811l-139 -1051h-188l196 1051h131zM379 1235q54 0 92.5 -38t38.5 -93t-37.5 -93t-91.5 -38q-55 0 -94 38t-39 93t38.5 93t92.5 38z" />
    <glyph glyph-name="cent" unicode="&#xa2;" horiz-adv-x="1150" 
d="M588 -16h-15l-41 -260h-120l43 272q-178 35 -276.5 159.5t-98.5 311.5q0 141 45 258t121.5 194t174.5 120.5t206 47.5l32 201h121l-32 -209q145 -25 236 -117t101 -251h-161q-16 193 -199 227l-129 -815q53 0 100.5 14t90.5 43.5t74.5 80.5t45.5 120h160
q-17 -100 -63 -178t-111 -125t-142 -70.5t-163 -23.5zM254 467q0 -278 223 -332l127 809q-154 -12 -252 -138t-98 -339z" />
    <glyph glyph-name="sterling" unicode="&#xa3;" horiz-adv-x="1220" 
d="M117 645l20 127h144q-9 91 -9 193q0 108 30.5 200.5t90 164t155.5 112.5t218 41q191 0 302 -98.5t112 -288.5h-174q-7 115 -64 178t-184 63q-84 0 -146 -29.5t-96.5 -82.5t-50.5 -118t-16 -144q0 -69 4 -191h432l-21 -127h-403q2 -43 2 -141q0 -165 -62 -268
q46 -11 174 -58t179 -47q166 0 192 176h152q-23 -152 -110 -238.5t-240 -86.5q-58 0 -127.5 20t-122.5 44.5t-112 44.5t-97 20q-57 0 -91 -32t-44 -79h-148q14 85 77.5 160.5t158.5 89.5q57 96 57 237q0 44 -8 158h-174z" />
    <glyph glyph-name="yen" unicode="&#xa5;" horiz-adv-x="1179" 
d="M174 575l19 119h319l-309 770h186l252 -663l449 663h178l-533 -770h320l-19 -119h-344l-24 -159h342l-19 -119h-342l-47 -297h-174l47 297h-346l18 119h347l24 159h-344z" />
    <glyph glyph-name="brokenbar" unicode="&#xa6;" horiz-adv-x="518" 
d="M221 -303v911h137v-911h-137zM221 752v837h137v-837h-137z" />
    <glyph glyph-name="section" unicode="&#xa7;" horiz-adv-x="1103" 
d="M444 -281q-77 0 -144 20.5t-120 60t-82.5 105t-25.5 148.5h172q3 -190 215 -190q94 0 156.5 52.5t62.5 145.5q0 71 -55 118.5t-207 103.5q-162 60 -243 135t-81 200q0 118 77.5 192.5t201.5 102.5q-86 83 -86 217q0 157 118 255t287 98q155 0 249.5 -80.5t98.5 -241.5
h-174q-1 91 -48 134.5t-142 43.5q-98 0 -159.5 -48.5t-61.5 -149.5q0 -69 50.5 -116t188.5 -97q81 -29 137 -57.5t104 -69.5t71.5 -96t23.5 -125q0 -116 -72 -183.5t-200 -103.5q42 -37 67 -96t25 -121q0 -165 -114.5 -261t-289.5 -96zM641 369q215 42 215 198
q0 129 -213 207l-168 62q-84 -12 -147.5 -64t-63.5 -139q0 -66 49 -112t156 -87z" />
    <glyph glyph-name="dieresis" unicode="&#xa8;" horiz-adv-x="819" 
d="M352 1298q-44 0 -76 31.5t-32 75.5t33 77.5t77 33.5t75.5 -31.5t31.5 -75.5t-32.5 -77.5t-76.5 -33.5zM737 1298q-44 0 -76 31.5t-32 75.5t33 77.5t77 33.5t75.5 -31.5t31.5 -75.5t-32.5 -77.5t-76.5 -33.5z" />
    <glyph glyph-name="copyright" unicode="&#xa9;" horiz-adv-x="1728" 
d="M889 317q-185 0 -289 109.5t-104 296.5v16q0 182 110.5 295t282.5 113q144 0 239 -72.5t107 -210.5h-156q-25 160 -190 160q-107 0 -169.5 -75.5t-62.5 -209.5v-14q0 -135 61 -209t171 -74q86 0 140.5 43t66.5 127h147q-15 -144 -110 -219.5t-244 -75.5zM885 68
q130 0 249 49.5t209 135.5t143.5 212t53.5 270q0 190 -89 342.5t-237.5 236t-324.5 83.5q-133 0 -253.5 -49.5t-209 -136t-141 -212t-52.5 -268.5q0 -144 54 -269.5t144 -211t208 -134t246 -48.5zM885 -18q-154 0 -292.5 58t-239 157t-159.5 238.5t-59 295.5q0 154 59 293.5
t159.5 240t240.5 159.5t295 59q157 0 296.5 -58.5t238.5 -159t156.5 -238.5t57.5 -292q0 -126 -37.5 -241.5t-106.5 -208t-161.5 -161t-207.5 -105.5t-240 -37z" />
    <glyph glyph-name="ordfeminine" unicode="&#xaa;" horiz-adv-x="858" 
d="M377 594q-126 0 -197 65t-71 172q0 77 33 134t93 89t135 47t169 15h149l8 53q14 95 -20.5 140t-130.5 45q-157 0 -187 -140h-159q15 73 51.5 127t87 84t104 44t111.5 14q78 0 138 -19t102 -57t58.5 -102t2.5 -148l-45 -287q-24 -151 -12 -260h-154q-7 54 -4 113
q-93 -129 -262 -129zM412 717q99 0 163.5 48.5t81.5 149.5l15 91h-140q-136 0 -200 -39t-64 -127q0 -55 37 -89t107 -34z" />
    <glyph glyph-name="guillemotleft" unicode="&#xab;" horiz-adv-x="1024" 
d="M328 170l-209 367l323 362h174l-319 -371l195 -358h-164zM692 170l-209 367l324 362h174l-319 -371l194 -358h-164z" />
    <glyph glyph-name="registered" unicode="&#xae;" horiz-adv-x="1052" 
d="M440 811v449h158q80 0 126 -34.5t46 -101.5v-2q0 -93 -92 -121l119 -190h-103l-108 174h-47v-174h-99zM539 1053h57q78 0 78 65v2q0 64 -78 64h-57v-131zM596 651q160 0 266.5 106.5t106.5 272.5q0 167 -105 273t-268 106t-268 -107t-105 -274q0 -166 107 -271.5
t266 -105.5zM596 578q-190 0 -322.5 129.5t-132.5 320.5q0 189 132.5 322t322.5 133q193 0 324 -131.5t131 -321.5q0 -191 -132 -321.5t-323 -130.5z" />
    <glyph glyph-name="macron" unicode="&#xaf;" horiz-adv-x="819" 
d="M264 1327l21 131h536l-20 -131h-537z" />
    <glyph glyph-name="degree" unicode="&#xb0;" horiz-adv-x="874" 
d="M526 950q83 0 135 58t52 155q0 86 -50.5 143.5t-127.5 57.5q-84 0 -139.5 -59.5t-55.5 -155.5q0 -84 53.5 -141.5t132.5 -57.5zM522 831q-136 0 -231.5 91.5t-95.5 222.5q0 143 98.5 240.5t245.5 97.5q138 0 231.5 -92t93.5 -226q0 -139 -98.5 -236.5t-243.5 -97.5z" />
    <glyph glyph-name="plusminus" unicode="&#xb1;" horiz-adv-x="1062" 
d="M416 297l59 373h-383l23 143h383l59 373h150l-60 -373h383l-22 -143h-383l-60 -373h-149zM-12 0l22 143h916l-23 -143h-915z" />
    <glyph glyph-name="twosuperior" unicode="&#xb2;" horiz-adv-x="585" 
d="M49 764l4 24l303 269q73 65 111 116t37 101q-1 44 -27.5 68t-66.5 24q-106 0 -138 -135h-127q18 113 93 177.5t180 64.5q94 0 156.5 -45.5t66.5 -145.5q3 -69 -46 -136t-151 -155l-141 -123h279l-17 -104h-516z" />
    <glyph glyph-name="threesuperior" unicode="&#xb3;" horiz-adv-x="636" 
d="M375 754q-54 0 -99 12t-83 37.5t-59.5 71t-22.5 106.5h129q3 -57 36.5 -91t96.5 -34q56 0 95.5 31t39.5 90q0 100 -113 100h-49l14 97h56q57 0 90 26t33 76q0 94 -101 94q-54 0 -90.5 -30t-48.5 -83h-123q12 99 87 157.5t179 58.5q101 0 165.5 -45t64.5 -140
q0 -57 -36.5 -100.5t-100.5 -63.5q51 -11 82.5 -50t31.5 -103q0 -100 -80.5 -158.5t-193.5 -58.5z" />
    <glyph glyph-name="acute" unicode="&#xb4;" horiz-adv-x="819" 
d="M438 1255l162 301h221l-248 -301h-135z" />
    <glyph glyph-name="paragraph" unicode="&#xb6;" horiz-adv-x="1204" 
d="M446 -205l144 914h-6q-188 0 -299 86t-111 247q0 82 25 151t69 118.5t105 84t132.5 51.5t151.5 17h500l-264 -1669h-141l245 1553h-166l-245 -1553h-140z" />
    <glyph glyph-name="periodcentered" unicode="&#xb7;" horiz-adv-x="577" 
d="M307 539q-54 0 -92.5 38t-38.5 93t37.5 93t91.5 38q55 0 94 -38t39 -93t-38.5 -93t-92.5 -38z" />
    <glyph glyph-name="cedilla" unicode="&#xb8;" horiz-adv-x="819" 
d="M293 -438q-84 0 -140 44t-63 128h115q3 -32 26 -53t60 -21q36 0 59 19t23 59q0 30 -20 47.5t-52 17.5q-29 0 -53 -16l-55 61l116 152h109l-82 -109q66 6 116 -33.5t50 -113.5q0 -87 -56.5 -134.5t-152.5 -47.5z" />
    <glyph glyph-name="onesuperior" unicode="&#xb9;" horiz-adv-x="473" 
d="M250 764l88 561l-182 -111l18 125l203 125h123l-111 -700h-139z" />
    <glyph glyph-name="ordmasculine" unicode="&#xba;" horiz-adv-x="1009" 
d="M541 594q-179 0 -283 105.5t-104 275.5q0 218 133.5 363t330.5 145q179 0 283.5 -105.5t104.5 -275.5q0 -221 -131 -364.5t-334 -143.5zM549 725q135 0 213 105.5t78 269.5q0 118 -59.5 185t-172.5 67q-130 0 -209.5 -106.5t-79.5 -270.5q0 -118 58 -184t172 -66z" />
    <glyph glyph-name="guillemotright" unicode="&#xbb;" horiz-adv-x="1024" 
d="M692 899l209 -367l-323 -362h-175l320 371l-195 358h164zM328 899l209 -367l-324 -362h-174l319 371l-194 358h164z" />
    <glyph glyph-name="onequarter" unicode="&#xbc;" horiz-adv-x="1400" 
d="M256 764l88 561l-182 -111l18 125l203 125h123l-111 -700h-139zM41 0l1223 1464h141l-1223 -1464h-141zM1044 0l23 141h-352l8 49l393 510h172l-74 -458h95l-17 -101h-92l-22 -141h-134zM883 242h202l54 346z" />
    <glyph glyph-name="onehalf" unicode="&#xbd;" horiz-adv-x="1427" 
d="M256 764l88 561l-182 -111l18 125l203 125h123l-111 -700h-139zM14 0l1223 1464h141l-1222 -1464h-142zM764 0l4 25l303 268q82 72 115 116.5t33 100.5q0 44 -27.5 68t-67.5 24q-105 0 -137 -135h-127q18 113 93 177.5t180 64.5q93 0 158 -49.5t65 -147.5
q0 -40 -11 -72.5t-42.5 -70t-58.5 -62.5t-89 -80l-141 -123h282l-16 -104h-516z" />
    <glyph glyph-name="threequarters" unicode="&#xbe;" horiz-adv-x="1454" 
d="M381 754q-54 0 -99 12t-83 37.5t-59.5 71t-22.5 106.5h129q3 -57 36.5 -91t96.5 -34q56 0 95.5 31t39.5 90q0 100 -113 100h-49l15 97h55q57 0 90 26t33 76q0 94 -101 94q-54 0 -90.5 -30t-48.5 -83h-123q12 99 87.5 157.5t179.5 58.5q101 0 165 -45t64 -140
q0 -57 -36.5 -100.5t-100.5 -63.5q51 -11 82.5 -50t31.5 -103q0 -100 -80.5 -158.5t-193.5 -58.5zM123 0l1223 1464h141l-1223 -1464h-141zM1098 0l22 141h-352l8 49l393 510h172l-73 -458h94l-16 -101h-93l-22 -141h-133zM936 242h203l53 346z" />
    <glyph glyph-name="questiondown" unicode="&#xbf;" horiz-adv-x="1001" 
d="M672 811l-17 -104q-13 -85 -60 -158t-84.5 -106t-114.5 -90q-17 -13 -25 -19q-44 -34 -70 -57t-52.5 -55.5t-38 -70t-11.5 -83.5q0 -86 56 -135.5t159 -49.5q110 0 187.5 69.5t98.5 197.5h162q-26 -192 -155 -301t-312 -107q-182 0 -276 93.5t-94 230.5q0 56 15 104.5
t33.5 80.5t58 70t64.5 57t77 56q9 7 14 10q48 35 76 58t62.5 58.5t54 75t26.5 85.5l14 90h152zM631 1235q54 0 92.5 -38t38.5 -93t-37.5 -93t-91.5 -38q-55 0 -94 38t-39 93t38.5 93t92.5 38z" />
    <glyph glyph-name="Agrave" unicode="&#xc0;" horiz-adv-x="1331" 
d="M1024 0l-76 422h-604l-209 -422h-172l735 1464h234l264 -1464h-172zM786 1317l-372 -754h508zM776 1579l-164 260h207l80 -260h-123z" />
    <glyph glyph-name="Aacute" unicode="&#xc1;" horiz-adv-x="1331" 
d="M1024 0l-76 422h-604l-209 -422h-172l735 1464h234l264 -1464h-172zM786 1317l-372 -754h508zM745 1579l140 260h217l-221 -260h-136z" />
    <glyph glyph-name="Acircumflex" unicode="&#xc2;" horiz-adv-x="1331" 
d="M1024 0l-76 422h-604l-209 -422h-172l735 1464h234l264 -1464h-172zM786 1317l-372 -754h508zM514 1579l254 260h154l186 -260h-119l-158 119l-190 -119h-127z" />
    <glyph glyph-name="Atilde" unicode="&#xc3;" horiz-adv-x="1331" 
d="M1024 0l-76 422h-604l-209 -422h-172l735 1464h234l264 -1464h-172zM786 1317l-372 -754h508zM952 1585q-41 0 -85 22t-81 44t-61 22q-30 0 -57 -25t-37 -67h-123q22 112 80.5 175t138.5 63q40 0 84 -22t80.5 -44t60.5 -22q30 0 56 25t36 67h123q-22 -112 -79.5 -175
t-135.5 -63z" />
    <glyph glyph-name="Adieresis" unicode="&#xc4;" horiz-adv-x="1331" 
d="M1024 0l-76 422h-604l-209 -422h-172l735 1464h234l264 -1464h-172zM786 1317l-372 -754h508zM625 1616q-45 0 -77 31t-32 75t33.5 77.5t77.5 33.5t75 -31.5t31 -75.5t-32 -77t-76 -33zM1040 1616q-44 0 -76 31t-32 75t33 77.5t77 33.5t75.5 -31.5t31.5 -75.5t-32.5 -77
t-76.5 -33z" />
    <glyph glyph-name="Aring" unicode="&#xc5;" horiz-adv-x="1331" 
d="M1024 0l-76 422h-604l-209 -422h-172l735 1464h234l264 -1464h-172zM786 1317l-372 -754h508zM829 1554q-91 0 -153 60.5t-62 148.5q0 90 66.5 153.5t157.5 63.5t153 -60t62 -148q0 -90 -66.5 -154t-157.5 -64zM829 1649q48 0 80.5 35t32.5 88q0 51 -28.5 82.5
t-75.5 31.5q-48 0 -80.5 -35t-32.5 -88q0 -51 28.5 -82.5t75.5 -31.5z" />
    <glyph glyph-name="AE" unicode="&#xc6;" horiz-adv-x="1945" 
d="M-27 0l955 1464h1034l-25 -145h-667l-78 -498h545l-23 -145h-545l-84 -531h713l-22 -145h-891l65 424h-518l-272 -424h-187zM1010 1319l-488 -756h451l119 756h-82z" />
    <glyph glyph-name="Ccedilla" unicode="&#xc7;" horiz-adv-x="1490" 
d="M618 -438q-84 0 -139.5 44t-62.5 128h114q3 -32 26 -53t60 -21q36 0 59 19t23 59q0 30 -20 47.5t-51 17.5q-30 0 -54 -16l-55 61l113 148q-231 43 -361.5 209t-130.5 418q0 238 98 435t277 313t404 116q229 0 379 -125t165 -354h-168q-27 169 -120 253.5t-265 84.5
q-135 0 -246.5 -56.5t-185 -154t-113.5 -229.5t-40 -283q0 -240 118.5 -369t350.5 -129q172 0 288.5 96.5t169.5 263.5h170q-58 -232 -228 -367.5t-402 -135.5q-31 0 -60 2l-69 -93q66 6 115.5 -33.5t49.5 -113.5q0 -87 -56.5 -134.5t-152.5 -47.5z" />
    <glyph glyph-name="Egrave" unicode="&#xc8;" horiz-adv-x="1171" 
d="M98 0l232 1464h846l-25 -145h-668l-77 -498h544l-22 -145h-545l-84 -531h713l-23 -145h-891zM739 1579l-164 260h207l80 -260h-123z" />
    <glyph glyph-name="Eacute" unicode="&#xc9;" horiz-adv-x="1171" 
d="M98 0l232 1464h846l-25 -145h-668l-77 -498h544l-22 -145h-545l-84 -531h713l-23 -145h-891zM682 1579l139 260h217l-221 -260h-135z" />
    <glyph glyph-name="Ecircumflex" unicode="&#xca;" horiz-adv-x="1171" 
d="M98 0l232 1464h846l-25 -145h-668l-77 -498h544l-22 -145h-545l-84 -531h713l-23 -145h-891zM455 1579l254 260h153l187 -260h-119l-158 119l-190 -119h-127z" />
    <glyph glyph-name="Edieresis" unicode="&#xcb;" horiz-adv-x="1171" 
d="M98 0l232 1464h846l-25 -145h-668l-77 -498h544l-22 -145h-545l-84 -531h713l-23 -145h-891zM569 1616q-44 0 -76 31t-32 75t33 77.5t77 33.5t75.5 -31.5t31.5 -75.5t-32.5 -77t-76.5 -33zM985 1616q-44 0 -76 31t-32 75t33 77.5t77 33.5t75.5 -31.5t31.5 -75.5
t-32.5 -77t-76.5 -33z" />
    <glyph glyph-name="Igrave" unicode="&#xcc;" horiz-adv-x="571" 
d="M109 0l231 1464h178l-231 -1464h-178zM397 1579l-164 260h207l80 -260h-123z" />
    <glyph glyph-name="Iacute" unicode="&#xcd;" horiz-adv-x="571" 
d="M109 0l231 1464h178l-231 -1464h-178zM367 1579l139 260h217l-221 -260h-135z" />
    <glyph glyph-name="Icircumflex" unicode="&#xce;" horiz-adv-x="571" 
d="M109 0l231 1464h178l-231 -1464h-178zM139 1579l254 260h154l186 -260h-119l-157 119l-191 -119h-127z" />
    <glyph glyph-name="Idieresis" unicode="&#xcf;" horiz-adv-x="571" 
d="M109 0l231 1464h178l-231 -1464h-178zM260 1616q-44 0 -76 31t-32 75t33 77.5t77 33.5t75.5 -31.5t31.5 -75.5t-32.5 -77t-76.5 -33zM676 1616q-45 0 -77 31t-32 75t33.5 77.5t77.5 33.5t75 -31.5t31 -75.5t-32 -77t-76 -33z" />
    <glyph glyph-name="Eth" unicode="&#xd0;" horiz-adv-x="1470" 
d="M88 666l23 137h155l105 661h356q142 0 256 -30.5t193 -85.5t132 -133.5t77.5 -172t25.5 -202.5q0 -140 -34.5 -266t-105 -231t-170 -181.5t-236.5 -119t-298 -42.5h-428l105 666h-156zM340 145h221q315 0 491.5 184t176.5 509q0 86 -17.5 157.5t-56 132.5t-97 103.5
t-145 66t-194.5 23.5h-193l-82 -518h424l-22 -137h-424z" />
    <glyph glyph-name="Ntilde" unicode="&#xd1;" horiz-adv-x="1482" 
d="M98 0l232 1464h227l524 -1210l193 1210h170l-232 -1464h-200l-545 1255l-199 -1255h-170zM1053 1585q-41 0 -85.5 22t-81.5 44t-61 22q-30 0 -57 -25t-37 -67h-123q22 112 80.5 175t138.5 63q40 0 84 -22t81 -44t61 -22q30 0 56 25t36 67h123q-22 -112 -79.5 -175
t-135.5 -63z" />
    <glyph glyph-name="Ograve" unicode="&#xd2;" horiz-adv-x="1660" 
d="M1583 823q0 -178 -60.5 -335t-164 -267.5t-246.5 -174.5t-303 -64q-199 0 -352.5 85.5t-235.5 234.5t-82 337q0 230 103.5 424t284.5 307t399 113q154 0 280 -52.5t207.5 -143.5t125.5 -210t44 -254zM1399 823q0 108 -31.5 201t-90.5 163.5t-150 111t-203 40.5
q-179 0 -317.5 -96.5t-210.5 -254.5t-72 -349q0 -236 135 -374t352 -138q171 0 305.5 90.5t208.5 249t74 356.5zM913 1579l-163 260h206l80 -260h-123z" />
    <glyph glyph-name="Oacute" unicode="&#xd3;" horiz-adv-x="1660" 
d="M1583 823q0 -178 -60.5 -335t-164 -267.5t-246.5 -174.5t-303 -64q-199 0 -352.5 85.5t-235.5 234.5t-82 337q0 230 103.5 424t284.5 307t399 113q154 0 280 -52.5t207.5 -143.5t125.5 -210t44 -254zM1399 823q0 108 -31.5 201t-90.5 163.5t-150 111t-203 40.5
q-179 0 -317.5 -96.5t-210.5 -254.5t-72 -349q0 -236 135 -374t352 -138q171 0 305.5 90.5t208.5 249t74 356.5zM889 1579l139 260h217l-221 -260h-135z" />
    <glyph glyph-name="Ocircumflex" unicode="&#xd4;" horiz-adv-x="1660" 
d="M1583 823q0 -178 -60.5 -335t-164 -267.5t-246.5 -174.5t-303 -64q-199 0 -352.5 85.5t-235.5 234.5t-82 337q0 230 103.5 424t284.5 307t399 113q154 0 280 -52.5t207.5 -143.5t125.5 -210t44 -254zM1399 823q0 108 -31.5 201t-90.5 163.5t-150 111t-203 40.5
q-179 0 -317.5 -96.5t-210.5 -254.5t-72 -349q0 -236 135 -374t352 -138q171 0 305.5 90.5t208.5 249t74 356.5zM676 1579l254 260h153l187 -260h-119l-158 119l-190 -119h-127z" />
    <glyph glyph-name="Otilde" unicode="&#xd5;" horiz-adv-x="1660" 
d="M1583 823q0 -178 -60.5 -335t-164 -267.5t-246.5 -174.5t-303 -64q-199 0 -352.5 85.5t-235.5 234.5t-82 337q0 230 103.5 424t284.5 307t399 113q154 0 280 -52.5t207.5 -143.5t125.5 -210t44 -254zM1399 823q0 108 -31.5 201t-90.5 163.5t-150 111t-203 40.5
q-179 0 -317.5 -96.5t-210.5 -254.5t-72 -349q0 -236 135 -374t352 -138q171 0 305.5 90.5t208.5 249t74 356.5zM1096 1585q-41 0 -85.5 22t-81.5 44t-61 22q-30 0 -57 -25t-37 -67h-123q22 112 80.5 175t138.5 63q40 0 84 -22t81 -44t61 -22q30 0 56 25t36 67h123
q-22 -112 -79.5 -175t-135.5 -63z" />
    <glyph glyph-name="Odieresis" unicode="&#xd6;" horiz-adv-x="1660" 
d="M1583 823q0 -178 -60.5 -335t-164 -267.5t-246.5 -174.5t-303 -64q-199 0 -352.5 85.5t-235.5 234.5t-82 337q0 230 103.5 424t284.5 307t399 113q154 0 280 -52.5t207.5 -143.5t125.5 -210t44 -254zM1399 823q0 108 -31.5 201t-90.5 163.5t-150 111t-203 40.5
q-179 0 -317.5 -96.5t-210.5 -254.5t-72 -349q0 -236 135 -374t352 -138q171 0 305.5 90.5t208.5 249t74 356.5zM774 1616q-44 0 -76 31t-32 75t33 77.5t77 33.5t75.5 -31.5t31.5 -75.5t-32.5 -77t-76.5 -33zM1190 1616q-45 0 -77 31t-32 75t33.5 77.5t77.5 33.5t75 -31.5
t31 -75.5t-32 -77t-76 -33z" />
    <glyph glyph-name="multiply" unicode="&#xd7;" horiz-adv-x="960" 
d="M137 268l-88 103l352 315l-270 313l102 97l275 -316l352 316l92 -103l-356 -317l274 -314l-106 -94l-272 314z" />
    <glyph glyph-name="Oslash" unicode="&#xd8;" horiz-adv-x="1660" 
d="M150 -68l-89 93l205 208q-127 172 -127 406q0 230 103.5 424t284.5 307t399 113q251 0 424 -140l172 177l88 -93l-170 -172q143 -178 143 -432q0 -178 -60.5 -335t-164 -267.5t-246.5 -174.5t-303 -64q-276 0 -457 157zM1399 823q0 182 -78 310l-858 -879
q130 -127 348 -127q171 0 305.5 90.5t208.5 249t74 356.5zM324 639q0 -166 63 -283l854 875q-123 108 -317 108q-179 0 -317.5 -96.5t-210.5 -254.5t-72 -349z" />
    <glyph glyph-name="Ugrave" unicode="&#xd9;" horiz-adv-x="1425" 
d="M666 -18q-280 0 -408.5 152.5t-81.5 445.5l141 884h179l-142 -886q-37 -239 42.5 -344t277.5 -105q169 0 267 95t132 311l148 929h178l-152 -954q-40 -250 -183 -389t-398 -139zM815 1579l-164 260h207l80 -260h-123z" />
    <glyph glyph-name="Uacute" unicode="&#xda;" horiz-adv-x="1425" 
d="M666 -18q-280 0 -408.5 152.5t-81.5 445.5l141 884h179l-142 -886q-37 -239 42.5 -344t277.5 -105q169 0 267 95t132 311l148 929h178l-152 -954q-40 -250 -183 -389t-398 -139zM784 1579l140 260h217l-221 -260h-136z" />
    <glyph glyph-name="Ucircumflex" unicode="&#xdb;" horiz-adv-x="1425" 
d="M666 -18q-280 0 -408.5 152.5t-81.5 445.5l141 884h179l-142 -886q-37 -239 42.5 -344t277.5 -105q169 0 267 95t132 311l148 929h178l-152 -954q-40 -250 -183 -389t-398 -139zM557 1579l254 260h154l186 -260h-119l-158 119l-190 -119h-127z" />
    <glyph glyph-name="Udieresis" unicode="&#xdc;" horiz-adv-x="1425" 
d="M666 -18q-280 0 -408.5 152.5t-81.5 445.5l141 884h179l-142 -886q-37 -239 42.5 -344t277.5 -105q169 0 267 95t132 311l148 929h178l-152 -954q-40 -250 -183 -389t-398 -139zM678 1616q-45 0 -77 31t-32 75t33.5 77.5t77.5 33.5t75 -31.5t31 -75.5t-32 -77t-76 -33z
M1094 1616q-45 0 -77 31t-32 75t33.5 77.5t77.5 33.5t75 -31.5t31 -75.5t-32 -77t-76 -33z" />
    <glyph glyph-name="Yacute" unicode="&#xdd;" horiz-adv-x="1212" 
d="M444 0l101 639l-359 825h191l282 -680l476 680h182l-596 -839l-98 -625h-179zM682 1579l139 260h217l-221 -260h-135z" />
    <glyph glyph-name="Thorn" unicode="&#xde;" horiz-adv-x="1189" 
d="M508 1464l-43 -274h233q206 0 329 -96.5t122 -276.5q0 -101 -31 -183t-83 -136.5t-123.5 -91t-149 -52.5t-162.5 -16h-270l-54 -338h-178l232 1464h178zM680 1047h-238l-90 -568h258q176 0 269.5 87t93.5 249q1 119 -71.5 175.5t-221.5 56.5z" />
    <glyph glyph-name="germandbls" unicode="&#xdf;" horiz-adv-x="1214" 
d="M645 -18q-132 0 -229 51l22 137q93 -49 199 -49q141 0 219 97t78 251q0 157 -92.5 246.5t-259.5 89.5l24 143q72 0 132.5 15.5t110 48t77.5 89t28 132.5q0 103 -62.5 160t-172.5 57q-113 0 -184.5 -72.5t-92.5 -199.5l-186 -1178h-170l186 1188q29 183 153.5 291
t297.5 108q77 0 147 -23t125.5 -66t88 -112t32.5 -155q0 -131 -80 -224.5t-217 -134.5q137 -44 214 -152.5t77 -258.5q0 -219 -126 -349t-339 -130z" />
    <glyph glyph-name="agrave" unicode="&#xe0;" horiz-adv-x="1101" 
d="M403 -16q-162 0 -254 82.5t-92 220.5q0 96 41 164.5t115.5 106t163.5 54.5t201 17h206l13 78q21 125 -26.5 183t-174.5 58q-214 0 -256 -192h-170q18 92 63.5 159.5t107.5 104t127 53.5t134 17q93 0 164.5 -22t123 -68t71.5 -124.5t4 -183.5l-60 -373q-32 -193 -18 -319
h-160q-9 87 -2 170q-56 -91 -140 -138.5t-182 -47.5zM426 117q125 0 211.5 69.5t107.5 204.5l19 117h-182q-185 0 -271 -50.5t-86 -170.5q0 -75 51.5 -122.5t149.5 -47.5zM578 1255l-181 301h209l96 -301h-124z" />
    <glyph glyph-name="aacute" unicode="&#xe1;" horiz-adv-x="1101" 
d="M403 -16q-162 0 -254 82.5t-92 220.5q0 96 41 164.5t115.5 106t163.5 54.5t201 17h206l13 78q21 125 -26.5 183t-174.5 58q-214 0 -256 -192h-170q18 92 63.5 159.5t107.5 104t127 53.5t134 17q93 0 164.5 -22t123 -68t71.5 -124.5t4 -183.5l-60 -373q-32 -193 -18 -319
h-160q-9 87 -2 170q-56 -91 -140 -138.5t-182 -47.5zM426 117q125 0 211.5 69.5t107.5 204.5l19 117h-182q-185 0 -271 -50.5t-86 -170.5q0 -75 51.5 -122.5t149.5 -47.5zM551 1255l162 301h221l-248 -301h-135z" />
    <glyph glyph-name="acircumflex" unicode="&#xe2;" horiz-adv-x="1101" 
d="M403 -16q-162 0 -254 82.5t-92 220.5q0 96 41 164.5t115.5 106t163.5 54.5t201 17h206l13 78q21 125 -26.5 183t-174.5 58q-214 0 -256 -192h-170q18 92 63.5 159.5t107.5 104t127 53.5t134 17q93 0 164.5 -22t123 -68t71.5 -124.5t4 -183.5l-60 -373q-32 -193 -18 -319
h-160q-9 87 -2 170q-56 -91 -140 -138.5t-182 -47.5zM426 117q125 0 211.5 69.5t107.5 204.5l19 117h-182q-185 0 -271 -50.5t-86 -170.5q0 -75 51.5 -122.5t149.5 -47.5zM322 1255l264 295h153l176 -295h-118l-152 154l-196 -154h-127z" />
    <glyph glyph-name="atilde" unicode="&#xe3;" horiz-adv-x="1101" 
d="M403 -16q-162 0 -254 82.5t-92 220.5q0 96 41 164.5t115.5 106t163.5 54.5t201 17h206l13 78q21 125 -26.5 183t-174.5 58q-214 0 -256 -192h-170q18 92 63.5 159.5t107.5 104t127 53.5t134 17q93 0 164.5 -22t123 -68t71.5 -124.5t4 -183.5l-60 -373q-32 -193 -18 -319
h-160q-9 87 -2 170q-56 -91 -140 -138.5t-182 -47.5zM426 117q125 0 211.5 69.5t107.5 204.5l19 117h-182q-185 0 -271 -50.5t-86 -170.5q0 -75 51.5 -122.5t149.5 -47.5zM770 1268q-41 0 -85 22t-81 44t-61 22q-30 0 -57 -25t-37 -67h-123q22 112 80.5 174.5t138.5 62.5
q40 0 84 -22t80.5 -44t60.5 -22q30 0 56 25t36 67h123q-22 -112 -79 -174.5t-136 -62.5z" />
    <glyph glyph-name="adieresis" unicode="&#xe4;" horiz-adv-x="1101" 
d="M403 -16q-162 0 -254 82.5t-92 220.5q0 96 41 164.5t115.5 106t163.5 54.5t201 17h206l13 78q21 125 -26.5 183t-174.5 58q-214 0 -256 -192h-170q18 92 63.5 159.5t107.5 104t127 53.5t134 17q93 0 164.5 -22t123 -68t71.5 -124.5t4 -183.5l-60 -373q-32 -193 -18 -319
h-160q-9 87 -2 170q-56 -91 -140 -138.5t-182 -47.5zM426 117q125 0 211.5 69.5t107.5 204.5l19 117h-182q-185 0 -271 -50.5t-86 -170.5q0 -75 51.5 -122.5t149.5 -47.5zM457 1298q-44 0 -76.5 31.5t-32.5 75.5t33.5 77.5t77.5 33.5t75 -31.5t31 -75.5q0 -45 -32 -78
t-76 -33zM842 1298q-44 0 -76.5 31.5t-32.5 75.5t33.5 77.5t77.5 33.5t75 -31.5t31 -75.5q0 -45 -32 -78t-76 -33z" />
    <glyph glyph-name="aring" unicode="&#xe5;" horiz-adv-x="1101" 
d="M403 -16q-162 0 -254 82.5t-92 220.5q0 96 41 164.5t115.5 106t163.5 54.5t201 17h206l13 78q21 125 -26.5 183t-174.5 58q-214 0 -256 -192h-170q18 92 63.5 159.5t107.5 104t127 53.5t134 17q93 0 164.5 -22t123 -68t71.5 -124.5t4 -183.5l-60 -373q-32 -193 -18 -319
h-160q-9 87 -2 170q-56 -91 -140 -138.5t-182 -47.5zM426 117q125 0 211.5 69.5t107.5 204.5l19 117h-182q-185 0 -271 -50.5t-86 -170.5q0 -75 51.5 -122.5t149.5 -47.5zM664 1319q48 0 80 34.5t32 88.5q0 51 -28.5 82.5t-75.5 31.5q-48 0 -80.5 -34.5t-32.5 -87.5
q0 -51 29 -83t76 -32zM664 1225q-91 0 -153 60.5t-62 148.5q0 90 66 153.5t157 63.5t153 -60.5t62 -148.5q0 -90 -66 -153.5t-157 -63.5z" />
    <glyph glyph-name="ae" unicode="&#xe6;" horiz-adv-x="1792" 
d="M938 432q0 -152 67 -230.5t216 -78.5q222 0 284 186h166q-48 -162 -168.5 -244.5t-288.5 -82.5q-150 0 -251 63.5t-150 177.5q-61 -115 -166 -177t-239 -62q-168 0 -259.5 76.5t-91.5 213.5q0 96 42.5 167.5t117.5 112.5t168 61t203 20h198l13 72q20 124 -27.5 182.5
t-175.5 58.5q-214 0 -256 -192h-170q18 92 63.5 159.5t107.5 104t127 53.5t134 17q267 0 334 -177q72 83 168 128.5t207 45.5q225 0 334 -139t67 -407l-6 -35h-766q-2 -25 -2 -74zM422 117q129 0 217 69.5t109 204.5l18 115h-184q-183 0 -270 -52.5t-87 -172.5
q0 -74 50.5 -119t146.5 -45zM1300 948q-123 0 -214.5 -77t-127.5 -236h596q12 162 -48.5 237.5t-205.5 75.5z" />
    <glyph glyph-name="ccedilla" unicode="&#xe7;" horiz-adv-x="1134" 
d="M428 -438q-84 0 -140 44t-63 128h115q3 -32 26 -53t60 -21q36 0 59 19t23 59q0 30 -20 47.5t-52 17.5q-29 0 -53 -16l-55 61l114 150q-174 35 -268 161t-94 312q0 144 45.5 262.5t123 194.5t177 117.5t209.5 41.5q121 0 214.5 -39t153 -125t66.5 -212h-162
q-14 130 -85.5 182.5t-194.5 52.5q-165 0 -269 -125t-104 -350q0 -170 83.5 -259t246.5 -89q116 0 202 68.5t107 189.5h160q-33 -187 -162 -292t-311 -105h-41l-68 -93q66 6 116 -33.5t50 -113.5q0 -87 -56.5 -134.5t-152.5 -47.5z" />
    <glyph glyph-name="egrave" unicode="&#xe8;" horiz-adv-x="1132" 
d="M252 432q0 -309 295 -309q113 0 188.5 47t106.5 139h170q-48 -160 -175 -243.5t-296 -83.5q-215 0 -339 126.5t-124 331.5q0 186 74 334.5t201.5 230.5t283.5 82q227 0 342 -140t74 -406l-6 -39h-793q-2 -23 -2 -70zM627 948q-123 0 -219 -76.5t-134 -232.5h621
q12 160 -54 234.5t-214 74.5zM602 1255l-180 301h209l96 -301h-125z" />
    <glyph glyph-name="eacute" unicode="&#xe9;" horiz-adv-x="1132" 
d="M252 432q0 -309 295 -309q113 0 188.5 47t106.5 139h170q-48 -160 -175 -243.5t-296 -83.5q-215 0 -339 126.5t-124 331.5q0 186 74 334.5t201.5 230.5t283.5 82q227 0 342 -140t74 -406l-6 -39h-793q-2 -23 -2 -70zM627 948q-123 0 -219 -76.5t-134 -232.5h621
q12 160 -54 234.5t-214 74.5zM575 1255l162 301h221l-247 -301h-136z" />
    <glyph glyph-name="ecircumflex" unicode="&#xea;" horiz-adv-x="1132" 
d="M252 432q0 -309 295 -309q113 0 188.5 47t106.5 139h170q-48 -160 -175 -243.5t-296 -83.5q-215 0 -339 126.5t-124 331.5q0 186 74 334.5t201.5 230.5t283.5 82q227 0 342 -140t74 -406l-6 -39h-793q-2 -23 -2 -70zM627 948q-123 0 -219 -76.5t-134 -232.5h621
q12 160 -54 234.5t-214 74.5zM346 1255l264 295h154l176 -295h-119l-151 154l-197 -154h-127z" />
    <glyph glyph-name="edieresis" unicode="&#xeb;" horiz-adv-x="1132" 
d="M252 432q0 -309 295 -309q113 0 188.5 47t106.5 139h170q-48 -160 -175 -243.5t-296 -83.5q-215 0 -339 126.5t-124 331.5q0 186 74 334.5t201.5 230.5t283.5 82q227 0 342 -140t74 -406l-6 -39h-793q-2 -23 -2 -70zM627 948q-123 0 -219 -76.5t-134 -232.5h621
q12 160 -54 234.5t-214 74.5zM494 1298q-44 0 -76.5 31.5t-32.5 75.5t33.5 77.5t77.5 33.5t75 -31.5t31 -75.5q0 -45 -32 -78t-76 -33zM879 1298q-44 0 -76.5 31.5t-32.5 75.5t33.5 77.5t77.5 33.5t75 -31.5t31 -75.5q0 -45 -32 -78t-76 -33z" />
    <glyph glyph-name="igrave" unicode="&#xec;" horiz-adv-x="522" 
d="M90 0l170 1071h170l-170 -1071h-170zM313 1255l-180 301h209l96 -301h-125z" />
    <glyph glyph-name="iacute" unicode="&#xed;" horiz-adv-x="522" 
d="M90 0l170 1071h170l-170 -1071h-170zM287 1255l162 301h221l-248 -301h-135z" />
    <glyph glyph-name="icircumflex" unicode="&#xee;" horiz-adv-x="522" 
d="M90 0l170 1071h170l-170 -1071h-170zM57 1255l265 295h153l176 -295h-119l-151 154l-197 -154h-127z" />
    <glyph glyph-name="idieresis" unicode="&#xef;" horiz-adv-x="522" 
d="M215 1298q-44 0 -76.5 31.5t-32.5 75.5t33.5 77.5t77.5 33.5t75.5 -31.5t31.5 -75.5t-32.5 -77.5t-76.5 -33.5zM580 1298q-44 0 -76.5 31.5t-32.5 75.5t33.5 77.5t77.5 33.5t75 -31.5t31 -75.5q0 -45 -32 -78t-76 -33zM90 0l170 1071h170l-170 -1071h-170z" />
    <glyph glyph-name="eth" unicode="&#xf0;" horiz-adv-x="1212" 
d="M465 1176l-53 92l223 121q-92 92 -236 194h217q79 -48 158 -121l191 105l53 -94l-168 -91q124 -142 200 -322.5t76 -383.5q0 -147 -39 -273.5t-111 -220t-182 -147t-245 -53.5q-208 0 -339.5 132t-131.5 347q0 118 39.5 231t109 201.5t173.5 142.5t223 54q205 0 307 -164
q-82 218 -219 381zM254 455q0 -68 17 -126t51.5 -105t93.5 -74t137 -27q92 0 167.5 39.5t125 107t76 155.5t26.5 187q0 67 -17 125.5t-52 106.5t-96 76t-142 28q-120 0 -209.5 -69.5t-133.5 -180.5t-44 -243z" />
    <glyph glyph-name="ntilde" unicode="&#xf1;" horiz-adv-x="1212" 
d="M86 0l119 752q24 153 28 319h160q0 -105 -12 -213q60 104 155.5 168t219.5 64q86 0 150 -24.5t108.5 -78.5t57 -139.5t-4.5 -206.5l-102 -641h-170l108 680q43 264 -184 264q-137 0 -239 -86t-126 -235l-98 -623h-170zM838 1268q-41 0 -85.5 22t-81.5 44t-61 22
q-30 0 -57 -25t-37 -67h-123q22 112 80.5 174.5t138.5 62.5q40 0 84 -22t81 -44t61 -22q30 0 56 25t36 67h123q-22 -112 -79 -174.5t-136 -62.5z" />
    <glyph glyph-name="ograve" unicode="&#xf2;" horiz-adv-x="1206" 
d="M555 -16q-219 0 -348 133.5t-129 341.5q0 132 44 249t119.5 200t181 131t224.5 48q220 0 349.5 -130.5t129.5 -340.5q0 -181 -72 -325t-203 -225.5t-296 -81.5zM563 123q178 0 281.5 137.5t103.5 351.5q0 156 -80 246t-231 90q-170 0 -276.5 -138.5t-106.5 -350.5
q0 -157 78 -246.5t231 -89.5zM629 1255l-180 301h208l97 -301h-125z" />
    <glyph glyph-name="oacute" unicode="&#xf3;" horiz-adv-x="1206" 
d="M555 -16q-219 0 -348 133.5t-129 341.5q0 132 44 249t119.5 200t181 131t224.5 48q220 0 349.5 -130.5t129.5 -340.5q0 -181 -72 -325t-203 -225.5t-296 -81.5zM563 123q178 0 281.5 137.5t103.5 351.5q0 156 -80 246t-231 90q-170 0 -276.5 -138.5t-106.5 -350.5
q0 -157 78 -246.5t231 -89.5zM602 1255l162 301h221l-248 -301h-135z" />
    <glyph glyph-name="ocircumflex" unicode="&#xf4;" horiz-adv-x="1206" 
d="M555 -16q-219 0 -348 133.5t-129 341.5q0 132 44 249t119.5 200t181 131t224.5 48q220 0 349.5 -130.5t129.5 -340.5q0 -181 -72 -325t-203 -225.5t-296 -81.5zM563 123q178 0 281.5 137.5t103.5 351.5q0 156 -80 246t-231 90q-170 0 -276.5 -138.5t-106.5 -350.5
q0 -157 78 -246.5t231 -89.5zM373 1255l264 295h154l176 -295h-119l-152 154l-196 -154h-127z" />
    <glyph glyph-name="otilde" unicode="&#xf5;" horiz-adv-x="1206" 
d="M555 -16q-219 0 -348 133.5t-129 341.5q0 132 44 249t119.5 200t181 131t224.5 48q220 0 349.5 -130.5t129.5 -340.5q0 -181 -72 -325t-203 -225.5t-296 -81.5zM563 123q178 0 281.5 137.5t103.5 351.5q0 156 -80 246t-231 90q-170 0 -276.5 -138.5t-106.5 -350.5
q0 -157 78 -246.5t231 -89.5zM811 1268q-41 0 -85 22t-81 44t-61 22q-30 0 -57.5 -25.5t-37.5 -66.5h-122q22 112 80.5 174.5t138.5 62.5q40 0 84 -22t80.5 -44t60.5 -22q30 0 56 25t36 67h123q-22 -112 -79 -174.5t-136 -62.5z" />
    <glyph glyph-name="odieresis" unicode="&#xf6;" horiz-adv-x="1206" 
d="M555 -16q-219 0 -348 133.5t-129 341.5q0 132 44 249t119.5 200t181 131t224.5 48q220 0 349.5 -130.5t129.5 -340.5q0 -181 -72 -325t-203 -225.5t-296 -81.5zM563 123q178 0 281.5 137.5t103.5 351.5q0 156 -80 246t-231 90q-170 0 -276.5 -138.5t-106.5 -350.5
q0 -157 78 -246.5t231 -89.5zM504 1298q-44 0 -76.5 31.5t-32.5 75.5t33.5 77.5t77.5 33.5t75 -31.5t31 -75.5q0 -45 -32 -78t-76 -33zM889 1298q-44 0 -76.5 31.5t-32.5 75.5t33.5 77.5t77.5 33.5t75 -31.5t31 -75.5q0 -45 -32 -78t-76 -33z" />
    <glyph glyph-name="divide" unicode="&#xf7;" horiz-adv-x="1062" 
d="M86 629l23 143h915l-23 -143h-915zM506 182q-54 0 -92.5 38t-38.5 93t38.5 93t92.5 38t92.5 -38t38.5 -93t-38.5 -93t-92.5 -38zM604 956q-54 0 -92.5 38t-38.5 93t38.5 93.5t92.5 38.5t92.5 -38.5t38.5 -93.5t-38.5 -93t-92.5 -38z" />
    <glyph glyph-name="oslash" unicode="&#xf8;" horiz-adv-x="1206" 
d="M104 -76l-81 78l147 158q-92 125 -92 299q0 132 44 249t119.5 200t181 131t224.5 48q179 0 305 -96l138 148l84 -78l-142 -150q94 -120 94 -295q0 -181 -72 -325t-203 -225.5t-296 -81.5q-179 0 -305 96zM563 123q178 0 281.5 137.5t103.5 351.5q0 104 -33 174l-563 -600
q75 -63 211 -63zM254 459q0 -109 31 -178l563 600q-76 67 -211 67q-170 0 -276.5 -138.5t-106.5 -350.5z" />
    <glyph glyph-name="ugrave" unicode="&#xf9;" horiz-adv-x="1204" 
d="M1116 1071l-119 -752q-28 -179 -22 -319h-162q-6 96 10 213q-62 -105 -155.5 -168t-216.5 -63q-175 0 -259 111.5t-49 336.5l103 641h170l-109 -680q-20 -127 25.5 -195.5t154.5 -68.5q137 0 237 86.5t124 235.5l98 622h170zM653 1255l-180 301h209l96 -301h-125z" />
    <glyph glyph-name="uacute" unicode="&#xfa;" horiz-adv-x="1204" 
d="M1116 1071l-119 -752q-28 -179 -22 -319h-162q-6 96 10 213q-62 -105 -155.5 -168t-216.5 -63q-175 0 -259 111.5t-49 336.5l103 641h170l-109 -680q-20 -127 25.5 -195.5t154.5 -68.5q137 0 237 86.5t124 235.5l98 622h170zM614 1255l162 301h221l-247 -301h-136z" />
    <glyph glyph-name="ucircumflex" unicode="&#xfb;" horiz-adv-x="1204" 
d="M1116 1071l-119 -752q-28 -179 -22 -319h-162q-6 96 10 213q-62 -105 -155.5 -168t-216.5 -63q-175 0 -259 111.5t-49 336.5l103 641h170l-109 -680q-20 -127 25.5 -195.5t154.5 -68.5q137 0 237 86.5t124 235.5l98 622h170zM397 1255l265 295h153l176 -295h-119
l-151 154l-197 -154h-127z" />
    <glyph glyph-name="udieresis" unicode="&#xfc;" horiz-adv-x="1204" 
d="M1116 1071l-119 -752q-28 -179 -22 -319h-162q-6 96 10 213q-62 -105 -155.5 -168t-216.5 -63q-175 0 -259 111.5t-49 336.5l103 641h170l-109 -680q-20 -127 25.5 -195.5t154.5 -68.5q137 0 237 86.5t124 235.5l98 622h170zM524 1298q-44 0 -76 31.5t-32 75.5t33 77.5
t77 33.5t75.5 -31.5t31.5 -75.5t-32.5 -77.5t-76.5 -33.5zM909 1298q-44 0 -76 31.5t-32 75.5t33 77.5t77 33.5t75.5 -31.5t31.5 -75.5t-32.5 -77.5t-76.5 -33.5z" />
    <glyph glyph-name="yacute" unicode="&#xfd;" horiz-adv-x="1034" 
d="M90 -373l287 494l-254 950h174l192 -768l408 768h182l-809 -1444h-180zM539 1255l161 301h222l-248 -301h-135z" />
    <glyph glyph-name="thorn" unicode="&#xfe;" horiz-adv-x="1292" 
d="M27 -373l309 1956h170l-111 -700q55 91 157 149t218 58q190 0 310 -129.5t120 -342.5q0 -103 -23 -198t-68.5 -174.5t-109 -138.5t-149 -92t-184.5 -33q-78 0 -143 19t-110 52t-75 69.5t-49 78.5l-92 -574h-170zM655 121q114 0 197.5 64t125.5 173t42 250
q0 163 -75.5 252.5t-207.5 89.5q-178 0 -294.5 -135t-116.5 -360q0 -155 88.5 -244.5t240.5 -89.5z" />
    <glyph glyph-name="ydieresis" unicode="&#xff;" horiz-adv-x="1034" 
d="M90 -373l287 494l-254 950h174l192 -768l408 768h182l-809 -1444h-180zM457 1298q-44 0 -76.5 31.5t-32.5 75.5t33.5 77.5t77.5 33.5t75 -31.5t31 -75.5q0 -45 -32 -78t-76 -33zM842 1298q-44 0 -76.5 31.5t-32.5 75.5t33.5 77.5t77.5 33.5t75 -31.5t31 -75.5
q0 -45 -32 -78t-76 -33z" />
    <glyph glyph-name="Amacron" unicode="&#x100;" horiz-adv-x="1331" 
d="M1024 0l-76 422h-604l-209 -422h-172l735 1464h234l264 -1464h-172zM786 1317l-372 -754h508zM559 1610l21 131h544l-20 -131h-545z" />
    <glyph glyph-name="amacron" unicode="&#x101;" horiz-adv-x="1101" 
d="M403 -16q-162 0 -254 82.5t-92 220.5q0 96 41 164.5t115.5 106t163.5 54.5t201 17h206l13 78q21 125 -26.5 183t-174.5 58q-214 0 -256 -192h-170q18 92 63.5 159.5t107.5 104t127 53.5t134 17q93 0 164.5 -22t123 -68t71.5 -124.5t4 -183.5l-60 -373q-32 -193 -18 -319
h-160q-9 87 -2 170q-56 -91 -140 -138.5t-182 -47.5zM426 117q125 0 211.5 69.5t107.5 204.5l19 117h-182q-185 0 -271 -50.5t-86 -170.5q0 -75 51.5 -122.5t149.5 -47.5zM381 1327l20 131h537l-20 -131h-537z" />
    <glyph glyph-name="Abreve" unicode="&#x102;" horiz-adv-x="1331" 
d="M1024 0l-76 422h-604l-209 -422h-172l735 1464h234l264 -1464h-172zM786 1317l-372 -754h508zM831 1571q-115 0 -190.5 75t-75.5 195h135q15 -131 134 -131q125 0 149 131h131q-9 -118 -91 -194t-192 -76z" />
    <glyph glyph-name="abreve" unicode="&#x103;" horiz-adv-x="1101" 
d="M403 -16q-162 0 -254 82.5t-92 220.5q0 96 41 164.5t115.5 106t163.5 54.5t201 17h206l13 78q21 125 -26.5 183t-174.5 58q-214 0 -256 -192h-170q18 92 63.5 159.5t107.5 104t127 53.5t134 17q93 0 164.5 -22t123 -68t71.5 -124.5t4 -183.5l-60 -373q-32 -193 -18 -319
h-160q-9 87 -2 170q-56 -91 -140 -138.5t-182 -47.5zM426 117q125 0 211.5 69.5t107.5 204.5l19 117h-182q-185 0 -271 -50.5t-86 -170.5q0 -75 51.5 -122.5t149.5 -47.5zM645 1268q-115 0 -190.5 75t-75.5 195h135q15 -131 133 -131q126 0 150 131h131q-9 -118 -91 -194
t-192 -76z" />
    <glyph glyph-name="Aogonek" unicode="&#x104;" horiz-adv-x="1331" 
d="M856 -207q0 119 168 203l-76 426h-604l-209 -422h-172l735 1464h234l264 -1464q-3 -2 -25.5 -15t-30 -17.5t-28 -18t-29 -22t-23 -23.5t-21 -27.5t-12 -29t-5.5 -33.5q0 -64 76 -64q47 0 98 21l-18 -121q-62 -23 -119 -23q-89 0 -146.5 41t-56.5 125zM786 1317l-372 -754
h508z" />
    <glyph glyph-name="aogonek" unicode="&#x105;" horiz-adv-x="1101" 
d="M758 -373q-89 0 -146.5 41t-56.5 125q0 119 172 207q-9 87 -2 170q-56 -91 -140 -138.5t-182 -47.5q-162 0 -254 82.5t-92 220.5q0 96 41 164.5t115.5 106t163.5 54.5t201 17h206l13 78q21 125 -26.5 183t-174.5 58q-214 0 -256 -192h-170q18 92 63.5 159.5t107.5 104
t127 53.5t134 17q93 0 164.5 -22t123 -68t71.5 -124.5t4 -183.5l-60 -373q-32 -193 -18 -319q-6 -4 -32 -20.5t-38 -25t-34 -26.5t-33 -33t-20 -36.5t-9 -44.5q0 -64 76 -64q47 0 98 21l-18 -121q-62 -23 -119 -23zM426 117q125 0 211.5 69.5t107.5 204.5l19 117h-182
q-185 0 -271 -50.5t-86 -170.5q0 -75 51.5 -122.5t149.5 -47.5z" />
    <glyph glyph-name="Cacute" unicode="&#x106;" horiz-adv-x="1490" 
d="M791 -18q-301 0 -476.5 174t-175.5 467q0 238 98 435t277 313t404 116q229 0 379 -125t165 -354h-168q-27 169 -120 253.5t-265 84.5q-135 0 -246.5 -56.5t-185 -154t-113.5 -229.5t-40 -283q0 -240 118.5 -369t350.5 -129q172 0 288.5 96.5t169.5 263.5h170
q-58 -232 -228 -367.5t-402 -135.5zM862 1579l139 260h218l-222 -260h-135z" />
    <glyph glyph-name="cacute" unicode="&#x107;" horiz-adv-x="1134" 
d="M580 -16q-237 0 -368.5 133.5t-131.5 353.5q0 144 45.5 262.5t123 194.5t177 117.5t209.5 41.5q121 0 214.5 -39t153 -125t66.5 -212h-162q-14 130 -85.5 182.5t-194.5 52.5q-165 0 -269 -125t-104 -350q0 -170 83.5 -259t246.5 -89q116 0 202 68.5t107 189.5h160
q-33 -187 -162 -292t-311 -105zM582 1255l161 301h222l-248 -301h-135z" />
    <glyph glyph-name="Ccircumflex" unicode="&#x108;" horiz-adv-x="1490" 
d="M791 -18q-301 0 -476.5 174t-175.5 467q0 238 98 435t277 313t404 116q229 0 379 -125t165 -354h-168q-27 169 -120 253.5t-265 84.5q-135 0 -246.5 -56.5t-185 -154t-113.5 -229.5t-40 -283q0 -240 118.5 -369t350.5 -129q172 0 288.5 96.5t169.5 263.5h170
q-58 -232 -228 -367.5t-402 -135.5zM635 1579l254 260h153l187 -260h-119l-158 119l-190 -119h-127z" />
    <glyph glyph-name="ccircumflex" unicode="&#x109;" horiz-adv-x="1134" 
d="M580 -16q-237 0 -368.5 133.5t-131.5 353.5q0 144 45.5 262.5t123 194.5t177 117.5t209.5 41.5q121 0 214.5 -39t153 -125t66.5 -212h-162q-14 130 -85.5 182.5t-194.5 52.5q-165 0 -269 -125t-104 -350q0 -170 83.5 -259t246.5 -89q116 0 202 68.5t107 189.5h160
q-33 -187 -162 -292t-311 -105zM352 1255l264 295h154l176 -295h-119l-151 154l-197 -154h-127z" />
    <glyph glyph-name="Cdotaccent" unicode="&#x10a;" horiz-adv-x="1490" 
d="M791 -18q-301 0 -476.5 174t-175.5 467q0 238 98 435t277 313t404 116q229 0 379 -125t165 -354h-168q-27 169 -120 253.5t-265 84.5q-135 0 -246.5 -56.5t-185 -154t-113.5 -229.5t-40 -283q0 -240 118.5 -369t350.5 -129q172 0 288.5 96.5t169.5 263.5h170
q-58 -232 -228 -367.5t-402 -135.5zM948 1612q-46 0 -79 32t-33 78t34 80.5t80 34.5t78.5 -32.5t32.5 -78.5t-33.5 -80t-79.5 -34z" />
    <glyph glyph-name="cdotaccent" unicode="&#x10b;" horiz-adv-x="1134" 
d="M580 -16q-237 0 -368.5 133.5t-131.5 353.5q0 144 45.5 262.5t123 194.5t177 117.5t209.5 41.5q121 0 214.5 -39t153 -125t66.5 -212h-162q-14 130 -85.5 182.5t-194.5 52.5q-165 0 -269 -125t-104 -350q0 -170 83.5 -259t246.5 -89q116 0 202 68.5t107 189.5h160
q-33 -187 -162 -292t-311 -105zM696 1294q-46 0 -79 32.5t-33 78.5t34 80.5t80 34.5t78.5 -32.5t32.5 -78.5t-33.5 -80.5t-79.5 -34.5z" />
    <glyph glyph-name="Ccaron" unicode="&#x10c;" horiz-adv-x="1490" 
d="M791 -18q-301 0 -476.5 174t-175.5 467q0 238 98 435t277 313t404 116q229 0 379 -125t165 -354h-168q-27 169 -120 253.5t-265 84.5q-135 0 -246.5 -56.5t-185 -154t-113.5 -229.5t-40 -283q0 -240 118.5 -369t350.5 -129q172 0 288.5 96.5t169.5 263.5h170
q-58 -232 -228 -367.5t-402 -135.5zM1251 1839l-254 -260h-153l-187 260h119l158 -119l190 119h127z" />
    <glyph glyph-name="ccaron" unicode="&#x10d;" horiz-adv-x="1134" 
d="M580 -16q-237 0 -368.5 133.5t-131.5 353.5q0 144 45.5 262.5t123 194.5t177 117.5t209.5 41.5q121 0 214.5 -39t153 -125t66.5 -212h-162q-14 130 -85.5 182.5t-194.5 52.5q-165 0 -269 -125t-104 -350q0 -170 83.5 -259t246.5 -89q116 0 202 68.5t107 189.5h160
q-33 -187 -162 -292t-311 -105zM991 1550l-264 -295h-154l-176 295h119l152 -153l196 153h127z" />
    <glyph glyph-name="Dcaron" unicode="&#x10e;" horiz-adv-x="1429" 
d="M98 0l232 1464h356q142 0 256 -30.5t193 -85.5t132 -133.5t77.5 -172t25.5 -202.5q0 -140 -34.5 -266t-105 -231t-170 -181.5t-236.5 -119t-298 -42.5h-428zM299 145h221q315 0 491.5 184t176.5 509q0 86 -17.5 157.5t-56 132.5t-97 103.5t-145 66t-194.5 23.5h-193z
M1106 1839l-254 -260h-154l-186 260h119l157 -119l191 119h127z" />
    <glyph glyph-name="dcaron" unicode="&#x10f;" horiz-adv-x="1273" 
d="M535 -18q-201 0 -327 129t-126 344q0 172 66 315.5t194 231.5t295 88q140 0 227 -61t131 -152l111 706h170l-199 -1264q-28 -179 -22 -319h-162q-6 89 8 195q-59 -98 -154.5 -155.5t-211.5 -57.5zM555 123q178 0 289.5 129t111.5 369q0 150 -87 238.5t-226 88.5
q-177 0 -279 -135t-102 -350q0 -160 77.5 -250t215.5 -90zM1321 1225l78 358h186l-143 -358h-121z" />
    <glyph glyph-name="Dcroat" unicode="&#x110;" horiz-adv-x="1470" 
d="M88 666l23 137h155l105 661h356q142 0 256 -30.5t193 -85.5t132 -133.5t77.5 -172t25.5 -202.5q0 -140 -34.5 -266t-105 -231t-170 -181.5t-236.5 -119t-298 -42.5h-428l105 666h-156zM340 145h221q315 0 491.5 184t176.5 509q0 86 -17.5 157.5t-56 132.5t-97 103.5
t-145 66t-194.5 23.5h-193l-82 -518h424l-22 -137h-424z" />
    <glyph glyph-name="dcroat" unicode="&#x111;" horiz-adv-x="1273" 
d="M690 1260l21 124h364l31 199h170l-33 -199h156l-21 -124h-153l-148 -941q-28 -179 -22 -319h-162q-6 89 8 195q-59 -98 -154.5 -155.5t-211.5 -57.5q-201 0 -327 129t-126 344q0 172 66 315.5t194 231.5t295 88q140 0 227 -61t131 -152l60 383h-365zM643 948
q-177 0 -279 -135t-102 -350q0 -164 76 -252t217 -88q178 0 289.5 130t111.5 374q0 153 -84.5 237t-228.5 84z" />
    <glyph glyph-name="Emacron" unicode="&#x112;" horiz-adv-x="1171" 
d="M98 0l232 1464h846l-25 -145h-668l-77 -498h544l-22 -145h-545l-84 -531h713l-23 -145h-891zM496 1610l20 131h545l-21 -131h-544z" />
    <glyph glyph-name="emacron" unicode="&#x113;" horiz-adv-x="1132" 
d="M252 432q0 -309 295 -309q113 0 188.5 47t106.5 139h170q-48 -160 -175 -243.5t-296 -83.5q-215 0 -339 126.5t-124 331.5q0 186 74 334.5t201.5 230.5t283.5 82q227 0 342 -140t74 -406l-6 -39h-793q-2 -23 -2 -70zM627 948q-123 0 -219 -76.5t-134 -232.5h621
q12 160 -54 234.5t-214 74.5zM406 1327l20 131h537l-21 -131h-536z" />
    <glyph glyph-name="Ebreve" unicode="&#x114;" horiz-adv-x="1171" 
d="M98 0l232 1464h846l-25 -145h-668l-77 -498h544l-22 -145h-545l-84 -531h713l-23 -145h-891zM768 1571q-115 0 -190.5 75t-75.5 195h135q15 -131 133 -131q126 0 150 131h131q-9 -118 -91 -194t-192 -76z" />
    <glyph glyph-name="ebreve" unicode="&#x115;" horiz-adv-x="1132" 
d="M252 432q0 -309 295 -309q113 0 188.5 47t106.5 139h170q-48 -160 -175 -243.5t-296 -83.5q-215 0 -339 126.5t-124 331.5q0 186 74 334.5t201.5 230.5t283.5 82q227 0 342 -140t74 -406l-6 -39h-793q-2 -23 -2 -70zM627 948q-123 0 -219 -76.5t-134 -232.5h621
q12 160 -54 234.5t-214 74.5zM670 1268q-115 0 -191 75t-76 195h136q15 -131 133 -131q125 0 149 131h131q-9 -118 -91 -194t-191 -76z" />
    <glyph glyph-name="Edotaccent" unicode="&#x116;" horiz-adv-x="1171" 
d="M98 0l232 1464h846l-25 -145h-668l-77 -498h544l-22 -145h-545l-84 -531h713l-23 -145h-891zM776 1612q-46 0 -79 32t-33 78t34 80.5t80 34.5t78.5 -32.5t32.5 -78.5t-33.5 -80t-79.5 -34z" />
    <glyph glyph-name="edotaccent" unicode="&#x117;" horiz-adv-x="1132" 
d="M252 432q0 -309 295 -309q113 0 188.5 47t106.5 139h170q-48 -160 -175 -243.5t-296 -83.5q-215 0 -339 126.5t-124 331.5q0 186 74 334.5t201.5 230.5t283.5 82q227 0 342 -140t74 -406l-6 -39h-793q-2 -23 -2 -70zM627 948q-123 0 -219 -76.5t-134 -232.5h621
q12 160 -54 234.5t-214 74.5zM690 1294q-46 0 -79 32.5t-33 78.5t34 80.5t80 34.5t78.5 -32.5t32.5 -78.5t-33.5 -80.5t-79.5 -34.5z" />
    <glyph glyph-name="Eogonek" unicode="&#x118;" horiz-adv-x="1171" 
d="M98 0l232 1464h846l-25 -145h-668l-77 -498h544l-22 -145h-545l-84 -531h713l-23 -145h-63q-5 -3 -28.5 -17t-33.5 -21t-31 -22t-31.5 -27t-23.5 -29t-18.5 -35.5t-5.5 -38.5q0 -60 75 -60q48 0 99 21l-19 -121q-62 -23 -118 -23q-88 0 -146 39.5t-57 116.5
q0 129 164 217h-654z" />
    <glyph glyph-name="eogonek" unicode="&#x119;" horiz-adv-x="1132" 
d="M647 -373q-89 0 -146.5 41t-56.5 125q0 104 158 193q-40 -4 -61 -4q-215 0 -339 126.5t-124 331.5q0 186 74 334.5t201.5 230.5t283.5 82q227 0 342 -140t74 -406l-6 -39h-793q-2 -23 -2 -70q0 -309 295 -309q113 0 188.5 47t106.5 139h170q-36 -117 -115 -198
q-29 -30 -84 -71.5t-96.5 -71.5t-74 -72t-32.5 -82q0 -64 76 -64q47 0 98 21l-18 -121q-62 -23 -119 -23zM627 948q-123 0 -219 -76.5t-134 -232.5h621q12 160 -54 234.5t-214 74.5z" />
    <glyph glyph-name="Ecaron" unicode="&#x11a;" horiz-adv-x="1171" 
d="M98 0l232 1464h846l-25 -145h-668l-77 -498h544l-22 -145h-545l-84 -531h713l-23 -145h-891zM1075 1839l-254 -260h-153l-187 260h119l158 -119l190 119h127z" />
    <glyph glyph-name="ecaron" unicode="&#x11b;" horiz-adv-x="1132" 
d="M252 432q0 -309 295 -309q113 0 188.5 47t106.5 139h170q-48 -160 -175 -243.5t-296 -83.5q-215 0 -339 126.5t-124 331.5q0 186 74 334.5t201.5 230.5t283.5 82q227 0 342 -140t74 -406l-6 -39h-793q-2 -23 -2 -70zM627 948q-123 0 -219 -76.5t-134 -232.5h621
q12 160 -54 234.5t-214 74.5zM991 1550l-264 -295h-154l-176 295h119l152 -153l196 153h127z" />
    <glyph glyph-name="Gcircumflex" unicode="&#x11c;" horiz-adv-x="1576" 
d="M807 -18q-156 0 -283 50t-210.5 139t-128 209.5t-44.5 262.5q0 169 58 323.5t158.5 268t244 181t305.5 67.5q113 0 212 -28.5t177.5 -84t127 -145t55.5 -203.5h-176q-10 107 -64.5 179.5t-139.5 106t-196 33.5q-131 0 -240.5 -55t-182.5 -149.5t-113.5 -222t-40.5 -271.5
q0 -241 124.5 -379.5t360.5 -138.5q210 0 332.5 126.5t156.5 340.5h-434l25 147h604q-65 -757 -688 -757zM618 1579l254 260h154l186 -260h-118l-158 119l-191 -119h-127z" />
    <glyph glyph-name="gcircumflex" unicode="&#x11d;" horiz-adv-x="1275" 
d="M557 176q167 0 283 126t116 335q0 145 -88.5 228t-228.5 83q-166 0 -267.5 -129.5t-101.5 -314.5q0 -149 74.5 -238.5t212.5 -89.5zM1196 1071l-160 -1018q-35 -219 -171 -330.5t-361 -111.5q-100 0 -180 19.5t-132 51t-88 75.5t-53.5 88.5t-23.5 93.5h172
q16 -86 90 -135.5t211 -49.5q167 0 253 78t113 238l25 149q-125 -180 -352 -180q-197 0 -322 127.5t-125 329.5q0 119 41 228t111.5 190t172 128.5t216.5 47.5q140 0 229.5 -61.5t132.5 -151.5l31 194h170zM401 1255l265 295h153l176 -295h-118l-152 154l-197 -154h-127z
" />
    <glyph glyph-name="Gbreve" unicode="&#x11e;" horiz-adv-x="1576" 
d="M807 -18q-156 0 -283 50t-210.5 139t-128 209.5t-44.5 262.5q0 169 58 323.5t158.5 268t244 181t305.5 67.5q113 0 212 -28.5t177.5 -84t127 -145t55.5 -203.5h-176q-10 107 -64.5 179.5t-139.5 106t-196 33.5q-131 0 -240.5 -55t-182.5 -149.5t-113.5 -222t-40.5 -271.5
q0 -241 124.5 -379.5t360.5 -138.5q210 0 332.5 126.5t156.5 340.5h-434l25 147h604q-65 -757 -688 -757zM932 1571q-115 0 -190.5 75t-75.5 195h135q15 -131 133 -131q125 0 149 131h131q-9 -118 -91 -194t-191 -76z" />
    <glyph glyph-name="gbreve" unicode="&#x11f;" horiz-adv-x="1275" 
d="M557 176q167 0 283 126t116 335q0 145 -88.5 228t-228.5 83q-166 0 -267.5 -129.5t-101.5 -314.5q0 -149 74.5 -238.5t212.5 -89.5zM1196 1071l-160 -1018q-35 -219 -171 -330.5t-361 -111.5q-100 0 -180 19.5t-132 51t-88 75.5t-53.5 88.5t-23.5 93.5h172
q16 -86 90 -135.5t211 -49.5q167 0 253 78t113 238l25 149q-125 -180 -352 -180q-197 0 -322 127.5t-125 329.5q0 119 41 228t111.5 190t172 128.5t216.5 47.5q140 0 229.5 -61.5t132.5 -151.5l31 194h170zM725 1268q-115 0 -190.5 75t-75.5 195h135q15 -131 133 -131
q126 0 150 131h131q-9 -118 -91 -194t-192 -76z" />
    <glyph glyph-name="Gdotaccent" unicode="&#x120;" horiz-adv-x="1576" 
d="M807 -18q-156 0 -283 50t-210.5 139t-128 209.5t-44.5 262.5q0 169 58 323.5t158.5 268t244 181t305.5 67.5q113 0 212 -28.5t177.5 -84t127 -145t55.5 -203.5h-176q-10 107 -64.5 179.5t-139.5 106t-196 33.5q-131 0 -240.5 -55t-182.5 -149.5t-113.5 -222t-40.5 -271.5
q0 -241 124.5 -379.5t360.5 -138.5q210 0 332.5 126.5t156.5 340.5h-434l25 147h604q-65 -757 -688 -757zM936 1612q-46 0 -79.5 32.5t-33.5 77.5q0 46 34.5 80.5t80.5 34.5t78.5 -32.5t32.5 -78.5t-33.5 -80t-79.5 -34z" />
    <glyph glyph-name="gdotaccent" unicode="&#x121;" horiz-adv-x="1275" 
d="M557 176q167 0 283 126t116 335q0 145 -88.5 228t-228.5 83q-166 0 -267.5 -129.5t-101.5 -314.5q0 -149 74.5 -238.5t212.5 -89.5zM1196 1071l-160 -1018q-35 -219 -171 -330.5t-361 -111.5q-100 0 -180 19.5t-132 51t-88 75.5t-53.5 88.5t-23.5 93.5h172
q16 -86 90 -135.5t211 -49.5q167 0 253 78t113 238l25 149q-125 -180 -352 -180q-197 0 -322 127.5t-125 329.5q0 119 41 228t111.5 190t172 128.5t216.5 47.5q140 0 229.5 -61.5t132.5 -151.5l31 194h170zM748 1294q-46 0 -79.5 32.5t-33.5 78.5t34.5 80.5t80.5 34.5
t78 -32.5t32 -78.5t-33.5 -80.5t-78.5 -34.5z" />
    <glyph glyph-name="Gcommaaccent" unicode="&#x122;" horiz-adv-x="1576" 
d="M807 -18q-156 0 -283 50t-210.5 139t-128 209.5t-44.5 262.5q0 169 58 323.5t158.5 268t244 181t305.5 67.5q113 0 212 -28.5t177.5 -84t127 -145t55.5 -203.5h-176q-10 107 -64.5 179.5t-139.5 106t-196 33.5q-131 0 -240.5 -55t-182.5 -149.5t-113.5 -222t-40.5 -271.5
q0 -241 124.5 -379.5t360.5 -138.5q210 0 332.5 126.5t156.5 340.5h-434l25 147h604q-65 -757 -688 -757zM575 -451l-100 54l148 321l159 -49z" />
    <glyph glyph-name="gcommaaccent" unicode="&#x123;" horiz-adv-x="1275" 
d="M557 176q167 0 283 126t116 335q0 145 -88.5 228t-228.5 83q-166 0 -267.5 -129.5t-101.5 -314.5q0 -149 74.5 -238.5t212.5 -89.5zM1196 1071l-160 -1018q-35 -219 -171 -330.5t-361 -111.5q-100 0 -180 19.5t-132 51t-88 75.5t-53.5 88.5t-23.5 93.5h172
q16 -86 90 -135.5t211 -49.5q167 0 253 78t113 238l25 149q-125 -180 -352 -180q-197 0 -322 127.5t-125 329.5q0 119 41 228t111.5 190t172 128.5t216.5 47.5q140 0 229.5 -61.5t132.5 -151.5l31 194h170zM793 1608l100 -54l-148 -321l-159 49z" />
    <glyph glyph-name="Hcircumflex" unicode="&#x124;" horiz-adv-x="1495" 
d="M98 0l232 1464h178l-107 -663h770l107 663h178l-231 -1464h-178l102 651h-770l-103 -651h-178zM606 1579l254 260h154l186 -260h-119l-157 119l-191 -119h-127z" />
    <glyph glyph-name="hcircumflex" unicode="&#x125;" horiz-adv-x="1212" 
d="M86 0l250 1583h170l-111 -702q53 88 146.5 148.5t214.5 60.5q86 0 150 -24.5t108.5 -78.5t57 -139.5t-4.5 -206.5l-102 -641h-170l108 680q43 264 -184 264q-137 0 -239 -86t-126 -235l-98 -623h-170zM479 1681l254 261h154l186 -261h-119l-157 119l-191 -119h-127z" />
    <glyph glyph-name="Hbar" unicode="&#x126;" horiz-adv-x="1495" 
d="M115 1010l20 137h144l51 317h178l-51 -317h770l51 317h178l-51 -317h143l-20 -137h-144l-159 -1010h-178l102 651h-770l-103 -651h-178l160 1010h-143zM401 801h770l33 209h-770z" />
    <glyph glyph-name="hbar" unicode="&#x127;" horiz-adv-x="1212" 
d="M131 1260l21 124h151l33 199h170l-33 -199h367l-21 -124h-364l-60 -379q53 88 146.5 148.5t214.5 60.5q86 0 150 -24.5t108.5 -78.5t57 -139.5t-4.5 -206.5l-102 -641h-170l108 680q23 140 -22.5 202t-161.5 62q-137 0 -239 -86t-126 -235l-98 -623h-170l199 1260h-154z
" />
    <glyph glyph-name="Itilde" unicode="&#x128;" horiz-adv-x="571" 
d="M109 0l231 1464h178l-231 -1464h-178zM584 1585q-41 0 -85.5 22t-81.5 44t-61 22q-30 0 -57 -25t-37 -67h-123q22 112 80.5 175t138.5 63q40 0 84 -22t81 -44t61 -22q30 0 56 25t36 67h123q-22 -112 -79.5 -175t-135.5 -63z" />
    <glyph glyph-name="itilde" unicode="&#x129;" horiz-adv-x="522" 
d="M90 0l170 1071h170l-170 -1071h-170zM506 1268q-41 0 -85 22t-81 44t-61 22q-30 0 -57.5 -25.5t-37.5 -66.5h-123q22 111 81 174t139 63q40 0 84 -22t80.5 -44t60.5 -22q30 0 56 25t36 67h123q-22 -112 -79 -174.5t-136 -62.5z" />
    <glyph glyph-name="Imacron" unicode="&#x12a;" horiz-adv-x="571" 
d="M109 0l231 1464h178l-231 -1464h-178zM180 1610l21 131h544l-20 -131h-545z" />
    <glyph glyph-name="imacron" unicode="&#x12b;" horiz-adv-x="522" 
d="M186 1327l21 131h397l-20 -131h-398zM90 0l170 1071h170l-170 -1071h-170z" />
    <glyph glyph-name="Ibreve" unicode="&#x12c;" horiz-adv-x="571" 
d="M109 0l231 1464h178l-231 -1464h-178zM453 1571q-115 0 -191 75t-76 195h136q15 -131 133 -131q125 0 149 131h131q-9 -118 -91 -194t-191 -76z" />
    <glyph glyph-name="ibreve" unicode="&#x12d;" horiz-adv-x="522" 
d="M90 0l170 1071h170l-170 -1071h-170zM381 1268q-115 0 -190.5 75t-75.5 195h135q15 -131 133 -131q125 0 149 131h132q-9 -118 -91 -194t-192 -76z" />
    <glyph glyph-name="Iogonek" unicode="&#x12e;" horiz-adv-x="571" 
d="M145 -373q-89 0 -146 41t-56 125q0 117 163 201l234 1470h178l-229 -1452q-37 -23 -60 -39.5t-55 -43.5t-48.5 -56t-16.5 -59q0 -64 75 -64q48 0 99 21l-19 -121q-62 -23 -119 -23z" />
    <glyph glyph-name="iogonek" unicode="&#x12f;" horiz-adv-x="522" 
d="M90 0l170 1071h170l-168 -1059q-3 -2 -24 -15.5t-27 -17.5t-25 -17t-26.5 -20.5t-22.5 -21t-21.5 -24t-15 -24.5t-11.5 -28.5t-3 -29.5q0 -64 72 -64q47 0 98 21l-18 -121q-62 -23 -119 -23q-85 0 -142.5 41.5t-56.5 124.5q0 67 49.5 119.5t120.5 87.5zM393 1294
q-46 0 -79 32.5t-33 78.5t34 80.5t80 34.5t78.5 -32.5t32.5 -78.5t-33.5 -80.5t-79.5 -34.5z" />
    <glyph glyph-name="Idotaccent" unicode="&#x130;" horiz-adv-x="571" 
d="M109 0l231 1464h178l-231 -1464h-178zM461 1612q-46 0 -79.5 32.5t-33.5 77.5q0 46 34.5 80.5t80.5 34.5t78 -32.5t32 -78.5t-33 -80t-79 -34z" />
    <glyph glyph-name="dotlessi" unicode="&#x131;" horiz-adv-x="522" 
d="M90 0l170 1071h170l-170 -1071h-170z" />
    <glyph glyph-name="IJ" unicode="&#x132;" horiz-adv-x="1345" 
d="M23 0l231 1464h178l-231 -1464h-178zM631 -18q-151 0 -236 53l23 143q104 -51 207 -51q111 0 174.5 62t85.5 196l170 1079h178l-174 -1095q-31 -196 -144.5 -291.5t-283.5 -95.5z" />
    <glyph glyph-name="ij" unicode="&#x133;" horiz-adv-x="1044" 
d="M393 1294q-46 0 -79 32.5t-33 78.5t34 80.5t80 34.5t78.5 -32.5t32.5 -78.5t-33.5 -80.5t-79.5 -34.5zM90 0l170 1071h170l-170 -1071h-170zM393 -389l23 141q88 4 129.5 44.5t54.5 119.5l182 1155h170l-184 -1165q-23 -145 -112.5 -220t-262.5 -75zM915 1294
q-46 0 -79 32.5t-33 78.5t34.5 80.5t80.5 34.5t78 -32.5t32 -78.5t-33.5 -80.5t-79.5 -34.5z" />
    <glyph glyph-name="Jcircumflex" unicode="&#x134;" horiz-adv-x="860" 
d="M231 -18q-150 0 -235 53l22 143q104 -51 207 -51q111 0 174.5 62t85.5 196l170 1079h179l-175 -1095q-31 -196 -144.5 -291.5t-283.5 -95.5zM461 1579l254 260h153l187 -260h-119l-158 119l-190 -119h-127z" />
    <glyph glyph-name="jcircumflex" unicode="&#x135;" horiz-adv-x="522" 
d="M-129 -389l23 141q88 4 129.5 44.5t54.5 119.5l182 1155h170l-184 -1165q-23 -145 -112.5 -220t-262.5 -75zM57 1255l265 295h153l176 -295h-119l-151 154l-197 -154h-127z" />
    <glyph glyph-name="Kcommaaccent" unicode="&#x136;" horiz-adv-x="1261" 
d="M98 0l232 1464h178l-111 -696l744 696h207l-764 -706l557 -758h-199l-549 735l-117 -735h-178zM459 -451l-101 54l148 321l160 -49z" />
    <glyph glyph-name="kcommaaccent" unicode="&#x137;" horiz-adv-x="1046" 
d="M86 0l250 1583h170l-156 -985l510 473h211l-541 -491l400 -580h-195l-389 569l-90 -569h-170zM365 -451l-101 54l148 321l159 -49z" />
    <glyph glyph-name="Lacute" unicode="&#x139;" horiz-adv-x="1095" 
d="M98 0l232 1464h178l-209 -1319h670l-23 -145h-848zM360 1579l140 260h217l-221 -260h-136z" />
    <glyph glyph-name="lacute" unicode="&#x13a;" horiz-adv-x="524" 
d="M90 0l250 1583h172l-250 -1583h-172zM367 1681l139 261h217l-221 -261h-135z" />
    <glyph glyph-name="Lcommaaccent" unicode="&#x13b;" horiz-adv-x="1095" 
d="M98 0l232 1464h178l-209 -1319h670l-23 -145h-848zM389 -451l-100 54l147 321l160 -49z" />
    <glyph glyph-name="lcommaaccent" unicode="&#x13c;" horiz-adv-x="524" 
d="M90 0l250 1583h172l-250 -1583h-172zM47 -451l-100 54l147 321l160 -49z" />
    <glyph glyph-name="Lcaron" unicode="&#x13d;" horiz-adv-x="1095" 
d="M786 1143l88 321h195l-162 -321h-121zM98 0l232 1464h178l-209 -1319h670l-23 -145h-848z" />
    <glyph glyph-name="lcaron" unicode="&#x13e;" horiz-adv-x="524" 
d="M90 0l250 1583h172l-250 -1583h-172zM557 1225l78 358h186l-143 -358h-121z" />
    <glyph glyph-name="Ldot" unicode="&#x13f;" horiz-adv-x="1095" 
d="M98 0l232 1464h178l-209 -1319h670l-23 -145h-848zM918 655q-54 0 -93 38t-39 93t37.5 93.5t91.5 38.5q55 0 94.5 -38.5t39.5 -93.5t-38.5 -93t-92.5 -38z" />
    <glyph glyph-name="ldot" unicode="&#x140;" horiz-adv-x="671" 
d="M90 0l250 1583h172l-250 -1583h-172zM629 621q-54 0 -92.5 38t-38.5 93t37.5 93t91.5 38q55 0 94 -38t39 -93t-38.5 -93t-92.5 -38z" />
    <glyph glyph-name="Lslash" unicode="&#x141;" horiz-adv-x="1136" 
d="M80 508l22 145l148 52l121 759h178l-111 -694l432 150l-22 -146l-432 -149l-76 -480h670l-23 -145h-848l88 559z" />
    <glyph glyph-name="lslash" unicode="&#x142;" horiz-adv-x="565" 
d="M55 637l25 149l168 86l112 711h172l-98 -614l180 92l-26 -150l-176 -92l-129 -819h-172l114 723z" />
    <glyph glyph-name="Nacute" unicode="&#x143;" horiz-adv-x="1482" 
d="M98 0l232 1464h227l524 -1210l193 1210h170l-232 -1464h-200l-545 1255l-199 -1255h-170zM848 1579l139 260h217l-221 -260h-135z" />
    <glyph glyph-name="nacute" unicode="&#x144;" horiz-adv-x="1212" 
d="M86 0l119 752q24 153 28 319h160q0 -105 -12 -213q60 104 155.5 168t219.5 64q86 0 150 -24.5t108.5 -78.5t57 -139.5t-4.5 -206.5l-102 -641h-170l108 680q43 264 -184 264q-137 0 -239 -86t-126 -235l-98 -623h-170zM621 1255l161 301h222l-248 -301h-135z" />
    <glyph glyph-name="Ncommaaccent" unicode="&#x145;" horiz-adv-x="1482" 
d="M98 0l232 1464h227l524 -1210l193 1210h170l-232 -1464h-200l-545 1255l-199 -1255h-170zM537 -451l-101 54l148 321l159 -49z" />
    <glyph glyph-name="ncommaaccent" unicode="&#x146;" horiz-adv-x="1212" 
d="M86 0l119 752q24 153 28 319h160q0 -105 -12 -213q60 104 155.5 168t219.5 64q86 0 150 -24.5t108.5 -78.5t57 -139.5t-4.5 -206.5l-102 -641h-170l108 680q43 264 -184 264q-137 0 -239 -86t-126 -235l-98 -623h-170zM379 -451l-100 54l147 321l160 -49z" />
    <glyph glyph-name="Ncaron" unicode="&#x147;" horiz-adv-x="1482" 
d="M98 0l232 1464h227l524 -1210l193 1210h170l-232 -1464h-200l-545 1255l-199 -1255h-170zM1241 1839l-254 -260h-153l-187 260h119l158 -119l190 119h127z" />
    <glyph glyph-name="ncaron" unicode="&#x148;" horiz-adv-x="1212" 
d="M86 0l119 752q24 153 28 319h160q0 -105 -12 -213q60 104 155.5 168t219.5 64q86 0 150 -24.5t108.5 -78.5t57 -139.5t-4.5 -206.5l-102 -641h-170l108 680q43 264 -184 264q-137 0 -239 -86t-126 -235l-98 -623h-170zM1034 1550l-264 -295h-154l-176 295h119l152 -153
l196 153h127z" />
    <glyph glyph-name="napostrophe" unicode="&#x149;" horiz-adv-x="1224" 
d="M98 0l119 752q25 161 29 319h160q0 -96 -13 -213q60 104 155.5 168t219.5 64q86 0 150 -24.5t108.5 -78.5t57 -139.5t-4.5 -206.5l-102 -641h-170l108 680q43 264 -184 264q-137 0 -238.5 -86t-125.5 -235l-99 -623h-170zM84 999l-100 54l211 434l157 -74z" />
    <glyph glyph-name="Eng" unicode="&#x14a;" horiz-adv-x="1482" 
d="M766 -250q110 0 175 55t91 177l-565 1273l-199 -1255h-170l232 1464h233l524 -1173l187 1173h170l-230 -1444q-35 -220 -145.5 -317.5t-284.5 -97.5q-141 0 -227 49l23 143q45 -24 85.5 -35.5t100.5 -11.5z" />
    <glyph glyph-name="eng" unicode="&#x14b;" horiz-adv-x="1212" 
d="M86 0l119 752q24 153 28 319h160q0 -105 -12 -213q60 104 155.5 168t219.5 64q86 0 150 -24.5t108.5 -78.5t57 -139.5t-4.5 -206.5l-117 -735q-23 -143 -109 -218t-266 -79l23 143q89 6 130.5 45.5t53.5 122.5l121 760q43 264 -184 264q-137 0 -239 -86t-126 -235
l-98 -623h-170z" />
    <glyph glyph-name="Omacron" unicode="&#x14c;" horiz-adv-x="1660" 
d="M1583 823q0 -178 -60.5 -335t-164 -267.5t-246.5 -174.5t-303 -64q-199 0 -352.5 85.5t-235.5 234.5t-82 337q0 230 103.5 424t284.5 307t399 113q154 0 280 -52.5t207.5 -143.5t125.5 -210t44 -254zM1399 823q0 108 -31.5 201t-90.5 163.5t-150 111t-203 40.5
q-179 0 -317.5 -96.5t-210.5 -254.5t-72 -349q0 -236 135 -374t352 -138q171 0 305.5 90.5t208.5 249t74 356.5zM717 1610l20 131h545l-20 -131h-545z" />
    <glyph glyph-name="omacron" unicode="&#x14d;" horiz-adv-x="1206" 
d="M555 -16q-219 0 -348 133.5t-129 341.5q0 132 44 249t119.5 200t181 131t224.5 48q220 0 349.5 -130.5t129.5 -340.5q0 -181 -72 -325t-203 -225.5t-296 -81.5zM563 123q178 0 281.5 137.5t103.5 351.5q0 156 -80 246t-231 90q-170 0 -276.5 -138.5t-106.5 -350.5
q0 -157 78 -246.5t231 -89.5zM432 1327l21 131h536l-20 -131h-537z" />
    <glyph glyph-name="Obreve" unicode="&#x14e;" horiz-adv-x="1660" 
d="M1583 823q0 -178 -60.5 -335t-164 -267.5t-246.5 -174.5t-303 -64q-199 0 -352.5 85.5t-235.5 234.5t-82 337q0 230 103.5 424t284.5 307t399 113q154 0 280 -52.5t207.5 -143.5t125.5 -210t44 -254zM1399 823q0 108 -31.5 201t-90.5 163.5t-150 111t-203 40.5
q-179 0 -317.5 -96.5t-210.5 -254.5t-72 -349q0 -236 135 -374t352 -138q171 0 305.5 90.5t208.5 249t74 356.5zM989 1571q-115 0 -190.5 75t-75.5 195h135q15 -131 133 -131q126 0 150 131h131q-9 -118 -91 -194t-192 -76z" />
    <glyph glyph-name="obreve" unicode="&#x14f;" horiz-adv-x="1206" 
d="M555 -16q-219 0 -348 133.5t-129 341.5q0 132 44 249t119.5 200t181 131t224.5 48q220 0 349.5 -130.5t129.5 -340.5q0 -181 -72 -325t-203 -225.5t-296 -81.5zM563 123q178 0 281.5 137.5t103.5 351.5q0 156 -80 246t-231 90q-170 0 -276.5 -138.5t-106.5 -350.5
q0 -157 78 -246.5t231 -89.5zM696 1268q-115 0 -190.5 75t-75.5 195h135q15 -131 133 -131q126 0 150 131h131q-9 -118 -91 -194t-192 -76z" />
    <glyph glyph-name="Ohungarumlaut" unicode="&#x150;" horiz-adv-x="1660" 
d="M1583 823q0 -178 -60.5 -335t-164 -267.5t-246.5 -174.5t-303 -64q-199 0 -352.5 85.5t-235.5 234.5t-82 337q0 230 103.5 424t284.5 307t399 113q154 0 280 -52.5t207.5 -143.5t125.5 -210t44 -254zM1399 823q0 108 -31.5 201t-90.5 163.5t-150 111t-203 40.5
q-179 0 -317.5 -96.5t-210.5 -254.5t-72 -349q0 -236 135 -374t352 -138q171 0 305.5 90.5t208.5 249t74 356.5zM741 1579l95 260h196l-166 -260h-125zM1057 1579l94 260h197l-166 -260h-125z" />
    <glyph glyph-name="ohungarumlaut" unicode="&#x151;" horiz-adv-x="1206" 
d="M555 -16q-219 0 -348 133.5t-129 341.5q0 132 44 249t119.5 200t181 131t224.5 48q220 0 349.5 -130.5t129.5 -340.5q0 -181 -72 -325t-203 -225.5t-296 -81.5zM563 123q178 0 281.5 137.5t103.5 351.5q0 156 -80 246t-231 90q-170 0 -276.5 -138.5t-106.5 -350.5
q0 -157 78 -246.5t231 -89.5zM467 1255l108 301h197l-180 -301h-125zM782 1255l109 301h196l-180 -301h-125z" />
    <glyph glyph-name="OE" unicode="&#x152;" horiz-adv-x="1966" 
d="M1796 0h-965q-177 0 -311 47t-216 132.5t-123 198t-42 249.5q0 140 35 265.5t106 230t171 180.5t237.5 118.5t298.5 42.5h995l-24 -145h-635l-78 -498h512l-22 -145h-512l-84 -531h680zM1145 1319h-152q-316 0 -493.5 -183t-177.5 -507q0 -107 29.5 -194t90.5 -153
t162 -102.5t236 -36.5h121z" />
    <glyph glyph-name="oe" unicode="&#x153;" horiz-adv-x="1994" 
d="M1114 432q0 -309 295 -309q113 0 188.5 47t106.5 139h170q-48 -160 -175 -243.5t-296 -83.5q-153 0 -256 65.5t-148 183.5q-71 -117 -186 -182t-258 -65q-219 0 -348 133.5t-129 341.5q0 132 44 249t119.5 200t181 131t224.5 48q151 0 257 -68.5t157 -189.5
q72 122 185 190t253 68q227 0 342 -140t74 -406l-6 -39h-793q-2 -23 -2 -70zM563 123q178 0 281.5 137.5t103.5 351.5q0 156 -80 246t-231 90q-170 0 -276.5 -138.5t-106.5 -350.5q0 -157 78 -246.5t231 -89.5zM1489 948q-123 0 -218.5 -76.5t-133.5 -232.5h620
q12 160 -54 234.5t-214 74.5z" />
    <glyph glyph-name="Racute" unicode="&#x154;" horiz-adv-x="1286" 
d="M98 0l232 1464h432q200 0 324.5 -96.5t121.5 -275.5q0 -190 -116.5 -303t-300.5 -138l358 -651h-193l-348 637h-231l-101 -637h-178zM399 778h275q358 0 358 314q3 229 -280 229h-267zM682 1579l139 260h217l-221 -260h-135z" />
    <glyph glyph-name="racute" unicode="&#x155;" horiz-adv-x="765" 
d="M86 0l119 752q24 153 28 319h160q0 -96 -12 -219q37 58 71 97t80.5 72.5t106.5 50.5t137 18l-24 -160q-172 -8 -274.5 -93.5t-133.5 -279.5l-88 -557h-170zM461 1255l162 301h221l-248 -301h-135z" />
    <glyph glyph-name="Rcommaaccent" unicode="&#x156;" horiz-adv-x="1286" 
d="M98 0l232 1464h432q200 0 324.5 -96.5t121.5 -275.5q0 -190 -116.5 -303t-300.5 -138l358 -651h-193l-348 637h-231l-101 -637h-178zM399 778h275q358 0 358 314q3 229 -280 229h-267zM469 -451l-100 54l147 321l160 -49z" />
    <glyph glyph-name="rcommaaccent" unicode="&#x157;" horiz-adv-x="765" 
d="M86 0l119 752q24 153 28 319h160q0 -96 -12 -219q37 58 71 97t80.5 72.5t106.5 50.5t137 18l-24 -160q-172 -8 -274.5 -93.5t-133.5 -279.5l-88 -557h-170zM35 -451l-101 54l148 321l160 -49z" />
    <glyph glyph-name="Rcaron" unicode="&#x158;" horiz-adv-x="1286" 
d="M98 0l232 1464h432q200 0 324.5 -96.5t121.5 -275.5q0 -190 -116.5 -303t-300.5 -138l358 -651h-193l-348 637h-231l-101 -637h-178zM399 778h275q358 0 358 314q3 229 -280 229h-267zM1061 1839l-254 -260h-154l-186 260h119l157 -119l191 119h127z" />
    <glyph glyph-name="rcaron" unicode="&#x159;" horiz-adv-x="765" 
d="M86 0l119 752q24 153 28 319h160q0 -96 -12 -219q37 58 71 97t80.5 72.5t106.5 50.5t137 18l-24 -160q-172 -8 -274.5 -93.5t-133.5 -279.5l-88 -557h-170zM864 1550l-264 -295h-154l-176 295h119l152 -153l196 153h127z" />
    <glyph glyph-name="Sacute" unicode="&#x15a;" horiz-adv-x="1284" 
d="M614 -18q-134 0 -239.5 38t-170.5 103.5t-99 147.5t-35 175h176q3 -64 25.5 -119.5t66 -102t117 -73t170.5 -26.5q162 -1 253 77t91 212q0 100 -66.5 157t-249.5 111q-111 32 -184.5 64.5t-131 78t-84 107.5t-26.5 145q0 171 136 288.5t356 117.5q215 0 342 -105.5
t131 -298.5h-164q-13 139 -97 199.5t-229 60.5q-151 0 -228 -71t-77 -185q0 -89 64.5 -140t253.5 -109q229 -69 328.5 -156.5t99.5 -245.5q0 -197 -144 -323.5t-385 -126.5zM694 1579l140 260h217l-222 -260h-135z" />
    <glyph glyph-name="sacute" unicode="&#x15b;" horiz-adv-x="983" 
d="M469 -18q-103 0 -184 28t-131 77t-75.5 110.5t-27.5 132.5h166q14 -207 258 -207q219 0 219 176q0 68 -47 105.5t-170 68.5q-179 44 -252 113.5t-73 191.5q0 146 109 229t263 83q165 0 267.5 -77t111.5 -233h-160q-5 77 -64.5 122.5t-158.5 45.5t-154 -42.5t-55 -117.5
q0 -62 46 -97.5t171 -65.5q174 -43 253 -111t79 -207q0 -148 -106 -236.5t-285 -88.5zM489 1255l162 301h221l-247 -301h-136z" />
    <glyph glyph-name="Scircumflex" unicode="&#x15c;" horiz-adv-x="1284" 
d="M614 -18q-134 0 -239.5 38t-170.5 103.5t-99 147.5t-35 175h176q3 -64 25.5 -119.5t66 -102t117 -73t170.5 -26.5q162 -1 253 77t91 212q0 100 -66.5 157t-249.5 111q-111 32 -184.5 64.5t-131 78t-84 107.5t-26.5 145q0 171 136 288.5t356 117.5q215 0 342 -105.5
t131 -298.5h-164q-13 139 -97 199.5t-229 60.5q-151 0 -228 -71t-77 -185q0 -89 64.5 -140t253.5 -109q229 -69 328.5 -156.5t99.5 -245.5q0 -197 -144 -323.5t-385 -126.5zM467 1579l254 260h153l187 -260h-119l-158 119l-190 -119h-127z" />
    <glyph glyph-name="scircumflex" unicode="&#x15d;" horiz-adv-x="983" 
d="M469 -18q-103 0 -184 28t-131 77t-75.5 110.5t-27.5 132.5h166q14 -207 258 -207q219 0 219 176q0 68 -47 105.5t-170 68.5q-179 44 -252 113.5t-73 191.5q0 146 109 229t263 83q165 0 267.5 -77t111.5 -233h-160q-5 77 -64.5 122.5t-158.5 45.5t-154 -42.5t-55 -117.5
q0 -62 46 -97.5t171 -65.5q174 -43 253 -111t79 -207q0 -148 -106 -236.5t-285 -88.5zM260 1255l264 295h154l176 -295h-119l-151 154l-197 -154h-127z" />
    <glyph glyph-name="Scedilla" unicode="&#x15e;" horiz-adv-x="1284" 
d="M475 -438q-84 0 -140 44t-63 128h115q3 -32 26 -53t60 -21q36 0 59 19t23 59q0 30 -20 47.5t-52 17.5q-29 0 -53 -16l-55 61l110 144q-136 22 -231 90.5t-139 161t-45 202.5h176q3 -64 25.5 -119.5t66 -102t117 -73t170.5 -26.5q162 -1 253 77t91 212q0 100 -66.5 157
t-249.5 111q-111 32 -184.5 64.5t-131 78t-84 107.5t-26.5 145q0 171 136 288.5t356 117.5q215 0 342 -105.5t131 -298.5h-164q-13 139 -97 199.5t-229 60.5q-151 0 -228 -71t-77 -185q0 -89 64.5 -140t253.5 -109q229 -69 328.5 -156.5t99.5 -245.5q0 -197 -144 -323.5
t-385 -126.5h-28l-68 -91q66 6 116 -33.5t50 -113.5q0 -87 -56.5 -134.5t-152.5 -47.5z" />
    <glyph glyph-name="scedilla" unicode="&#x15f;" horiz-adv-x="983" 
d="M346 -438q-84 0 -140 44t-63 128h115q3 -32 26 -53t60 -21q36 0 59 19t23 59q0 30 -20 47.5t-52 17.5q-29 0 -53 -16l-55 61l108 144q-147 27 -224 120t-79 218h166q14 -207 258 -207q219 0 219 176q0 68 -47 105.5t-170 68.5q-179 44 -252 113.5t-73 191.5
q0 146 109 229t263 83q165 0 267.5 -77t111.5 -233h-160q-5 77 -64.5 122.5t-158.5 45.5t-154 -42.5t-55 -117.5q0 -62 46 -97.5t171 -65.5q174 -43 253 -111t79 -207q0 -148 -106 -236.5t-285 -88.5h-12l-68 -91q66 6 116 -33.5t50 -113.5q0 -87 -56.5 -134.5t-152.5 -47.5
z" />
    <glyph glyph-name="Scaron" unicode="&#x160;" horiz-adv-x="1284" 
d="M614 -18q-134 0 -239.5 38t-170.5 103.5t-99 147.5t-35 175h176q3 -64 25.5 -119.5t66 -102t117 -73t170.5 -26.5q162 -1 253 77t91 212q0 100 -66.5 157t-249.5 111q-111 32 -184.5 64.5t-131 78t-84 107.5t-26.5 145q0 171 136 288.5t356 117.5q215 0 342 -105.5
t131 -298.5h-164q-13 139 -97 199.5t-229 60.5q-151 0 -228 -71t-77 -185q0 -89 64.5 -140t253.5 -109q229 -69 328.5 -156.5t99.5 -245.5q0 -197 -144 -323.5t-385 -126.5zM1065 1839l-254 -260h-154l-186 260h119l158 -119l190 119h127z" />
    <glyph glyph-name="scaron" unicode="&#x161;" horiz-adv-x="983" 
d="M469 -18q-103 0 -184 28t-131 77t-75.5 110.5t-27.5 132.5h166q14 -207 258 -207q219 0 219 176q0 68 -47 105.5t-170 68.5q-179 44 -252 113.5t-73 191.5q0 146 109 229t263 83q165 0 267.5 -77t111.5 -233h-160q-5 77 -64.5 122.5t-158.5 45.5t-154 -42.5t-55 -117.5
q0 -62 46 -97.5t171 -65.5q174 -43 253 -111t79 -207q0 -148 -106 -236.5t-285 -88.5zM905 1550l-264 -295h-154l-176 295h119l152 -153l196 153h127z" />
    <glyph glyph-name="Tcommaaccent" unicode="&#x162;" horiz-adv-x="1148" 
d="M397 0l207 1319h-426l25 145h1030l-25 -145h-426l-207 -1319h-178zM356 -451l-100 54l147 321l160 -49z" />
    <glyph glyph-name="tcommaaccent" unicode="&#x163;" horiz-adv-x="702" 
d="M418 -14q-152 0 -216.5 85t-43.5 222l100 635h-154l23 143h154l38 244h170l-38 -244h243l-22 -143h-244l-102 -641q-13 -86 15.5 -122t102.5 -36q63 0 127 23l-22 -142q-55 -24 -131 -24zM184 -451l-100 54l147 321l160 -49z" />
    <glyph glyph-name="Tcaron" unicode="&#x164;" horiz-adv-x="1148" 
d="M397 0l207 1319h-426l25 145h1030l-25 -145h-426l-207 -1319h-178zM1047 1839l-254 -260h-154l-186 260h118l158 -119l191 119h127z" />
    <glyph glyph-name="tcaron" unicode="&#x165;" horiz-adv-x="702" 
d="M418 -14q-152 0 -216.5 85t-43.5 222l100 635h-154l23 143h154l38 244h170l-38 -244h243l-22 -143h-244l-102 -641q-13 -86 15.5 -122t102.5 -36q63 0 127 23l-22 -142q-55 -24 -131 -24zM637 1225l78 358h186l-143 -358h-121z" />
    <glyph glyph-name="Tbar" unicode="&#x166;" horiz-adv-x="1148" 
d="M213 692l20 135h293l78 492h-426l25 145h1030l-25 -145h-426l-77 -492h296l-20 -135h-297l-109 -692h-178l109 692h-293z" />
    <glyph glyph-name="tbar" unicode="&#x167;" horiz-adv-x="702" 
d="M49 573l19 121h153l37 234h-154l23 143h154l38 244h170l-38 -244h243l-22 -143h-244l-37 -234h244l-19 -121h-245l-45 -286q-13 -86 15.5 -122t102.5 -36q63 0 127 23l-22 -142q-55 -24 -131 -24q-152 0 -216.5 85t-43.5 222l43 280h-152z" />
    <glyph glyph-name="Utilde" unicode="&#x168;" horiz-adv-x="1425" 
d="M666 -18q-280 0 -408.5 152.5t-81.5 445.5l141 884h179l-142 -886q-37 -239 42.5 -344t277.5 -105q169 0 267 95t132 311l148 929h178l-152 -954q-40 -250 -183 -389t-398 -139zM1004 1585q-41 0 -85.5 22t-81.5 44t-61 22q-30 0 -57 -25t-37 -67h-123q22 112 80.5 175
t138.5 63q40 0 84 -22t81 -44t61 -22q30 0 56 25t36 67h123q-22 -112 -79.5 -175t-135.5 -63z" />
    <glyph glyph-name="utilde" unicode="&#x169;" horiz-adv-x="1204" 
d="M1116 1071l-119 -752q-28 -179 -22 -319h-162q-6 96 10 213q-62 -105 -155.5 -168t-216.5 -63q-175 0 -259 111.5t-49 336.5l103 641h170l-109 -680q-20 -127 25.5 -195.5t154.5 -68.5q137 0 237 86.5t124 235.5l98 622h170zM823 1268q-41 0 -85 22t-81 44t-61 22
q-30 0 -57 -25t-37 -67h-123q22 112 80.5 174.5t138.5 62.5q40 0 84 -22t80.5 -44t60.5 -22q30 0 56 25t36 67h123q-22 -112 -79 -174.5t-136 -62.5z" />
    <glyph glyph-name="Umacron" unicode="&#x16a;" horiz-adv-x="1425" 
d="M666 -18q-280 0 -408.5 152.5t-81.5 445.5l141 884h179l-142 -886q-37 -239 42.5 -344t277.5 -105q169 0 267 95t132 311l148 929h178l-152 -954q-40 -250 -183 -389t-398 -139zM600 1610l21 131h544l-20 -131h-545z" />
    <glyph glyph-name="umacron" unicode="&#x16b;" horiz-adv-x="1204" 
d="M1116 1071l-119 -752q-28 -179 -22 -319h-162q-6 96 10 213q-62 -105 -155.5 -168t-216.5 -63q-175 0 -259 111.5t-49 336.5l103 641h170l-109 -680q-20 -127 25.5 -195.5t154.5 -68.5q137 0 237 86.5t124 235.5l98 622h170zM436 1327l21 131h536l-20 -131h-537z" />
    <glyph glyph-name="Ubreve" unicode="&#x16c;" horiz-adv-x="1425" 
d="M666 -18q-280 0 -408.5 152.5t-81.5 445.5l141 884h179l-142 -886q-37 -239 42.5 -344t277.5 -105q169 0 267 95t132 311l148 929h178l-152 -954q-40 -250 -183 -389t-398 -139zM872 1571q-115 0 -190.5 75t-75.5 195h135q15 -131 133 -131q126 0 150 131h131
q-9 -118 -91 -194t-192 -76z" />
    <glyph glyph-name="ubreve" unicode="&#x16d;" horiz-adv-x="1204" 
d="M1116 1071l-119 -752q-28 -179 -22 -319h-162q-6 96 10 213q-62 -105 -155.5 -168t-216.5 -63q-175 0 -259 111.5t-49 336.5l103 641h170l-109 -680q-20 -127 25.5 -195.5t154.5 -68.5q137 0 237 86.5t124 235.5l98 622h170zM711 1268q-115 0 -191 75t-76 195h136
q15 -131 133 -131q125 0 149 131h131q-9 -118 -91 -194t-191 -76z" />
    <glyph glyph-name="Uring" unicode="&#x16e;" horiz-adv-x="1425" 
d="M666 -18q-280 0 -408.5 152.5t-81.5 445.5l141 884h179l-142 -886q-37 -239 42.5 -344t277.5 -105q169 0 267 95t132 311l148 929h178l-152 -954q-40 -250 -183 -389t-398 -139zM887 1608q48 0 80 34.5t32 88.5q0 51 -28.5 82.5t-75.5 31.5q-48 0 -80.5 -35t-32.5 -88
q0 -51 29 -82.5t76 -31.5zM887 1513q-91 0 -153 60.5t-62 148.5q0 90 66 153.5t157 63.5t153 -60t62 -148q0 -90 -66 -154t-157 -64z" />
    <glyph glyph-name="uring" unicode="&#x16f;" horiz-adv-x="1204" 
d="M1116 1071l-119 -752q-28 -179 -22 -319h-162q-6 96 10 213q-62 -105 -155.5 -168t-216.5 -63q-175 0 -259 111.5t-49 336.5l103 641h170l-109 -680q-20 -127 25.5 -195.5t154.5 -68.5q137 0 237 86.5t124 235.5l98 622h170zM711 1319q48 0 80 34.5t32 88.5
q0 51 -28.5 82.5t-75.5 31.5q-48 0 -80.5 -34.5t-32.5 -87.5q0 -51 29 -83t76 -32zM711 1225q-91 0 -153 60.5t-62 148.5q0 90 66 153.5t157 63.5t153 -60.5t62 -148.5q0 -90 -66 -153.5t-157 -63.5z" />
    <glyph glyph-name="Uhungarumlaut" unicode="&#x170;" horiz-adv-x="1425" 
d="M666 -18q-280 0 -408.5 152.5t-81.5 445.5l141 884h179l-142 -886q-37 -239 42.5 -344t277.5 -105q169 0 267 95t132 311l148 929h178l-152 -954q-40 -250 -183 -389t-398 -139zM641 1579l94 260h197l-166 -260h-125zM956 1579l95 260h196l-166 -260h-125z" />
    <glyph glyph-name="uhungarumlaut" unicode="&#x171;" horiz-adv-x="1204" 
d="M1116 1071l-119 -752q-28 -179 -22 -319h-162q-6 96 10 213q-62 -105 -155.5 -168t-216.5 -63q-175 0 -259 111.5t-49 336.5l103 641h170l-109 -680q-20 -127 25.5 -195.5t154.5 -68.5q137 0 237 86.5t124 235.5l98 622h170zM489 1255l109 301h197l-181 -301h-125z
M805 1255l108 301h197l-180 -301h-125z" />
    <glyph glyph-name="Uogonek" unicode="&#x172;" horiz-adv-x="1425" 
d="M705 -373q-89 0 -146.5 41t-56.5 125q0 110 143 189q-270 5 -393 157t-76 441l141 884h179l-142 -886q-37 -239 41.5 -344t276.5 -105q169 0 268 95t133 311l148 929h178l-152 -954q-51 -332 -286 -463q-19 -11 -63 -29.5t-79 -35.5t-72 -41t-58 -56.5t-21 -70.5
q0 -64 75 -64q48 0 99 21l-19 -121q-62 -23 -118 -23z" />
    <glyph glyph-name="uogonek" unicode="&#x173;" horiz-adv-x="1204" 
d="M1116 1071l-119 -752q-28 -179 -22 -319q-3 -2 -22 -13.5t-25.5 -16t-24 -16t-25.5 -19t-22.5 -19.5t-21 -22.5t-14.5 -24t-11.5 -27t-3.5 -28.5q0 -64 76 -64q47 0 98 21l-18 -121q-62 -23 -119 -23q-89 0 -146.5 41t-56.5 125q0 120 174 207q-6 96 10 213
q-62 -105 -155.5 -168t-216.5 -63q-175 0 -259 111.5t-49 336.5l103 641h170l-109 -680q-20 -127 25.5 -195.5t154.5 -68.5q137 0 237 86.5t124 235.5l98 622h170z" />
    <glyph glyph-name="Wcircumflex" unicode="&#x174;" horiz-adv-x="1822" 
d="M340 0l-150 1464h179l110 -1194l518 1194h115l160 -1198l481 1198h170l-604 -1464h-166l-147 1149l-506 -1149h-160zM760 1579l254 260h153l187 -260h-119l-158 119l-190 -119h-127z" />
    <glyph glyph-name="wcircumflex" unicode="&#x175;" horiz-adv-x="1570" 
d="M276 0l-145 1071h180l99 -872l393 872h147l103 -872l377 872h178l-492 -1071h-188l-92 813l-373 -813h-187zM592 1255l264 295h154l176 -295h-119l-152 154l-196 -154h-127z" />
    <glyph glyph-name="Ycircumflex" unicode="&#x176;" horiz-adv-x="1212" 
d="M444 0l101 639l-359 825h191l282 -680l476 680h182l-596 -839l-98 -625h-179zM455 1579l254 260h153l187 -260h-119l-158 119l-190 -119h-127z" />
    <glyph glyph-name="ycircumflex" unicode="&#x177;" horiz-adv-x="1034" 
d="M90 -373l287 494l-254 950h174l192 -768l408 768h182l-809 -1444h-180zM309 1255l264 295h154l176 -295h-119l-151 154l-197 -154h-127z" />
    <glyph glyph-name="Ydieresis" unicode="&#x178;" horiz-adv-x="1212" 
d="M444 0l101 639l-359 825h191l282 -680l476 680h182l-596 -839l-98 -625h-179zM575 1616q-44 0 -76 31t-32 75t33.5 77.5t77.5 33.5t75 -31.5t31 -75.5t-32.5 -77t-76.5 -33zM991 1616q-44 0 -76 31t-32 75t33 77.5t77 33.5t75.5 -31.5t31.5 -75.5t-32.5 -77t-76.5 -33z
" />
    <glyph glyph-name="Zacute" unicode="&#x179;" horiz-adv-x="1218" 
d="M-29 0l4 29l1026 1296h-747l22 139h1002l-4 -26l-1008 -1293h791l-23 -145h-1063zM690 1579l139 260h218l-222 -260h-135z" />
    <glyph glyph-name="zacute" unicode="&#x17a;" horiz-adv-x="972" 
d="M-43 0l4 25l750 903h-551l22 143h817l-6 -31l-731 -890h590l-25 -150h-870zM516 1255l162 301h221l-248 -301h-135z" />
    <glyph glyph-name="Zdotaccent" unicode="&#x17b;" horiz-adv-x="1218" 
d="M-29 0l4 29l1026 1296h-747l22 139h1002l-4 -26l-1008 -1293h791l-23 -145h-1063zM784 1612q-46 0 -79 32t-33 78t34 80.5t80 34.5t78.5 -32.5t32.5 -78.5t-33.5 -80t-79.5 -34z" />
    <glyph glyph-name="zdotaccent" unicode="&#x17c;" horiz-adv-x="972" 
d="M-43 0l4 25l750 903h-551l22 143h817l-6 -31l-731 -890h590l-25 -150h-870zM623 1294q-46 0 -79.5 32.5t-33.5 78.5t34.5 80.5t80.5 34.5t78 -32.5t32 -78.5t-33.5 -80.5t-78.5 -34.5z" />
    <glyph glyph-name="Zcaron" unicode="&#x17d;" horiz-adv-x="1218" 
d="M-29 0l4 29l1026 1296h-747l22 139h1002l-4 -26l-1008 -1293h791l-23 -145h-1063zM1092 1839l-254 -260h-154l-186 260h118l158 -119l191 119h127z" />
    <glyph glyph-name="zcaron" unicode="&#x17e;" horiz-adv-x="972" 
d="M-43 0l4 25l750 903h-551l22 143h817l-6 -31l-731 -890h590l-25 -150h-870zM924 1550l-265 -295h-153l-176 295h119l151 -153l197 153h127z" />
    <glyph glyph-name="florin" unicode="&#x192;" horiz-adv-x="813" 
d="M78 707l22 139h197l59 311q29 158 119 242t230 84q91 0 151 -33l-20 -133q-60 24 -129 24q-147 0 -183 -192l-57 -303h270l-22 -139h-273l-202 -1080h-170l202 1080h-194z" />
    <glyph glyph-name="Aringacute" unicode="&#x1fa;" horiz-adv-x="1331" 
d="M1024 0l-76 422h-604l-209 -422h-172l735 1464h234l264 -1464h-172zM786 1317l-372 -754h508zM840 1534q-91 0 -153 60.5t-62 148.5q0 90 66 153.5t157 63.5t153 -60.5t62 -148.5q0 -90 -66 -153.5t-157 -63.5zM801 2019l139 260h217l-221 -260h-135zM840 1628
q48 0 80 34.5t32 88.5q0 51 -28.5 83t-75.5 32q-48 0 -80.5 -35t-32.5 -88q0 -51 29 -83t76 -32z" />
    <glyph glyph-name="aringacute" unicode="&#x1fb;" horiz-adv-x="1101" 
d="M403 -16q-162 0 -254 82.5t-92 220.5q0 96 41 164.5t115.5 106t163.5 54.5t201 17h206l13 78q21 125 -26.5 183t-174.5 58q-214 0 -256 -192h-170q18 92 63.5 159.5t107.5 104t127 53.5t134 17q93 0 164.5 -22t123 -68t71.5 -124.5t4 -183.5l-60 -373q-32 -193 -18 -319
h-160q-9 87 -2 170q-56 -91 -140 -138.5t-182 -47.5zM426 117q125 0 211.5 69.5t107.5 204.5l19 117h-182q-185 0 -271 -50.5t-86 -170.5q0 -75 51.5 -122.5t149.5 -47.5zM668 1278q48 0 80 34.5t32 88.5q0 51 -28.5 83t-75.5 32q-48 0 -80.5 -35t-32.5 -88q0 -51 29 -83
t76 -32zM668 1184q-91 0 -153 60.5t-62 148.5q0 90 66 153.5t157 63.5t153 -60.5t62 -148.5q0 -90 -66 -153.5t-157 -63.5zM639 1698l139 260h217l-221 -260h-135z" />
    <glyph glyph-name="AEacute" unicode="&#x1fc;" horiz-adv-x="1945" 
d="M-27 0l955 1464h1034l-25 -145h-667l-78 -498h545l-23 -145h-545l-84 -531h713l-22 -145h-891l65 424h-518l-272 -424h-187zM1010 1319l-488 -756h451l119 756h-82zM1356 1579l139 260h217l-221 -260h-135z" />
    <glyph glyph-name="aeacute" unicode="&#x1fd;" horiz-adv-x="1792" 
d="M938 432q0 -152 67 -230.5t216 -78.5q222 0 284 186h166q-48 -162 -168.5 -244.5t-288.5 -82.5q-150 0 -251 63.5t-150 177.5q-61 -115 -166 -177t-239 -62q-168 0 -259.5 76.5t-91.5 213.5q0 96 42.5 167.5t117.5 112.5t168 61t203 20h198l13 72q20 124 -27.5 182.5
t-175.5 58.5q-214 0 -256 -192h-170q18 92 63.5 159.5t107.5 104t127 53.5t134 17q267 0 334 -177q72 83 168 128.5t207 45.5q225 0 334 -139t67 -407l-6 -35h-766q-2 -25 -2 -74zM422 117q129 0 217 69.5t109 204.5l18 115h-184q-183 0 -270 -52.5t-87 -172.5
q0 -74 50.5 -119t146.5 -45zM1300 948q-123 0 -214.5 -77t-127.5 -236h596q12 162 -48.5 237.5t-205.5 75.5zM913 1255l162 301h221l-247 -301h-136z" />
    <glyph glyph-name="Oslashacute" unicode="&#x1fe;" horiz-adv-x="1660" 
d="M150 -68l-89 93l205 208q-127 172 -127 406q0 230 103.5 424t284.5 307t399 113q251 0 424 -140l172 177l88 -93l-170 -172q143 -178 143 -432q0 -178 -60.5 -335t-164 -267.5t-246.5 -174.5t-303 -64q-276 0 -457 157zM1399 823q0 182 -78 310l-858 -879
q130 -127 348 -127q171 0 305.5 90.5t208.5 249t74 356.5zM324 639q0 -166 63 -283l854 875q-123 108 -317 108q-179 0 -317.5 -96.5t-210.5 -254.5t-72 -349zM903 1579l139 260h218l-222 -260h-135z" />
    <glyph glyph-name="oslashacute" unicode="&#x1ff;" horiz-adv-x="1206" 
d="M104 -76l-81 78l147 158q-92 125 -92 299q0 132 44 249t119.5 200t181 131t224.5 48q179 0 305 -96l138 148l84 -78l-142 -150q94 -120 94 -295q0 -181 -72 -325t-203 -225.5t-296 -81.5q-179 0 -305 96zM563 123q178 0 281.5 137.5t103.5 351.5q0 104 -33 174l-563 -600
q75 -63 211 -63zM254 459q0 -109 31 -178l563 600q-76 67 -211 67q-170 0 -276.5 -138.5t-106.5 -350.5zM602 1255l162 301h221l-248 -301h-135z" />
    <glyph glyph-name="Scommaaccent" unicode="&#x218;" horiz-adv-x="1284" 
d="M614 -18q-134 0 -239.5 38t-170.5 103.5t-99 147.5t-35 175h176q3 -64 25.5 -119.5t66 -102t117 -73t170.5 -26.5q162 -1 253 77t91 212q0 100 -66.5 157t-249.5 111q-111 32 -184.5 64.5t-131 78t-84 107.5t-26.5 145q0 171 136 288.5t356 117.5q215 0 342 -105.5
t131 -298.5h-164q-13 139 -97 199.5t-229 60.5q-151 0 -228 -71t-77 -185q0 -89 64.5 -140t253.5 -109q229 -69 328.5 -156.5t99.5 -245.5q0 -197 -144 -323.5t-385 -126.5zM397 -451l-100 54l147 321l160 -49z" />
    <glyph glyph-name="scommaaccent" unicode="&#x219;" horiz-adv-x="983" 
d="M469 -18q-103 0 -184 28t-131 77t-75.5 110.5t-27.5 132.5h166q14 -207 258 -207q219 0 219 176q0 68 -47 105.5t-170 68.5q-179 44 -252 113.5t-73 191.5q0 146 109 229t263 83q165 0 267.5 -77t111.5 -233h-160q-5 77 -64.5 122.5t-158.5 45.5t-154 -42.5t-55 -117.5
q0 -62 46 -97.5t171 -65.5q174 -43 253 -111t79 -207q0 -148 -106 -236.5t-285 -88.5zM266 -451l-100 54l147 321l160 -49z" />
    <glyph glyph-name="uni0237" unicode="&#x237;" horiz-adv-x="522" 
d="M-129 -389l23 141q88 4 129.5 44.5t54.5 119.5l182 1155h170l-184 -1165q-23 -145 -112.5 -220t-262.5 -75z" />
    <glyph glyph-name="circumflex" unicode="&#x2c6;" horiz-adv-x="819" 
d="M225 1255l264 295h154l176 -295h-119l-151 154l-197 -154h-127z" />
    <glyph glyph-name="caron" unicode="&#x2c7;" horiz-adv-x="819" 
d="M864 1550l-264 -295h-154l-176 295h119l152 -153l196 153h127z" />
    <glyph glyph-name="breve" unicode="&#x2d8;" horiz-adv-x="819" 
d="M549 1268q-115 0 -190.5 75t-75.5 195h135q15 -131 133 -131q125 0 149 131h131q-9 -118 -91 -194t-191 -76z" />
    <glyph glyph-name="dotaccent" unicode="&#x2d9;" horiz-adv-x="819" 
d="M545 1294q-46 0 -79.5 32.5t-33.5 78.5t34.5 80.5t80.5 34.5t78 -32.5t32 -78.5t-33.5 -80.5t-78.5 -34.5z" />
    <glyph glyph-name="ring" unicode="&#x2da;" horiz-adv-x="819" 
d="M547 1319q48 0 80 34.5t32 88.5q0 51 -28.5 82.5t-75.5 31.5q-48 0 -80.5 -34.5t-32.5 -87.5q0 -51 29 -83t76 -32zM547 1225q-91 0 -153 60.5t-62 148.5q0 90 66 153.5t157 63.5t153 -60.5t62 -148.5q0 -90 -66 -153.5t-157 -63.5z" />
    <glyph glyph-name="ogonek" unicode="&#x2db;" horiz-adv-x="819" 
d="M330 -373q-89 0 -146.5 41t-56.5 125q0 120 178 207h160q-6 -4 -29 -17.5t-33.5 -20.5t-31 -21.5t-31.5 -26.5t-23.5 -28.5t-18 -34.5t-5.5 -37q0 -64 76 -64q47 0 98 21l-18 -121q-62 -23 -119 -23z" />
    <glyph glyph-name="tilde" unicode="&#x2dc;" horiz-adv-x="819" 
d="M653 1268q-41 0 -85 22t-81 44t-61 22q-30 0 -57 -25t-37 -67h-123q22 112 80.5 174.5t138.5 62.5q40 0 84 -22t80.5 -44t60.5 -22q30 0 56 25t36 67h123q-22 -112 -79 -174.5t-136 -62.5z" />
    <glyph glyph-name="hungarumlaut" unicode="&#x2dd;" horiz-adv-x="819" 
d="M299 1255l109 301h196l-180 -301h-125zM614 1255l109 301h197l-181 -301h-125z" />
    <glyph glyph-name="Wgrave" unicode="&#x1e80;" horiz-adv-x="1822" 
d="M340 0l-150 1464h179l110 -1194l518 1194h115l160 -1198l481 1198h170l-604 -1464h-166l-147 1149l-506 -1149h-160zM1006 1579l-164 260h207l79 -260h-122z" />
    <glyph glyph-name="wgrave" unicode="&#x1e81;" horiz-adv-x="1570" 
d="M276 0l-145 1071h180l99 -872l393 872h147l103 -872l377 872h178l-492 -1071h-188l-92 813l-373 -813h-187zM829 1255l-180 301h209l96 -301h-125z" />
    <glyph glyph-name="Wacute" unicode="&#x1e82;" horiz-adv-x="1822" 
d="M340 0l-150 1464h179l110 -1194l518 1194h115l160 -1198l481 1198h170l-604 -1464h-166l-147 1149l-506 -1149h-160zM995 1579l140 260h217l-222 -260h-135z" />
    <glyph glyph-name="wacute" unicode="&#x1e83;" horiz-adv-x="1570" 
d="M276 0l-145 1071h180l99 -872l393 872h147l103 -872l377 872h178l-492 -1071h-188l-92 813l-373 -813h-187zM842 1255l162 301h221l-248 -301h-135z" />
    <glyph glyph-name="Wdieresis" unicode="&#x1e84;" horiz-adv-x="1822" 
d="M340 0l-150 1464h179l110 -1194l518 1194h115l160 -1198l481 1198h170l-604 -1464h-166l-147 1149l-506 -1149h-160zM874 1616q-44 0 -76 31t-32 75t33.5 77.5t77.5 33.5t75 -31.5t31 -75.5t-32.5 -77t-76.5 -33zM1290 1616q-44 0 -76 31t-32 75t33 77.5t77 33.5
t75.5 -31.5t31.5 -75.5t-32.5 -77t-76.5 -33z" />
    <glyph glyph-name="wdieresis" unicode="&#x1e85;" horiz-adv-x="1570" 
d="M276 0l-145 1071h180l99 -872l393 872h147l103 -872l377 872h178l-492 -1071h-188l-92 813l-373 -813h-187zM727 1298q-44 0 -76.5 31.5t-32.5 75.5t33.5 77.5t77.5 33.5t75.5 -31.5t31.5 -75.5t-32.5 -77.5t-76.5 -33.5zM1112 1298q-44 0 -76 31.5t-32 75.5t33 77.5
t77 33.5t75.5 -31.5t31.5 -75.5t-32.5 -77.5t-76.5 -33.5z" />
    <glyph glyph-name="Ygrave" unicode="&#x1ef2;" horiz-adv-x="1212" 
d="M444 0l101 639l-359 825h191l282 -680l476 680h182l-596 -839l-98 -625h-179zM713 1579l-164 260h207l80 -260h-123z" />
    <glyph glyph-name="ygrave" unicode="&#x1ef3;" horiz-adv-x="1034" 
d="M90 -373l287 494l-254 950h174l192 -768l408 768h182l-809 -1444h-180zM565 1255l-180 301h209l96 -301h-125z" />
    <glyph glyph-name="uni2009" unicode="&#x2009;" horiz-adv-x="204" 
 />
    <glyph glyph-name="endash" unicode="&#x2013;" horiz-adv-x="1077" 
d="M84 494l22 143h893l-22 -143h-893z" />
    <glyph glyph-name="emdash" unicode="&#x2014;" horiz-adv-x="1812" 
d="M84 494l22 143h1629l-23 -143h-1628z" />
    <glyph glyph-name="quoteleft" unicode="&#x2018;" horiz-adv-x="493" 
d="M322 999l-158 74l268 414l100 -53z" />
    <glyph glyph-name="quoteright" unicode="&#x2019;" horiz-adv-x="493" 
d="M279 999l-101 54l211 434l158 -74z" />
    <glyph glyph-name="quotesinglbase" unicode="&#x201a;" horiz-adv-x="493" 
d="M51 -233l-96 53l209 434l155 -74z" />
    <glyph glyph-name="quotedblleft" unicode="&#x201c;" horiz-adv-x="856" 
d="M322 999l-158 74l268 414l100 -53zM684 999l-158 74l269 414l100 -53z" />
    <glyph glyph-name="quotedblright" unicode="&#x201d;" horiz-adv-x="856" 
d="M279 999l-101 54l211 434l158 -74zM641 999l-100 54l211 434l157 -74z" />
    <glyph glyph-name="quotedblbase" unicode="&#x201e;" horiz-adv-x="856" 
d="M51 -233l-96 53l209 434l155 -74zM414 -233l-99 53l211 434l156 -74z" />
    <glyph glyph-name="dagger" unicode="&#x2020;" horiz-adv-x="765" 
d="M289 436l100 627h-237l20 137h238l43 264h153l-43 -264h236l-21 -137h-235l-101 -627h-153z" />
    <glyph glyph-name="daggerdbl" unicode="&#x2021;" horiz-adv-x="765" 
d="M352 838l37 225h-237l20 137h238l43 264h153l-43 -264h236l-21 -137h-235l-37 -225h235l-20 -138h-236l-43 -264h-153l43 264h-238l21 138h237z" />
    <glyph glyph-name="bullet" unicode="&#x2022;" horiz-adv-x="679" 
d="M344 389q-97 0 -162 66t-65 161q0 104 69.5 176t175.5 72q98 0 164 -66t66 -161q0 -105 -69.5 -176.5t-178.5 -71.5z" />
    <glyph glyph-name="ellipsis" unicode="&#x2026;" horiz-adv-x="1650" 
d="M221 -10q-54 0 -92.5 38t-38.5 93t37.5 93t91.5 38q55 0 94 -38t39 -93t-38.5 -93t-92.5 -38zM758 -10q-54 0 -92.5 38t-38.5 93t37.5 93t91.5 38q55 0 94 -38t39 -93t-38.5 -93t-92.5 -38zM1294 -10q-54 0 -92.5 38t-38.5 93t37.5 93t91.5 38q55 0 94 -38t39 -93
t-38.5 -93t-92.5 -38z" />
    <glyph glyph-name="perthousand" unicode="&#x2030;" horiz-adv-x="2285" 
d="M307 1108q0 -72 38 -121t122 -49q85 0 136.5 64.5t51.5 164.5q0 74 -38 126.5t-119 52.5q-90 0 -140.5 -67.5t-50.5 -170.5zM463 807q-135 0 -222 88.5t-87 220.5q0 146 102.5 253.5t247.5 107.5q137 0 221 -90.5t84 -225.5q0 -143 -101.5 -248.5t-244.5 -105.5zM166 0
l1120 1464h162l-1120 -1464h-162zM940 285q0 -72 38 -121t122 -49q85 0 136.5 64.5t51.5 164.5q0 74 -38.5 126t-119.5 52q-90 0 -140 -67t-50 -170zM1096 -16q-135 0 -222.5 88.5t-87.5 220.5q0 146 103 253t248 107q137 0 221 -90t84 -225q0 -143 -101.5 -248.5
t-244.5 -105.5zM1692 285q0 -72 37.5 -121t121.5 -49q85 0 137 64.5t52 164.5q0 74 -38.5 126t-119.5 52q-90 0 -140 -67t-50 -170zM1847 -16q-135 0 -222 88.5t-87 220.5q0 146 102.5 253t247.5 107q137 0 221 -90t84 -225q0 -143 -101.5 -248.5t-244.5 -105.5z" />
    <glyph glyph-name="uni2032" unicode="&#x2032;" horiz-adv-x="434" 
d="M150 963l133 501h192l-201 -501h-124z" />
    <glyph glyph-name="uni2033" unicode="&#x2033;" horiz-adv-x="768" 
d="M150 963l133 501h192l-201 -501h-124zM483 963l133 501h193l-201 -501h-125z" />
    <glyph glyph-name="guilsinglleft" unicode="&#x2039;" horiz-adv-x="659" 
d="M328 170l-209 367l323 362h174l-319 -371l195 -358h-164z" />
    <glyph glyph-name="guilsinglright" unicode="&#x203a;" horiz-adv-x="659" 
d="M328 899l209 -367l-324 -362h-174l319 371l-194 358h164z" />
    <glyph glyph-name="fraction" unicode="&#x2044;" horiz-adv-x="231" 
d="M-539 0l1223 1464h141l-1222 -1464h-142z" />
    <glyph glyph-name="Euro" unicode="&#x20ac;" horiz-adv-x="1368" 
d="M109 807l18 119h147q26 120 75 219.5t121.5 176t174.5 119t225 42.5q212 0 331.5 -116.5t125.5 -332.5h-170q-2 63 -19.5 117t-52 98t-92 69t-131.5 25q-170 0 -268.5 -108t-142.5 -309h475l-37 -119h-459l-24 -160h434l-37 -119h-412q-3 -60 3 -113.5t27 -107.5
t57.5 -92.5t98.5 -63t144 -24.5q300 0 383 336h164q-48 -238 -197 -359.5t-356 -121.5q-130 0 -229.5 43t-158 119t-86.5 173t-24 211h-151l18 119h145l25 160h-145z" />
    <glyph glyph-name="trademark" unicode="&#x2122;" horiz-adv-x="1466" 
d="M721 805l104 659h154l111 -463l253 463h164l-104 -659h-115l80 514l-291 -514h-39l-133 514l-80 -514h-104zM291 805l90 569h-201l15 90h514l-15 -90h-198l-90 -569h-115z" />
    <glyph glyph-name="onethird" unicode="&#x2153;" horiz-adv-x="1499" 
d="M256 764l88 561l-182 -111l18 125l203 125h123l-111 -700h-139zM35 0l1222 1464h142l-1223 -1464h-141zM1110 -10q-54 0 -99 12t-83 37.5t-59.5 71t-22.5 106.5h129q3 -57 36.5 -91t96.5 -34q56 0 95.5 31t39.5 90q0 100 -113 100h-49l15 97h55q57 0 90 26t33 76
q0 94 -100 94q-54 0 -91 -29.5t-49 -82.5h-123q12 99 87.5 157t179.5 58q101 0 165 -45t64 -140q0 -57 -36.5 -100.5t-100.5 -63.5q51 -11 82.5 -50t31.5 -103q0 -100 -80.5 -158.5t-193.5 -58.5z" />
    <glyph glyph-name="twothirds" unicode="&#x2154;" horiz-adv-x="1576" 
d="M55 764l4 24l303 269q82 72 115 116.5t33 100.5q0 44 -27 68t-67 24q-105 0 -137 -135h-127q18 113 92.5 177.5t179.5 64.5q93 0 158 -49.5t65 -147.5q0 -40 -11 -72.5t-42.5 -70t-58.5 -62.5t-89 -80l-141 -123h283l-17 -104h-516zM131 0l1223 1464h141l-1223 -1464
h-141zM1188 -10q-54 0 -99 12t-83 37.5t-59.5 71t-22.5 106.5h129q3 -57 36.5 -91t96.5 -34q56 0 95.5 31t39.5 90q0 100 -113 100h-49l15 97h55q57 0 90 26t33 76q0 94 -101 94q-54 0 -90.5 -29.5t-48.5 -82.5h-123q12 99 87 157t179 58q101 0 165.5 -45t64.5 -140
q0 -57 -36.5 -100.5t-100.5 -63.5q51 -11 82.5 -50t31.5 -103q0 -100 -80.5 -158.5t-193.5 -58.5z" />
    <glyph glyph-name="oneeighth" unicode="&#x215b;" horiz-adv-x="1478" 
d="M256 764l88 561l-182 -111l18 125l203 125h123l-111 -700h-139zM33 0l1222 1464h142l-1223 -1464h-141zM1092 -10q-105 0 -179.5 49t-74.5 147q0 147 157 195q-39 19 -61.5 53t-22.5 76q0 90 74 144.5t176 54.5q56 0 106 -18t86 -60.5t36 -102.5q0 -110 -123 -157
q102 -46 102 -158q0 -105 -79.5 -164t-196.5 -59zM977 201q0 -48 31 -78.5t90 -30.5q56 0 94.5 31t38.5 92q0 52 -31.5 82.5t-87.5 30.5t-95.5 -33.5t-39.5 -93.5zM1042 506q0 -41 29 -65.5t72 -24.5q53 0 83.5 26.5t30.5 77.5q0 39 -28.5 64.5t-75.5 25.5t-79 -27.5
t-32 -76.5z" />
    <glyph glyph-name="threeeighths" unicode="&#x215c;" horiz-adv-x="1552" 
d="M381 754q-54 0 -99 12t-83 37.5t-59.5 71t-22.5 106.5h129q3 -57 36.5 -91t96.5 -34q56 0 95.5 31t39.5 90q0 100 -113 100h-49l15 97h55q57 0 90 26t33 76q0 94 -101 94q-54 0 -90.5 -30t-48.5 -83h-123q12 99 87.5 157.5t179.5 58.5q101 0 165 -45t64 -140
q0 -57 -36.5 -100.5t-100.5 -63.5q51 -11 82.5 -50t31.5 -103q0 -100 -80.5 -158.5t-193.5 -58.5zM127 0l1223 1464h141l-1223 -1464h-141zM1165 -10q-105 0 -179.5 49t-74.5 147q0 146 158 195q-39 19 -61.5 53t-22.5 76q0 90 74 144.5t176 54.5q56 0 105.5 -18t85.5 -60.5
t36 -102.5q0 -110 -123 -157q103 -47 103 -158q0 -105 -80 -164t-197 -59zM1051 201q0 -48 30.5 -78.5t89.5 -30.5q56 0 95 31t39 92q0 52 -31.5 82.5t-87.5 30.5t-95.5 -33.5t-39.5 -93.5zM1116 506q0 -41 29 -65.5t72 -24.5q53 0 83.5 26.5t30.5 77.5q0 39 -28.5 64.5
t-75.5 25.5t-79 -27.5t-32 -76.5z" />
    <glyph glyph-name="fiveeighths" unicode="&#x215d;" horiz-adv-x="1538" 
d="M362 754q-109 0 -177 50t-72 163h129q10 -107 120 -107q59 0 95.5 41.5t36.5 112.5q0 116 -119 116q-81 0 -137 -59h-72l72 393h430l-17 -106h-325l-31 -176q53 49 141 49q87 0 143.5 -55.5t55.5 -151.5q-1 -123 -75.5 -195.5t-197.5 -74.5zM113 0l1222 1464h142
l-1223 -1464h-141zM1151 -10q-105 0 -179.5 49t-74.5 147q0 146 158 195q-39 19 -61.5 53t-22.5 76q0 90 74 144.5t176 54.5q56 0 105.5 -18t85.5 -60.5t36 -102.5q0 -110 -123 -157q102 -46 102 -158q0 -105 -79.5 -164t-196.5 -59zM1036 201q0 -48 31 -78.5t90 -30.5
q56 0 94.5 31t38.5 92q0 52 -31.5 82.5t-87.5 30.5t-95.5 -33.5t-39.5 -93.5zM1102 506q0 -41 28.5 -65.5t71.5 -24.5q53 0 84 26.5t31 77.5q0 39 -29 64.5t-76 25.5t-78.5 -27.5t-31.5 -76.5z" />
    <glyph glyph-name="seveneighths" unicode="&#x215e;" horiz-adv-x="1452" 
d="M170 764l313 588h-327l18 112h506l-4 -16l-361 -684h-145zM0 0l1223 1464h141l-1223 -1464h-141zM1065 -10q-105 0 -179.5 49t-74.5 147q0 146 158 195q-39 19 -61.5 53t-22.5 76q0 90 74 144.5t176 54.5q56 0 105.5 -18t85.5 -60.5t36 -102.5q0 -110 -123 -157
q102 -46 102 -158q0 -105 -79.5 -164t-196.5 -59zM950 201q0 -48 31 -78.5t90 -30.5q56 0 94.5 31t38.5 92q0 52 -31.5 82.5t-87.5 30.5t-95.5 -33.5t-39.5 -93.5zM1016 506q0 -41 28.5 -65.5t71.5 -24.5q53 0 84 26.5t31 77.5q0 39 -29 64.5t-76 25.5t-78.5 -27.5
t-31.5 -76.5z" />
    <glyph glyph-name="minus" unicode="&#x2212;" horiz-adv-x="1062" 
d="M86 629l23 143h915l-23 -143h-915z" />
    <glyph glyph-name="approxequal" unicode="&#x2248;" horiz-adv-x="1019" 
d="M125 702q19 118 86 181t156 63q77 0 207 -45t180 -45q36 0 65.5 24t36.5 70h129q-19 -120 -84.5 -181.5t-150.5 -61.5q-65 0 -140.5 22.5t-142 45t-109.5 22.5q-35 0 -63.5 -24.5t-40.5 -70.5h-129zM66 340q19 118 85.5 181t155.5 63q77 0 207 -45t180 -45q36 0 66 24
t37 70h129q-19 -120 -85 -182t-151 -62q-65 0 -140 22.5t-141.5 45t-109.5 22.5q-35 0 -63.5 -24.5t-40.5 -69.5h-129z" />
    <glyph glyph-name="notequal" unicode="&#x2260;" horiz-adv-x="991" 
d="M117 770l22 148h430l107 210h155l-106 -210h242l-23 -148h-293l-112 -221h370l-22 -148h-422l-105 -211h-155l104 211h-250l23 148h301l113 221h-379z" />
    <glyph glyph-name="lessequal" unicode="&#x2264;" horiz-adv-x="1032" 
d="M846 244l-719 426l6 41l852 413l-27 -170l-575 -270l487 -283zM23 0l22 143h786l-22 -143h-786z" />
    <glyph glyph-name="greaterequal" unicode="&#x2265;" horiz-adv-x="1032" 
d="M51 0l23 143h786l-22 -143h-787zM227 1124l719 -426l-6 -41l-852 -413l27 170l575 270l-487 283z" />
    <glyph glyph-name="uni24C5" unicode="&#x24c5;" horiz-adv-x="1728" 
d="M645 332v809h262q142 0 221.5 -63t79.5 -187v-6q0 -124 -79.5 -186t-215.5 -62h-112v-305h-156zM801 750h106q74 0 113 34.5t39 100.5v6q0 129 -152 129h-106v-270zM885 68q130 0 249 49.5t209 135.5t143.5 212t53.5 270q0 190 -89 342.5t-237.5 236t-324.5 83.5
q-133 0 -253.5 -49.5t-209 -136t-141 -212t-52.5 -268.5q0 -144 54 -269.5t144 -211t208 -134t246 -48.5zM885 -18q-154 0 -292.5 58t-239 157t-159.5 238.5t-59 295.5q0 154 59 293.5t159.5 240t240.5 159.5t295 59q157 0 296.5 -58.5t238.5 -159t156.5 -238.5t57.5 -292
q0 -126 -37.5 -241.5t-106.5 -208t-161.5 -161t-207.5 -105.5t-240 -37z" />
    <glyph glyph-name="f_i" unicode="&#xfb01;" horiz-adv-x="1210" 
d="M104 928l23 143h152l32 197q25 161 114 241t224 80q84 0 142 -26l-21 -136q-52 21 -115 21q-75 0 -117 -45t-57 -139l-30 -193h262l-23 -143h-262l-147 -928h-170l145 928h-152zM778 0l170 1071h170l-170 -1071h-170zM1081 1294q-46 0 -79 32.5t-33 78.5t34 80.5t80 34.5
t78.5 -32.5t32.5 -78.5t-33.5 -80.5t-79.5 -34.5z" />
    <glyph glyph-name="f_l" unicode="&#xfb02;" horiz-adv-x="1212" 
d="M104 928l23 143h152l32 197q25 161 114 241t224 80q84 0 142 -26l-21 -136q-52 21 -115 21q-75 0 -117 -45t-57 -139l-30 -193h262l-23 -143h-262l-147 -928h-170l145 928h-152zM778 0l250 1583h172l-250 -1583h-172z" />
    <glyph glyph-name="space_uni0326" horiz-adv-x="819" 
d="M221 -451l-100 54l147 321l160 -49z" />
    <glyph glyph-name="caron.alt" horiz-adv-x="819" 
d="M483 1225l78 358h187l-144 -358h-121z" />
    <glyph glyph-name="space_uni0326.alt" horiz-adv-x="819" 
d="M639 1608l100 -54l-147 -321l-160 49z" />
    <glyph glyph-name="grave.uc" horiz-adv-x="819" 
d="M530 1579l-163 260h206l80 -260h-123z" />
    <glyph glyph-name="dieresis.uc" horiz-adv-x="819" 
d="M387 1616q-44 0 -76 31t-32 75t33 77.5t77 33.5t75.5 -31.5t31.5 -75.5t-32.5 -77t-76.5 -33zM803 1616q-45 0 -77 31t-32 75t33.5 77.5t77.5 33.5t75 -31.5t31 -75.5t-32 -77t-76 -33z" />
    <glyph glyph-name="macron.uc" horiz-adv-x="819" 
d="M305 1610l21 131h544l-20 -131h-545z" />
    <glyph glyph-name="acute.uc" horiz-adv-x="819" 
d="M492 1579l139 260h217l-221 -260h-135z" />
    <glyph glyph-name="circumflex.uc" horiz-adv-x="819" 
d="M276 1579l254 260h154l186 -260h-118l-158 119l-191 -119h-127z" />
    <glyph glyph-name="caron.uc" horiz-adv-x="819" 
d="M911 1839l-254 -260h-153l-187 260h119l158 -119l190 119h127z" />
    <glyph glyph-name="breve.uc" horiz-adv-x="819" 
d="M602 1571q-115 0 -190.5 75t-75.5 195h135q15 -131 133 -131q126 0 150 131h131q-9 -118 -91 -194t-192 -76z" />
    <glyph glyph-name="dotaccent.uc" horiz-adv-x="819" 
d="M594 1612q-46 0 -79.5 32.5t-33.5 77.5q0 46 34.5 80.5t80.5 34.5t78.5 -32.5t32.5 -78.5t-33.5 -80t-79.5 -34z" />
    <glyph glyph-name="ring.uc" horiz-adv-x="819" 
d="M598 1649q48 0 80.5 35t32.5 88q0 51 -29 82.5t-76 31.5q-48 0 -80 -34.5t-32 -88.5q0 -51 28.5 -82.5t75.5 -31.5zM598 1554q-91 0 -153 60.5t-62 148.5q0 90 66 153.5t157 63.5t153 -60t62 -148q0 -90 -66 -154t-157 -64z" />
    <glyph glyph-name="tilde.uc" horiz-adv-x="819" 
d="M707 1585q-41 0 -85.5 22t-81.5 44t-61 22q-30 0 -57 -25t-37 -67h-123q22 112 80.5 175t138.5 63q40 0 84 -22t81 -44t61 -22q30 0 56 25t36 67h123q-22 -112 -79.5 -175t-135.5 -63z" />
    <glyph glyph-name="hungarumlaut.uc" horiz-adv-x="819" 
d="M362 1579l95 260h196l-166 -260h-125zM678 1579l94 260h197l-166 -260h-125z" />
    <glyph glyph-name="idotaccent" horiz-adv-x="522" 
d="M393 1294q-46 0 -79 32.5t-33 78.5t34 80.5t80 34.5t78.5 -32.5t32.5 -78.5t-33.5 -80.5t-79.5 -34.5zM90 0l170 1071h170l-170 -1071h-170z" />
    <glyph glyph-name="registered.alt" horiz-adv-x="1728" 
d="M610 334v809h277q140 0 220.5 -59t80.5 -179v-4q0 -90 -48.5 -143.5t-129.5 -73.5l225 -350h-162l-211 325h-98v-325h-154zM764 768h121q149 0 149 127v6q0 65 -38 94t-111 29h-121v-256zM885 68q130 0 249 49.5t209 135.5t143.5 212t53.5 270q0 190 -89 342.5
t-237.5 236t-324.5 83.5q-133 0 -253.5 -49.5t-209 -136t-141 -212t-52.5 -268.5q0 -144 54 -269.5t144 -211t208 -134t246 -48.5zM885 -18q-154 0 -292.5 58t-239 157t-159.5 238.5t-59 295.5q0 154 59 293.5t159.5 240t240.5 159.5t295 59q157 0 296.5 -58.5t238.5 -159
t156.5 -238.5t57.5 -292q0 -126 -37.5 -241.5t-106.5 -208t-161.5 -161t-207.5 -105.5t-240 -37z" />
    <glyph glyph-name="dollar.old" horiz-adv-x="1245" 
d="M604 -16h-10l-39 -252h-119l41 262q-200 31 -304.5 152t-106.5 286h167q5 -111 70 -195t195 -110l86 545q-94 30 -158 62t-112 75.5t-70.5 101t-22.5 133.5q0 107 60.5 196.5t172 143t251.5 54.5l28 178h119l-31 -186q161 -25 256 -124t99 -259h-156q-19 204 -219 245
l-80 -499q207 -66 299 -150t92 -231q0 -191 -138 -309.5t-370 -118.5zM940 395q0 92 -51 145t-193 99l-82 -522q155 1 240.5 75t85.5 203zM387 1051q0 -78 46 -127t175 -95l76 474q-145 -1 -221 -72t-76 -180z" />
    <glyph glyph-name="Euro.old" horiz-adv-x="1339" 
d="M100 782l19 115h143q25 117 73 213.5t118 171t169 115.5t218 41q205 0 321.5 -112.5t122.5 -321.5h-166q-3 128 -75 213.5t-212 85.5q-164 0 -259.5 -105.5t-137.5 -300.5h459l-35 -115h-444l-25 -153h422l-35 -115h-401q-3 -59 3 -111t26.5 -105t55 -90.5t94.5 -61
t140 -23.5q293 0 373 326h158q-46 -231 -190 -349t-345 -118q-127 0 -223.5 42t-153.5 116t-84 168.5t-22 205.5h-148l19 115h141l23 153h-142z" />
    <glyph glyph-name="sterling.old" horiz-adv-x="1183" 
d="M113 627l20 123h139q-8 79 -8 186q0 105 29.5 194.5t87 159t150.5 109t212 39.5q185 0 293 -95.5t109 -279.5h-170q-6 111 -61.5 172t-178.5 61q-82 0 -142 -28.5t-94 -80t-49.5 -114t-15.5 -139.5q0 -70 4 -184h420l-20 -123h-392q3 -65 3 -138q0 -159 -60 -260
q41 -11 166.5 -56.5t175.5 -45.5q161 0 187 170h147q-23 -147 -107.5 -231t-232.5 -84q-71 0 -158 31t-163.5 62t-122.5 31q-56 0 -88.5 -30.5t-42.5 -75.5h-144q14 82 74.5 155t152.5 87q58 94 58 231q0 44 -8 154h-170z" />
    <glyph glyph-name="yen.old" horiz-adv-x="1144" 
d="M168 559l18 115h310l-299 747h178l246 -645l434 645h174l-514 -747h309l-18 -115h-334l-25 -156h332l-18 -114h-332l-45 -289h-168l45 289h-336l18 114h334l25 156h-334z" />
    <glyph glyph-name="zero.old" horiz-adv-x="1316" 
d="M305 623q-10 -75 -10 -134q0 -170 82.5 -266t253.5 -96q163 0 263 112t134 330l12 78q11 65 11 141q0 169 -83 263t-241 94q-165 0 -270.5 -114t-139.5 -331zM623 -18q-241 0 -372.5 141t-131.5 375q0 64 10 139l12 78q42 267 201 419t389 152q242 0 370 -137.5
t128 -368.5q0 -76 -12 -149l-13 -78q-42 -268 -193.5 -419.5t-387.5 -151.5z" />
    <glyph glyph-name="one.old" horiz-adv-x="792" 
d="M309 0l172 1090l-360 -230l26 168l375 240h162l-201 -1268h-174z" />
    <glyph glyph-name="two.old" horiz-adv-x="1107" 
d="M-55 0l6 41l594 457q56 44 90.5 73t82.5 76t75 86.5t47 90.5t20 102q0 108 -62.5 164.5t-174.5 56.5q-258 0 -328 -313h-160q34 211 169 331.5t331 120.5q80 0 151.5 -22t129 -64.5t90.5 -112.5t32 -159q-1 -65 -23 -125t-47.5 -102t-87.5 -100.5t-101 -90t-130 -101.5
q-21 -16 -31 -24l-313 -242h641l-22 -143h-979z" />
    <glyph glyph-name="three.old" horiz-adv-x="1214" 
d="M532 -215q-220 0 -357 117.5t-140 333.5h164q15 -312 344 -312q150 0 242 80.5t92 231.5q0 129 -72.5 195.5t-210.5 66.5h-94l22 145h103q297 0 297 272q0 117 -70 173.5t-186 56.5q-130 0 -215.5 -73.5t-116.5 -207.5h-158q31 190 169 306t337 116q83 0 155.5 -22
t130.5 -65t92 -113.5t34 -161.5q0 -129 -67.5 -221.5t-201.5 -135.5q230 -76 230 -323q0 -137 -69.5 -242.5t-188 -161t-265.5 -55.5z" />
    <glyph glyph-name="four.old" horiz-adv-x="1263" 
d="M694 -199l51 316h-747l8 57l852 1092h238l-160 -1012h207l-21 -137h-207l-51 -316h-170zM240 254h526l139 872z" />
    <glyph glyph-name="five.old" horiz-adv-x="1165" 
d="M29 184h164q26 -260 294 -260q169 0 260 109t91 289q0 119 -69 201.5t-208 82.5q-110 0 -187.5 -34.5t-150.5 -102.5h-61l127 799h803l-25 -150h-661l-74 -467q117 94 276 94q183 0 296.5 -115.5t113.5 -295.5q0 -157 -62.5 -280.5t-185.5 -196t-289 -72.5
q-196 0 -318 102t-134 297z" />
    <glyph glyph-name="six.old" horiz-adv-x="1251" 
d="M596 -18q-97 0 -176 24.5t-133.5 67.5t-92 102.5t-54.5 129t-17 147.5q0 99 20 225l11 63q59 366 226.5 554t410.5 188q178 0 287.5 -89.5t119.5 -258.5h-168q-13 101 -73.5 153.5t-180.5 52.5q-163 0 -277.5 -142t-168.5 -439q62 81 158 126.5t217 45.5
q190 0 306.5 -115t116.5 -307q0 -227 -150 -377.5t-382 -150.5zM291 440q0 -144 78 -232.5t235 -88.5q151 0 247.5 109t96.5 272q0 129 -74.5 212t-218.5 83q-155 0 -259.5 -99.5t-104.5 -255.5z" />
    <glyph glyph-name="seven.old" horiz-adv-x="1071" 
d="M115 -199l772 1325h-735l20 140h958l-4 -25l-827 -1440h-184z" />
    <glyph glyph-name="eight.old" horiz-adv-x="1218" 
d="M563 -18q-91 0 -176 25.5t-153 73.5t-109 123.5t-41 168.5q0 160 97 269.5t247 148.5q-89 40 -137.5 112t-48.5 166q0 120 66 215.5t174.5 147t236.5 51.5q80 0 153 -22t132.5 -65t95 -113.5t35.5 -160.5q0 -253 -283 -350q111 -46 174.5 -130t63.5 -196
q0 -107 -43 -195.5t-116 -146.5t-168 -90t-200 -32zM264 387q0 -116 82.5 -189t226.5 -73q66 0 125.5 20t107 58.5t75.5 100.5t28 140q0 117 -79 190t-218 73q-147 0 -247.5 -85t-100.5 -235zM418 1067q0 -98 72 -159.5t190 -61.5q119 0 198.5 71.5t79.5 198.5
q0 101 -67.5 165.5t-181.5 64.5q-125 0 -208 -75t-83 -204z" />
    <glyph glyph-name="nine.old" horiz-adv-x="1251" 
d="M688 1286q119 0 211 -37t147 -103t83 -150t28 -183q0 -106 -16 -207l-11 -63q-121 -758 -636 -758q-192 0 -302.5 93.5t-123.5 275.5h168q28 -228 262 -228q180 0 288 136.5t164 445.5q-62 -81 -158 -126.5t-217 -45.5q-190 0 -306.5 115t-116.5 307q0 226 153 377
t383 151zM989 836q0 143 -76 228t-233 85q-151 0 -249.5 -109t-98.5 -272q0 -129 74.5 -212t218.5 -83q154 0 259 103t105 260z" />
    <glyph glyph-name="dollar.tab" 
d="M596 -18h-10l-41 -258h-121l41 268q-103 16 -184 59.5t-131 105t-76 135t-27 154.5h172q5 -114 70.5 -200t197.5 -113l91 561q-194 62 -282.5 147t-88.5 236q0 109 61.5 201t175.5 148t258 57l29 182h121l-31 -192q165 -27 262 -129t101 -265h-160q-19 207 -225 252
l-82 -514q105 -33 176.5 -67t122.5 -80t74.5 -105t23.5 -137q0 -197 -140 -321.5t-378 -124.5zM942 412q0 93 -52.5 147t-197.5 100l-84 -536q159 1 246.5 79t87.5 210zM375 1083q0 -80 47.5 -130.5t179.5 -98.5l78 487q-149 -1 -227 -73.5t-78 -184.5z" />
    <glyph glyph-name="Euro.tab" 
d="M72 807l18 119h129q51 270 192.5 413.5t356.5 143.5q201 0 308.5 -116t109.5 -327h-168q-5 144 -63 223.5t-191 79.5q-150 0 -238.5 -100.5t-128.5 -316.5h447l-41 -119h-426l-25 -160h396l-41 -119h-371q-7 -86 1.5 -153t38 -125.5t93 -90.5t158.5 -32q127 0 211.5 76.5
t128.5 251.5h163q-28 -127 -77.5 -220t-116.5 -147.5t-144 -80t-167 -25.5q-246 0 -364 145.5t-99 400.5h-133l18 119h129l25 160h-129z" />
    <glyph glyph-name="sterling.tab" 
d="M117 645l20 127h144q-9 91 -9 193q0 108 30.5 200.5t90 164t155.5 112.5t218 41q191 0 302 -98.5t112 -288.5h-174q-7 115 -64 178t-184 63q-84 0 -146 -29.5t-96.5 -82.5t-50.5 -118t-16 -144q0 -69 4 -191h432l-21 -127h-403q2 -43 2 -141q0 -165 -62 -268
q46 -11 174 -58t179 -47q166 0 192 176h152q-23 -152 -110 -238.5t-240 -86.5q-58 0 -127.5 20t-122.5 44.5t-112 44.5t-97 20q-57 0 -91 -32t-44 -79h-148q14 85 77.5 160.5t158.5 89.5q57 96 57 237q0 44 -8 158h-174z" />
    <glyph glyph-name="yen.tab" 
d="M201 575l18 119h322l-291 770h186l232 -663l428 663h178l-514 -770h321l-18 -119h-344l-25 -159h342l-18 -119h-342l-47 -297h-174l47 297h-346l18 119h346l25 159h-344z" />
    <glyph glyph-name="zero.tab" 
d="M299 621q-14 -96 -14 -162q0 -330 286 -330q163 0 251 104.5t126 346.5l41 258q15 103 15 163q0 338 -281 338q-161 0 -253.5 -112t-129.5 -348zM571 -18q-226 0 -345 130t-117 343q0 84 14 180l41 258q47 295 190 442.5t371 147.5q118 0 206 -35t141.5 -99.5
t79.5 -150.5t26 -194q0 -88 -15 -183l-41 -258q-47 -293 -184 -437t-367 -144z" />
    <glyph glyph-name="one.tab" 
d="M557 0l203 1278l-477 -330l26 172l475 344h183l-232 -1464h-178z" />
    <glyph glyph-name="two.tab" 
d="M-16 0l6 41l698 606q123 107 195.5 216t72.5 237q0 101 -60.5 170t-172.5 69q-130 2 -218 -73t-130 -252h-168q37 232 178 351.5t348 117.5q173 0 288.5 -102t115.5 -277q0 -86 -27.5 -164.5t-82.5 -151t-113 -130t-144 -130.5l-453 -383h691l-23 -145h-1001z" />
    <glyph glyph-name="three.tab" 
d="M553 -18q-226 0 -360 122t-134 328h168q3 -137 84.5 -222t249.5 -85q166 0 256 80.5t90 243.5q0 112 -69.5 177.5t-210.5 65.5h-95l25 150h127q126 0 205.5 65.5t79.5 200.5q0 108 -66 168.5t-182 60.5q-134 0 -224 -70.5t-122 -205.5h-158q28 189 170.5 305.5
t343.5 116.5q79 0 151.5 -22.5t132 -65.5t95 -116t35.5 -165q0 -126 -74.5 -220.5t-204.5 -131.5q107 -34 165.5 -115t58.5 -198q0 -214 -149 -340.5t-388 -126.5z" />
    <glyph glyph-name="four.tab" 
d="M711 0l47 307h-713l10 58l819 1099h242l-160 -1011h172l-24 -146h-172l-47 -307h-174zM299 453h483l136 860z" />
    <glyph glyph-name="five.tab" 
d="M543 -18q-201 0 -327.5 107t-135.5 306h172q8 -128 80 -199t213 -71q167 0 264.5 109.5t97.5 297.5q0 132 -73.5 210.5t-217.5 78.5q-109 0 -189 -37t-151 -104h-65l125 784h823l-24 -153h-676l-70 -439q120 93 287 93q186 0 301 -117t115 -307q0 -158 -68.5 -285
t-194.5 -200.5t-286 -73.5z" />
    <glyph glyph-name="six.tab" 
d="M594 -18q-237 0 -362.5 130t-125.5 375q0 66 19 199l10 64q18 113 49 213t84.5 197.5t123.5 167t171.5 112.5t222.5 43q189 0 294.5 -94t113.5 -261h-168q-11 101 -68.5 155t-181.5 54q-82 0 -151 -32t-118.5 -85t-88.5 -128t-63.5 -154.5t-41.5 -171.5q66 86 164.5 135
t214.5 49q189 0 311.5 -117.5t122.5 -308.5q0 -113 -39 -212.5t-108 -172.5t-169 -115t-216 -42zM281 432q0 -135 80 -223t235 -88q156 0 252 112.5t96 282.5q0 128 -76.5 211.5t-226.5 83.5q-157 0 -258.5 -105t-101.5 -274z" />
    <glyph glyph-name="seven.tab" 
d="M252 0l731 1321h-756l23 143h985l-4 -24l-797 -1440h-182z" />
    <glyph glyph-name="eight.tab" 
d="M578 -18q-93 0 -178.5 26t-155 74t-111 126t-41.5 173q0 157 91.5 268t246.5 156q-84 38 -132 112t-48 162q0 117 64.5 210t172.5 143.5t238 50.5q108 0 203 -42.5t157 -127.5t62 -195q0 -243 -273 -332q106 -43 169 -133.5t63 -203.5q0 -146 -73 -253.5t-191 -160.5
t-264 -53zM274 403q0 -125 89 -200.5t225 -75.5q152 0 244 84t92 235q0 122 -84 196.5t-213 74.5q-156 0 -254.5 -82.5t-98.5 -231.5zM428 1085q0 -97 74 -162t192 -65q117 0 196 63t79 189q0 100 -72 166.5t-186 66.5q-120 0 -201.5 -67t-81.5 -191z" />
    <glyph glyph-name="nine.tab" 
d="M518 -16q-123 0 -217.5 38t-156.5 124t-72 214h174q18 -126 87.5 -178.5t198.5 -52.5q169 0 282.5 140.5t158.5 418.5q-61 -82 -160.5 -127t-216.5 -45q-182 0 -307 114.5t-125 309.5q0 154 69.5 278.5t195.5 195.5t284 71q226 0 344.5 -130.5t120.5 -367.5
q0 -100 -17 -205l-14 -90q-58 -356 -217 -532t-412 -176zM346 948q0 -132 72 -212.5t203 -80.5q169 0 278 97.5t109 279.5q0 63 -17 117.5t-51.5 99.5t-94.5 71t-138 26q-159 0 -260 -112t-101 -286z" />
    <glyph glyph-name="cent.tab" 
d="M459 -276l43 270q-177 32 -278 158t-101 315q0 141 46 259t123 194.5t175.5 120t206.5 46.5l33 201h120l-32 -209q146 -25 236.5 -117.5t96.5 -250.5h-161q-8 186 -195 227l-129 -815q110 3 190 67t109 191h162q-41 -192 -171.5 -293.5t-311.5 -103.5l-41 -260h-121z
M297 467q0 -283 227 -334l127 811q-155 -11 -254.5 -137t-99.5 -340z" />
    <glyph glyph-name="percent.tab" horiz-adv-x="1638" 
d="M328 1096q0 -49 13.5 -87.5t52 -66t98.5 -27.5q89 0 141.5 68t52.5 174q0 78 -38.5 133.5t-123.5 55.5q-95 0 -145.5 -70.5t-50.5 -179.5zM487 784q-139 0 -227 91.5t-88 228.5q0 151 104.5 262t253.5 111q141 0 226.5 -93t85.5 -233q0 -149 -103.5 -258t-251.5 -109z
M207 0l1120 1464h162l-1120 -1464h-162zM1008 295q0 -36 8 -66.5t25.5 -57t50.5 -41.5t79 -15q89 0 142 67.5t53 173.5q0 78 -38.5 133.5t-123.5 55.5q-95 0 -145.5 -70.5t-50.5 -179.5zM1167 -16q-139 0 -227 91t-88 228q0 151 104.5 262t253.5 111q141 0 226.5 -93
t85.5 -233q0 -149 -103.5 -257.5t-251.5 -108.5z" />
    <glyph glyph-name="perthousand.tab" horiz-adv-x="2048" 
d="M330 1075q0 -64 27.5 -100.5t80.5 -36.5q44 0 76.5 26t49 67.5t24.5 84t8 84.5q0 67 -26.5 107.5t-80.5 40.5q-44 0 -76.5 -26t-49.5 -68.5t-25 -87.5t-8 -91zM434 809q-111 0 -183 73.5t-71 200.5q1 100 35 187.5t107 147t172 59.5q112 0 181.5 -73t69.5 -204
q0 -67 -19 -134t-56 -125.5t-98.5 -95t-137.5 -36.5zM100 0l1121 1464h161l-1120 -1464h-162zM879 250q0 -64 27.5 -100.5t80.5 -36.5q44 0 76.5 26t49 67.5t24.5 84t8 84.5q0 67 -26.5 107t-80.5 40q-44 0 -76.5 -26t-49.5 -68.5t-25 -87t-8 -90.5zM983 -16
q-111 0 -183 73.5t-71 200.5q1 100 35 187.5t106.5 146.5t171.5 59q112 0 182 -72.5t70 -203.5q0 -67 -19 -134t-56 -125.5t-98.5 -95t-137.5 -36.5zM1511 250q0 -64 28 -100.5t81 -36.5q44 0 76.5 26t49 67.5t24.5 84t8 84.5q0 67 -26.5 107t-80.5 40q-44 0 -76.5 -26
t-50 -68.5t-25.5 -87t-8 -90.5zM1616 -16q-111 0 -183 73.5t-71 200.5q1 100 35 187.5t106.5 146.5t171.5 59q112 0 182 -72.5t70 -203.5q0 -67 -19 -134t-56 -125.5t-98.5 -95t-137.5 -36.5z" />
    <glyph glyph-name="plus.tab" 
d="M487 215l66 414h-383l23 143h382l66 414h150l-66 -414h383l-23 -143h-383l-65 -414h-150z" />
    <glyph glyph-name="minus.tab" 
d="M170 629l23 143h915l-23 -143h-915z" />
    <glyph glyph-name="multiply.tab" 
d="M276 268l-88 103l353 315l-271 313l103 97l274 -316l352 316l93 -103l-357 -317l275 -314l-107 -94l-272 314z" />
    <glyph glyph-name="divide.tab" 
d="M170 629l23 143h915l-23 -143h-915zM590 182q-54 0 -92.5 38t-38.5 93t38.5 93t92.5 38t92.5 -38t38.5 -93t-38.5 -93t-92.5 -38zM688 956q-54 0 -92.5 38t-38.5 93t38.5 93.5t92.5 38.5t92.5 -38.5t38.5 -93.5t-38.5 -93t-92.5 -38z" />
    <glyph glyph-name="equal.tab" 
d="M178 401l23 148h827l-22 -148h-828zM236 770l22 148h827l-22 -148h-827z" />
    <glyph glyph-name="less.tab" 
d="M938 195l-717 452l6 41l856 436l-24 -168l-590 -292l494 -310z" />
    <glyph glyph-name="greater.tab" 
d="M326 1124l716 -452l-6 -41l-856 -436l25 172l590 292l-494 310z" />
    <glyph glyph-name="florin.tab" 
d="M260 707l23 139h227l55 289q32 174 135 261t250 87q102 0 162 -33l-20 -133q-60 24 -140 24q-83 0 -140.5 -52.5t-78.5 -162.5l-53 -280h301l-23 -139h-303l-202 -1080h-170l202 1080h-225z" />
    <glyph glyph-name="plusminus.tab" 
d="M500 297l59 373h-383l23 143h383l59 373h150l-60 -373h383l-22 -143h-383l-60 -373h-149zM72 0l22 143h916l-23 -143h-915z" />
    <glyph glyph-name="notequal.tab" 
d="M236 770l22 148h430l107 210h155l-106 -210h241l-22 -148h-293l-113 -221h371l-22 -148h-422l-105 -211h-155l104 211h-250l23 148h301l112 221h-378z" />
    <glyph glyph-name="approxequal.tab" 
d="M231 702q19 118 86 181t156 63q77 0 207 -45t180 -45q36 0 66 24t37 70h129q-19 -120 -85 -181.5t-151 -61.5q-65 0 -140 22.5t-141.5 45t-109.5 22.5q-35 0 -64 -25t-41 -70h-129zM172 340q19 118 86 181t156 63q77 0 207 -45t180 -45q36 0 65.5 24t36.5 70h129
q-19 -120 -84.5 -182t-150.5 -62q-65 0 -140 22.5t-141.5 45t-109.5 22.5q-36 0 -64.5 -24.5t-40.5 -69.5h-129z" />
    <glyph glyph-name="lessequal.tab" 
d="M944 244l-719 426l6 41l852 413l-26 -170l-576 -270l488 -283zM121 0l22 143h787l-23 -143h-786z" />
    <glyph glyph-name="greaterequal.tab" 
d="M150 0l22 143h786l-22 -143h-786zM326 1124l718 -426l-6 -41l-852 -413l27 170l575 270l-487 283z" />
    <glyph glyph-name="parenleft.tab" horiz-adv-x="614" 
d="M258 -303q-76 157 -118 321t-42 394q0 312 119 611t328 560h174q-206 -263 -324.5 -562t-118.5 -601q-3 -396 148 -723h-166z" />
    <glyph glyph-name="parenright.tab" horiz-adv-x="614" 
d="M385 1583q76 -157 118 -321t42 -394q0 -312 -119 -611t-328 -560h-174q206 263 324.5 562t118.5 601q3 396 -148 723h166z" />
    <glyph glyph-name="bracketleft.tab" horiz-adv-x="614" 
d="M8 -303l299 1892h398l-21 -135h-227l-256 -1622h227l-22 -135h-398z" />
    <glyph glyph-name="bracketright.tab" horiz-adv-x="614" 
d="M-61 -303l22 135h227l256 1622h-227l21 135h397l-299 -1892h-397z" />
    <glyph glyph-name="braceleft.tab" horiz-adv-x="614" 
d="M406 -301q-208 7 -280 124t1 322l74 201q38 92 7.5 155t-145.5 97l19 125q124 25 170.5 80t44.5 145v252q-4 215 99.5 305t312.5 88l-21 -127q-125 0 -177 -56.5t-52 -215.5l-4 -242q0 -64 -17 -113.5t-50.5 -84t-75 -57.5t-99.5 -42q106 -44 146 -117t-3 -202l-67 -197
q-55 -164 -24 -233.5t161 -77.5z" />
    <glyph glyph-name="braceright.tab" horiz-adv-x="614" 
d="M240 1593q208 -7 279.5 -124t-1.5 -322l-74 -201q-38 -92 -7.5 -155t145.5 -97l-19 -125q-124 -25 -170.5 -80t-44.5 -145v-252q4 -215 -99.5 -305t-311.5 -88l20 127q125 0 177 56.5t52 215.5l4 242q0 64 17 113.5t50.5 84t75 57.5t99.5 42q-106 44 -146 117t3 202
l67 197q55 164 24 233.5t-161 77.5z" />
    <glyph glyph-name="period.tab" horiz-adv-x="614" 
d="M240 -10q-54 0 -92.5 38t-38.5 93t37.5 93t91.5 38q55 0 94 -38t39 -93t-38.5 -93t-92.5 -38z" />
    <glyph glyph-name="comma.tab" horiz-adv-x="614" 
d="M94 -252l-102 57l241 449l154 -78z" />
    <glyph glyph-name="colon.tab" horiz-adv-x="614" 
d="M240 -10q-54 0 -92.5 38t-38.5 93t37.5 93t91.5 38q55 0 94 -38t39 -93t-38.5 -93t-92.5 -38zM338 598q-54 0 -92.5 38t-38.5 93t37.5 93t91.5 38q55 0 94 -38t39 -93t-38.5 -93t-92.5 -38z" />
    <glyph glyph-name="semicolon.tab" horiz-adv-x="614" 
d="M63 -252l-102 57l242 449l153 -78zM354 598q-54 0 -92.5 38t-38.5 93t37.5 93t91.5 38q55 0 94 -38t39 -93t-38.5 -93t-92.5 -38z" />
    <glyph glyph-name="space.tab" horiz-adv-x="614" 
 />
    <glyph glyph-name="dollar.oldtab" 
d="M596 -16h-10l-39 -252h-119l41 262q-200 31 -305 152t-107 286h168q2 -53 18 -100t46.5 -89t81.5 -72.5t118 -43.5l86 545q-189 60 -275.5 142.5t-86.5 229.5q0 107 60 196.5t171.5 143t251.5 54.5l29 178h119l-31 -186q161 -25 255.5 -124t98.5 -259h-155
q-19 204 -219 245l-80 -499q207 -66 299 -150t92 -231q0 -191 -138 -309.5t-370 -118.5zM932 395q0 92 -51 145t-193 99l-82 -522q155 1 240.5 75t85.5 203zM379 1051q0 -78 46 -127t175 -95l76 474q-145 -1 -221 -72t-76 -180z" />
    <glyph glyph-name="Euro.oldtab" 
d="M102 782l19 115h125q47 262 184.5 401.5t347.5 139.5q195 0 299.5 -112t106.5 -316h-164q-2 67 -15.5 118t-41 91.5t-75.5 62t-114 21.5q-145 0 -231.5 -99t-124.5 -307h434l-41 -115h-412l-24 -153h383l-41 -115h-357q-4 -62 -2.5 -119.5t19.5 -107t48.5 -86t85.5 -57.5
t130 -21q122 0 204.5 74.5t125.5 242.5h157q-51 -240 -179.5 -349t-309.5 -109q-239 0 -354 141.5t-97 390.5h-129l19 115h125l24 153h-125z" />
    <glyph glyph-name="sterling.oldtab" 
d="M127 627l20 123h140q-8 79 -8 186q0 105 29.5 194.5t87 159t150.5 109t212 39.5q185 0 292.5 -95.5t108.5 -279.5h-170q-7 111 -61.5 172t-177.5 61q-82 0 -142 -28.5t-94 -80t-49.5 -114t-15.5 -139.5q0 -70 4 -184h419l-20 -123h-391q2 -43 2 -138q0 -159 -60 -260
q41 -11 166.5 -56.5t175.5 -45.5q161 0 187 170h147q-23 -147 -107.5 -231t-232.5 -84q-71 0 -158 31t-163.5 62t-122.5 31q-56 0 -88.5 -30.5t-42.5 -75.5h-144q14 82 75 155t153 87q57 92 57 231q0 44 -8 154h-170z" />
    <glyph glyph-name="yen.oldtab" 
d="M209 559l18 115h312l-285 747h180l230 -645l417 645h172l-499 -747h311l-18 -115h-334l-25 -156h334l-18 -114h-334l-45 -289h-168l45 289h-334l18 114h332l25 156h-334z" />
    <glyph glyph-name="zero.oldtab" 
d="M295 551q-10 -72 -10 -125q3 -299 284 -299q155 1 243 98t118 285l33 209q10 72 10 115q-2 149 -73.5 230t-203.5 81q-153 0 -246 -101.5t-122 -283.5zM563 -18q-213 0 -333.5 123t-120.5 321q0 79 8 131l33 209q37 239 186 379.5t369 140.5q142 0 244 -61t151 -161.5
t49 -227.5q0 -61 -10 -129l-33 -209q-38 -246 -180.5 -381t-362.5 -135z" />
    <glyph glyph-name="one.oldtab" 
d="M567 0l172 1087l-465 -299l25 170l481 310h162l-201 -1268h-174z" />
    <glyph glyph-name="two.oldtab" 
d="M2 0l6 41l594 457q56 44 90.5 72.5t82.5 76t75.5 87t47.5 90.5t20 102q0 108 -63 164.5t-175 56.5q-258 0 -328 -313h-159q34 211 168.5 331.5t330.5 120.5q80 0 151.5 -22t129.5 -64.5t91 -112.5t32 -159q-1 -65 -23 -125t-47.5 -102t-87.5 -100.5t-101 -90t-130 -101.5
q-21 -16 -31 -24l-314 -242h642l-23 -143h-979z" />
    <glyph glyph-name="three.oldtab" 
d="M545 -215q-220 0 -357.5 117.5t-140.5 333.5h164q15 -312 344 -312q150 0 242 80.5t92 231.5q0 129 -72.5 195.5t-210.5 66.5h-94l23 145h102q297 0 297 272q0 117 -70 173.5t-186 56.5q-130 0 -215.5 -73.5t-116.5 -207.5h-158q31 190 169 306t337 116q83 0 155.5 -22
t130.5 -65t92 -113.5t34 -161.5q0 -129 -67 -221.5t-201 -135.5q229 -75 229 -323q0 -137 -69.5 -242.5t-187.5 -161t-265 -55.5z" />
    <glyph glyph-name="four.oldtab" 
d="M672 -199l51 316h-707l9 57l806 1092h242l-160 -1012h193l-21 -137h-192l-51 -316h-170zM252 254h491l140 872z" />
    <glyph glyph-name="five.oldtab" 
d="M70 184h163q26 -260 295 -260q169 0 260 109t91 289q0 119 -69 201.5t-208 82.5q-110 0 -187.5 -34.5t-150.5 -102.5h-61l127 799h803l-25 -150h-662l-73 -467q117 94 276 94q183 0 296.5 -115.5t113.5 -295.5q0 -157 -62.5 -280.5t-185.5 -196t-289 -72.5
q-196 0 -318 102t-134 297z" />
    <glyph glyph-name="six.oldtab" 
d="M584 -18q-117 0 -206 37t-142 102.5t-79 148.5t-26 181q0 95 21 227l10 63q29 182 89 324.5t141.5 233t180 137.5t209.5 47q190 0 296 -88t116 -260h-168q-13 102 -70.5 154t-177.5 52q-151 0 -269 -144.5t-171 -436.5q132 172 364 172q188 0 297 -114t109 -308
q0 -227 -147.5 -377.5t-376.5 -150.5zM299 440q0 -146 70.5 -233.5t222.5 -87.5q148 0 242 109t94 272q0 132 -66.5 213.5t-208.5 81.5q-154 0 -254 -99t-100 -256z" />
    <glyph glyph-name="seven.oldtab" 
d="M186 -199l772 1325h-735l21 140h958l-4 -25l-827 -1440h-185z" />
    <glyph glyph-name="eight.oldtab" 
d="M573 -18q-88 0 -170 25.5t-148 73.5t-106 123.5t-40 168.5q0 160 94 268t243 147q-87 40 -133.5 112.5t-46.5 168.5q0 120 64 215.5t169.5 147t229.5 51.5q77 0 147.5 -22t128 -65t91.5 -113.5t34 -160.5q0 -257 -276 -352q110 -45 170.5 -128t60.5 -196
q0 -107 -42 -195.5t-113 -146.5t-163 -90t-194 -32zM287 387q0 -116 79 -189t218 -73q64 0 121 20t102.5 58.5t72.5 100.5t27 140q0 117 -74.5 190t-209.5 73q-142 0 -239 -85t-97 -235zM440 1067q0 -98 68 -159.5t182 -61.5q115 0 190.5 71.5t75.5 198.5q0 102 -63.5 166
t-173.5 64q-121 0 -200 -74.5t-79 -204.5z" />
    <glyph glyph-name="nine.oldtab" 
d="M655 1286q116 0 205 -37.5t142.5 -104.5t80.5 -154.5t27 -192.5q0 -90 -16 -191l-11 -63q-62 -389 -217.5 -573.5t-406.5 -184.5q-192 0 -302.5 93.5t-123.5 275.5h168q28 -228 262 -228q181 0 282 134.5t158 447.5q-132 -172 -362 -172q-184 0 -298 115t-114 307
q0 148 70.5 269.5t191 190t264.5 68.5zM942 836q0 144 -71.5 228.5t-223.5 84.5q-144 0 -241 -109.5t-97 -271.5q0 -132 70.5 -213.5t210.5 -81.5q149 0 250.5 103t101.5 260z" />
    <glyph glyph-name="zero.num" horiz-adv-x="716" 
d="M283 1032q0 -71 33.5 -120.5t109.5 -49.5q65 0 108.5 50.5t60.5 122t17 157.5q0 69 -34 120.5t-103 51.5q-55 0 -95 -33t-60 -87t-28.5 -106.5t-8.5 -105.5zM422 754q-131 0 -204 76.5t-73 207.5q0 85 21 162t61 138.5t104.5 98t145.5 36.5q127 0 200 -76.5t73 -212.5
q0 -118 -33 -212.5t-109 -156t-186 -61.5z" />
    <glyph glyph-name="one.num" horiz-adv-x="473" 
d="M250 764l88 561l-182 -111l18 125l203 125h123l-111 -700h-139z" />
    <glyph glyph-name="two.num" horiz-adv-x="585" 
d="M49 764l4 24l303 269q82 72 115 116.5t33 100.5q0 44 -27 68t-67 24q-106 0 -138 -135h-127q18 113 93 177.5t180 64.5q93 0 158 -49.5t65 -147.5q0 -40 -11 -72.5t-42.5 -70t-58.5 -62.5t-89 -80l-141 -123h283l-17 -104h-516z" />
    <glyph glyph-name="three.num" horiz-adv-x="636" 
d="M375 754q-54 0 -99 12t-83 37.5t-59.5 71t-22.5 106.5h129q3 -57 36.5 -91t96.5 -34q56 0 95.5 31t39.5 90q0 100 -113 100h-49l14 97h56q57 0 90 26t33 76q0 94 -101 94q-54 0 -90.5 -30t-48.5 -83h-123q12 99 87 157.5t179 58.5q101 0 165.5 -45t64.5 -140
q0 -57 -36.5 -100.5t-100.5 -63.5q51 -11 82.5 -50t31.5 -103q0 -100 -80.5 -158.5t-193.5 -58.5z" />
    <glyph glyph-name="four.num" horiz-adv-x="649" 
d="M420 764l22 141h-352l8 49l394 510h172l-74 -458h94l-16 -101h-93l-22 -141h-133zM258 1006h203l53 346z" />
    <glyph glyph-name="five.num" horiz-adv-x="618" 
d="M356 754q-71 0 -123.5 19t-88 68t-38.5 126h130q10 -107 120 -107q59 0 95 41.5t36 112.5q0 116 -118 116q-82 0 -138 -59h-71l71 393h431l-17 -106h-326l-30 -176q53 49 141 49q87 0 143.5 -55.5t55.5 -151.5q-1 -123 -75.5 -195.5t-197.5 -74.5z" />
    <glyph glyph-name="six.num" horiz-adv-x="655" 
d="M395 754q-117 0 -183.5 67.5t-68.5 184.5q0 18 9 92l4 26q26 166 113 257.5t214 91.5q93 0 153 -46.5t66 -140.5h-124q-15 82 -103 82q-137 0 -182 -223q63 76 172 76q85 0 147 -54t62 -145q0 -121 -77.5 -194.5t-201.5 -73.5zM276 977q0 -51 32 -87t91 -36q60 0 99 42
t39 112q0 53 -29 85.5t-88 32.5q-61 0 -102.5 -40t-41.5 -109z" />
    <glyph glyph-name="seven.num" horiz-adv-x="548" 
d="M164 764l313 588h-327l18 112h506l-4 -16l-361 -684h-145z" />
    <glyph glyph-name="eight.num" horiz-adv-x="641" 
d="M381 754q-105 0 -179.5 49t-74.5 147q0 146 158 195q-39 19 -61.5 53t-22.5 76q0 90 74 144.5t176 54.5q56 0 105.5 -18t85.5 -60.5t36 -102.5q0 -110 -123 -157q102 -47 102 -158q0 -105 -79.5 -164t-196.5 -59zM266 965q0 -48 31 -78.5t90 -30.5q56 0 94.5 31t38.5 92
q0 52 -31.5 82.5t-87.5 30.5t-95.5 -33.5t-39.5 -93.5zM332 1270q0 -41 28.5 -65.5t71.5 -24.5q53 0 84 26.5t31 77.5q0 39 -29 64.5t-76 25.5t-78.5 -27.5t-31.5 -76.5z" />
    <glyph glyph-name="nine.num" horiz-adv-x="655" 
d="M438 1475q117 0 182.5 -63.5t67.5 -170.5q0 -57 -8 -123l-4 -26q-53 -338 -320 -338q-104 0 -166.5 47t-66.5 147h125q6 -45 32 -66.5t85 -21.5q136 0 176 223q-62 -75 -172 -75q-85 0 -147 53.5t-62 144.5q0 118 79.5 193.5t198.5 75.5zM557 1251q0 52 -31 87.5
t-90 35.5q-58 0 -98.5 -41.5t-40.5 -111.5q0 -54 28 -86.5t89 -32.5t102 40t41 109z" />
    <glyph glyph-name="zero.den" horiz-adv-x="716" 
d="M162 268q0 -71 33.5 -120.5t109.5 -49.5q49 0 86.5 28.5t58.5 77t31.5 105t10.5 119.5q0 69 -34.5 120.5t-103.5 51.5q-55 0 -95 -33t-60 -87t-28.5 -106.5t-8.5 -105.5zM301 -10q-130 0 -203 76.5t-73 207.5q0 116 35 212t112 159.5t184 63.5q127 0 200 -76.5t73 -212.5
q0 -118 -33 -212.5t-109 -156t-186 -61.5z" />
    <glyph glyph-name="one.den" horiz-adv-x="473" 
d="M129 0l88 561l-182 -110l18 124l203 125h123l-111 -700h-139z" />
    <glyph glyph-name="two.den" horiz-adv-x="585" 
d="M-72 0l4 25l304 268q82 72 114.5 116.5t32.5 100.5q0 44 -27 68t-67 24q-105 0 -137 -135h-127q18 113 92.5 177.5t179.5 64.5q93 0 158 -49.5t65 -147.5q0 -40 -11 -72.5t-42.5 -70t-58.5 -62.5t-89 -80l-141 -123h283l-17 -104h-516z" />
    <glyph glyph-name="three.den" horiz-adv-x="636" 
d="M254 -10q-54 0 -99 12t-83 37.5t-59.5 71t-22.5 106.5h129q3 -57 36.5 -91t96.5 -34q56 0 95.5 31t39.5 90q0 100 -113 100h-49l15 97h55q57 0 90 26t33 76q0 94 -101 94q-54 0 -90.5 -29.5t-48.5 -82.5h-123q12 99 87.5 157t179.5 58q101 0 165 -45t64 -140
q0 -57 -36.5 -100.5t-100.5 -63.5q51 -11 82.5 -50t31.5 -103q0 -100 -80.5 -158.5t-193.5 -58.5z" />
    <glyph glyph-name="four.den" horiz-adv-x="649" 
d="M299 0l23 141h-353l8 49l394 510h172l-74 -458h94l-16 -101h-92l-23 -141h-133zM137 242h203l53 346z" />
    <glyph glyph-name="five.den" horiz-adv-x="618" 
d="M236 -10q-71 0 -123.5 19t-88 68t-38.5 126h129q10 -107 121 -107q59 0 95 41.5t36 112.5q0 117 -119 117q-80 0 -137 -60h-72l72 393h430l-17 -106h-325l-31 -176q53 49 141 49q87 0 143.5 -55.5t55.5 -151.5q-1 -123 -75 -195.5t-197 -74.5z" />
    <glyph glyph-name="six.den" horiz-adv-x="655" 
d="M274 -10q-117 0 -183 67.5t-68 184.5q0 26 8 92l4 26q26 166 113 257.5t214 91.5q93 0 153.5 -46.5t66.5 -140.5h-125q-15 82 -103 82q-137 0 -182 -223q63 76 172 76q85 0 147 -54t62 -145q0 -121 -77.5 -194.5t-201.5 -73.5zM156 213q0 -51 32 -87t91 -36
q60 0 98.5 41.5t38.5 112.5q0 53 -29 85.5t-88 32.5q-61 0 -102 -40t-41 -109z" />
    <glyph glyph-name="seven.den" horiz-adv-x="548" 
d="M43 0l313 588h-327l18 112h506l-4 -16l-361 -684h-145z" />
    <glyph glyph-name="eight.den" horiz-adv-x="641" 
d="M260 -10q-105 0 -179.5 49t-74.5 147q0 146 158 195q-39 19 -61.5 53t-22.5 76q0 90 74 144.5t176 54.5q56 0 105.5 -18t85.5 -60.5t36 -102.5q0 -110 -123 -157q103 -47 103 -158q0 -105 -80 -164t-197 -59zM145 201q0 -48 31 -78.5t90 -30.5q56 0 94.5 31t38.5 92
q0 52 -31 82.5t-87 30.5t-96 -33.5t-40 -93.5zM211 506q0 -41 28.5 -65.5t71.5 -24.5q53 0 84 26.5t31 77.5q0 39 -28.5 64.5t-75.5 25.5t-79 -27.5t-32 -76.5z" />
    <glyph glyph-name="nine.den" horiz-adv-x="655" 
d="M317 711q117 0 182.5 -63.5t67.5 -170.5q0 -57 -8 -123l-4 -26q-53 -338 -319 -338q-104 0 -167 47t-67 147h125q6 -45 32 -66.5t85 -21.5q136 0 176 223q-62 -75 -172 -75q-85 0 -147 53.5t-62 144.5q0 118 79.5 193.5t198.5 75.5zM436 487q0 52 -31 87.5t-90 35.5
q-58 0 -98.5 -41.5t-40.5 -111.5q0 -54 28 -86.5t89 -32.5t102 40t41 109z" />
    <glyph glyph-name="zero.sub" horiz-adv-x="716" 
d="M133 90q0 -71 33.5 -120.5t109.5 -49.5q49 0 86.5 28.5t58.5 77t31.5 105t10.5 119.5q0 69 -34 120.5t-103 51.5q-55 0 -95.5 -33.5t-60 -87t-28.5 -106t-9 -105.5zM272 -188q-130 0 -203 76.5t-73 207.5q0 115 35.5 211.5t112.5 159.5t184 63q127 0 199.5 -76t72.5 -212
q0 -118 -33 -212.5t-109 -156t-186 -61.5z" />
    <glyph glyph-name="one.sub" horiz-adv-x="473" 
d="M100 -178l88 561l-182 -111l19 125l202 125h123l-110 -700h-140z" />
    <glyph glyph-name="two.sub" horiz-adv-x="585" 
d="M-100 -178l4 24l303 269q82 72 114.5 116.5t32.5 100.5q0 44 -27 68t-67 24q-105 0 -137 -135h-127q18 113 92.5 177t179.5 64q60 0 109 -19t82 -65t33 -112q0 -40 -11 -72.5t-42.5 -70t-58.5 -62.5t-89 -80l-141 -123h282l-16 -104h-516z" />
    <glyph glyph-name="three.sub" horiz-adv-x="636" 
d="M225 -188q-54 0 -99 12t-83 37.5t-59.5 71t-22.5 106.5h129q3 -57 36.5 -91t96.5 -34q56 0 95.5 31t39.5 90q0 100 -112 100h-49l14 96h55q57 0 90 26.5t33 76.5q0 94 -100 94q-54 0 -90.5 -30t-48.5 -83h-123q12 99 87 157t179 58q101 0 165 -44.5t64 -139.5
q0 -57 -36.5 -100.5t-100.5 -63.5q51 -11 83 -50t32 -103q0 -100 -81 -158.5t-194 -58.5z" />
    <glyph glyph-name="four.sub" horiz-adv-x="649" 
d="M270 -178l23 141h-352l8 49l393 510h172l-74 -459h95l-17 -100h-92l-23 -141h-133zM109 63h202l54 347z" />
    <glyph glyph-name="five.sub" horiz-adv-x="618" 
d="M207 -188q-71 0 -123.5 19t-88 68t-38.5 126h129q10 -107 121 -107q59 0 95 41.5t36 112.5q0 116 -119 116q-81 0 -137 -59h-72l72 393h430l-16 -106h-326l-31 -176q53 49 142 49q87 0 143 -55t55 -152q-1 -123 -75 -195.5t-197 -74.5z" />
    <glyph glyph-name="six.sub" horiz-adv-x="655" 
d="M246 -188q-118 0 -184 67.5t-68 183.5q0 27 8 93l4 26q26 166 113.5 257t214.5 91q93 0 153 -46t66 -140h-125q-15 82 -102 82q-138 0 -183 -223q63 76 172 76q85 0 147 -54t62 -145q0 -121 -77 -194.5t-201 -73.5zM127 35q0 -51 32 -87t91 -36q60 0 98.5 41.5
t38.5 112.5q0 53 -29 85.5t-88 32.5q-61 0 -102 -40t-41 -109z" />
    <glyph glyph-name="seven.sub" horiz-adv-x="548" 
d="M14 -178l314 588h-328l18 112h506l-4 -16l-360 -684h-146z" />
    <glyph glyph-name="eight.sub" horiz-adv-x="641" 
d="M231 -188q-105 0 -179.5 49t-74.5 147q0 146 158 195q-39 19 -61.5 53t-22.5 76q0 90 74 144t176 54q56 0 105.5 -17.5t85.5 -60t36 -102.5q0 -110 -122 -157q102 -47 102 -158q0 -105 -80 -164t-197 -59zM117 23q0 -48 31 -78.5t90 -30.5q56 0 94.5 31t38.5 92
q0 52 -31.5 82.5t-87.5 30.5t-95.5 -33.5t-39.5 -93.5zM182 328q0 -41 29 -65.5t72 -24.5q53 0 83.5 26.5t30.5 77.5q0 39 -28.5 64.5t-75.5 25.5t-79 -27.5t-32 -76.5z" />
    <glyph glyph-name="nine.sub" horiz-adv-x="655" 
d="M289 532q117 0 182.5 -63t67.5 -170q0 -49 -9 -123l-4 -26q-53 -338 -319 -338q-104 0 -167 47t-67 147h125q6 -45 32 -66.5t85 -21.5q136 0 176 223q-62 -75 -172 -75q-85 0 -147 53.5t-62 144.5q0 117 79.5 192.5t199.5 75.5zM408 309q0 52 -31 87.5t-90 35.5
q-58 0 -99 -42t-41 -111q0 -54 28 -86.5t89 -32.5t102.5 40t41.5 109z" />
    <glyph glyph-name="plus.sub" horiz-adv-x="694" 
d="M188 -100l33 215h-207l19 108h207l34 217h113l-35 -217h207l-18 -108h-207l-33 -215h-113z" />
    <glyph glyph-name="minus.sub" horiz-adv-x="694" 
d="M14 115l19 108h526l-18 -108h-527z" />
    <glyph glyph-name="zero.sup" horiz-adv-x="716" 
d="M301 1151q0 -71 33.5 -120.5t109.5 -49.5q49 0 86.5 28.5t58.5 77t31.5 105t10.5 119.5q0 69 -34 120.5t-103 51.5q-55 0 -95.5 -33.5t-60 -87t-28.5 -106t-9 -105.5zM440 872q-130 0 -203 77t-73 208q0 115 35.5 211.5t112.5 159.5t184 63q127 0 199.5 -76t72.5 -212
q0 -88 -19.5 -164t-58 -136.5t-103 -95.5t-147.5 -35z" />
    <glyph glyph-name="one.sup" horiz-adv-x="473" 
d="M268 883l88 561l-182 -111l19 125l202 125h123l-110 -700h-140z" />
    <glyph glyph-name="two.sup" horiz-adv-x="585" 
d="M68 883l4 24l303 269q82 72 114.5 116.5t32.5 100.5q0 44 -27 68t-67 24q-105 0 -137 -135h-127q18 113 92.5 177t179.5 64q93 0 158 -49t65 -147q0 -40 -11 -72.5t-42 -69.5t-58.5 -63t-88.5 -80l-142 -123h283l-16 -104h-516z" />
    <glyph glyph-name="three.sup" horiz-adv-x="636" 
d="M393 872q-54 0 -99.5 12t-83 38t-59 71.5t-22.5 106.5h129q3 -57 36.5 -91t96.5 -34q56 0 95.5 31t39.5 90q0 100 -112 100h-49l14 96h55q57 0 90 26.5t33 76.5q0 94 -100 94q-54 0 -91 -30t-49 -83h-122q12 99 87 157t179 58q101 0 165 -44.5t64 -139.5
q0 -57 -36.5 -100.5t-100.5 -63.5q51 -11 83 -50t32 -103q0 -100 -81 -159t-194 -59z" />
    <glyph glyph-name="four.sup" horiz-adv-x="649" 
d="M438 883l23 141h-352l8 49l393 510h172l-74 -459h94l-16 -100h-92l-23 -141h-133zM276 1124h203l53 346z" />
    <glyph glyph-name="five.sup" horiz-adv-x="618" 
d="M375 872q-71 0 -123.5 19t-88 68t-38.5 126h129q10 -106 121 -106q59 0 95 41.5t36 112.5q0 116 -119 116q-81 0 -137 -59h-72l72 393h430l-16 -106h-326l-31 -177q54 50 142 50q87 0 143 -55t55 -152q-1 -123 -75 -196t-197 -75z" />
    <glyph glyph-name="six.sup" horiz-adv-x="655" 
d="M414 872q-117 0 -183.5 67.5t-68.5 184.5q0 27 8 93l4 26q26 166 113.5 257t214.5 91q93 0 153 -46t66 -140h-125q-15 82 -102 82q-138 0 -183 -223q62 75 172 75q85 0 147 -53.5t62 -144.5q0 -121 -77 -195t-201 -74zM295 1096q0 -51 32 -87t91 -36q60 0 98.5 41.5
t38.5 111.5q0 53 -29 86t-88 33q-61 0 -102 -40t-41 -109z" />
    <glyph glyph-name="seven.sup" horiz-adv-x="548" 
d="M182 883l314 587h-328l18 113h506l-4 -16l-360 -684h-146z" />
    <glyph glyph-name="eight.sup" horiz-adv-x="641" 
d="M399 872q-105 0 -179.5 49.5t-74.5 147.5q0 146 158 195q-39 19 -61.5 53t-22.5 76q0 90 74 144t176 54q56 0 105.5 -17.5t85.5 -60t36 -102.5q0 -111 -123 -158q103 -47 103 -157q0 -105 -80 -164.5t-197 -59.5zM285 1083q0 -48 31 -78t90 -30q56 0 94.5 31t38.5 92
q0 52 -31.5 82t-87.5 30t-95.5 -33.5t-39.5 -93.5zM350 1389q0 -41 29 -66t72 -25q53 0 83.5 27t30.5 78q0 39 -28.5 64.5t-75.5 25.5t-79 -27.5t-32 -76.5z" />
    <glyph glyph-name="nine.sup" horiz-adv-x="655" 
d="M457 1593q117 0 182.5 -63t67.5 -170q0 -49 -9 -123l-4 -27q-53 -338 -319 -338q-104 0 -167 47.5t-67 147.5h125q6 -45 32 -66.5t85 -21.5q136 0 176 223q-63 -76 -172 -76q-85 0 -147 54t-62 145q0 117 79.5 192.5t199.5 75.5zM575 1370q0 52 -30.5 87.5t-89.5 35.5
q-58 0 -99 -42t-41 -112q0 -54 28 -86t89 -32t102 40t41 109z" />
    <glyph glyph-name="plus.sup" horiz-adv-x="694" 
d="M356 961l33 215h-207l19 108h207l34 217h113l-35 -217h207l-18 -108h-207l-33 -215h-113z" />
    <glyph glyph-name="minus.sup" horiz-adv-x="694" 
d="M182 1176l19 108h526l-18 -108h-527z" />
    <glyph glyph-name="a.alt" horiz-adv-x="1236" 
d="M623 948q-172 0 -267.5 -133.5t-95.5 -349.5q0 -161 74.5 -251.5t214.5 -90.5q158 0 264.5 135t106.5 356q0 149 -83.5 241.5t-213.5 92.5zM514 -18q-194 0 -314 130.5t-120 344.5q0 128 37.5 243t105 201.5t169.5 137.5t224 51q240 0 342 -213l31 194h170l-119 -752
q-28 -179 -22 -319h-162q-6 89 8 195q-124 -213 -350 -213z" />
    <glyph glyph-name="t.alt" horiz-adv-x="692" 
d="M137 0l146 928h-168l22 143h168l39 244h170l-39 -244h236l-23 -143h-235l-146 -928h-170z" />
    <glyph glyph-name="germandbls.alt" horiz-adv-x="1259" 
d="M772 -18q-151 0 -239 78.5t-95 228.5h166q18 -166 172 -166q82 0 137.5 45.5t55.5 128.5q0 65 -42 113t-124 104q-44 31 -73.5 55t-61.5 57.5t-48 71t-16 78.5q0 50 21 95t54 79.5t73 67t80.5 63.5t73.5 62.5t54 70t21 80.5q0 75 -56.5 115.5t-154.5 40.5
q-134 0 -221.5 -76.5t-112.5 -234.5l-180 -1139h-170l182 1155q33 210 175 322t341 112q70 0 132.5 -17t114 -51t82 -90t30.5 -128q0 -64 -28 -121.5t-69.5 -96.5t-90 -77.5t-90 -67.5t-69.5 -64.5t-28 -70.5q0 -8 2 -15.5t7.5 -16.5t10.5 -15.5t16.5 -17t19.5 -18t25.5 -21
t29.5 -22.5t35.5 -26.5t39.5 -29.5q92 -71 140.5 -144t48.5 -174q0 -143 -106.5 -233t-264.5 -90z" />
    <glyph glyph-name="aacute.alt" horiz-adv-x="1236" 
d="M623 948q-172 0 -267.5 -133.5t-95.5 -349.5q0 -161 74.5 -251.5t214.5 -90.5q158 0 264.5 135t106.5 356q0 149 -83.5 241.5t-213.5 92.5zM514 -18q-194 0 -314 130.5t-120 344.5q0 128 37.5 243t105 201.5t169.5 137.5t224 51q240 0 342 -213l31 194h170l-119 -752
q-28 -179 -22 -319h-162q-6 89 8 195q-124 -213 -350 -213zM604 1255l162 301h221l-248 -301h-135z" />
    <glyph glyph-name="abreve.alt" horiz-adv-x="1236" 
d="M623 948q-172 0 -267.5 -133.5t-95.5 -349.5q0 -161 74.5 -251.5t214.5 -90.5q158 0 264.5 135t106.5 356q0 149 -83.5 241.5t-213.5 92.5zM514 -18q-194 0 -314 130.5t-120 344.5q0 128 37.5 243t105 201.5t169.5 137.5t224 51q240 0 342 -213l31 194h170l-119 -752
q-28 -179 -22 -319h-162q-6 89 8 195q-124 -213 -350 -213zM698 1268q-115 0 -190.5 75t-75.5 195h135q15 -131 133 -131q126 0 150 131h131q-9 -118 -91 -194t-192 -76z" />
    <glyph glyph-name="acircumflex.alt" horiz-adv-x="1236" 
d="M623 948q-172 0 -267.5 -133.5t-95.5 -349.5q0 -161 74.5 -251.5t214.5 -90.5q158 0 264.5 135t106.5 356q0 149 -83.5 241.5t-213.5 92.5zM514 -18q-194 0 -314 130.5t-120 344.5q0 128 37.5 243t105 201.5t169.5 137.5t224 51q240 0 342 -213l31 194h170l-119 -752
q-28 -179 -22 -319h-162q-6 89 8 195q-124 -213 -350 -213zM375 1255l264 295h154l176 -295h-119l-152 154l-196 -154h-127z" />
    <glyph glyph-name="adieresis.alt" horiz-adv-x="1236" 
d="M623 948q-172 0 -267.5 -133.5t-95.5 -349.5q0 -161 74.5 -251.5t214.5 -90.5q158 0 264.5 135t106.5 356q0 149 -83.5 241.5t-213.5 92.5zM514 -18q-194 0 -314 130.5t-120 344.5q0 128 37.5 243t105 201.5t169.5 137.5t224 51q240 0 342 -213l31 194h170l-119 -752
q-28 -179 -22 -319h-162q-6 89 8 195q-124 -213 -350 -213zM510 1298q-44 0 -76.5 31.5t-32.5 75.5t33.5 77.5t77.5 33.5t75 -31.5t31 -75.5q0 -45 -32 -78t-76 -33zM895 1298q-44 0 -76.5 31.5t-32.5 75.5t33.5 77.5t77.5 33.5t75.5 -31.5t31.5 -75.5t-32.5 -77.5
t-76.5 -33.5z" />
    <glyph glyph-name="agrave.alt" horiz-adv-x="1236" 
d="M623 948q-172 0 -267.5 -133.5t-95.5 -349.5q0 -161 74.5 -251.5t214.5 -90.5q158 0 264.5 135t106.5 356q0 149 -83.5 241.5t-213.5 92.5zM514 -18q-194 0 -314 130.5t-120 344.5q0 128 37.5 243t105 201.5t169.5 137.5t224 51q240 0 342 -213l31 194h170l-119 -752
q-28 -179 -22 -319h-162q-6 89 8 195q-124 -213 -350 -213zM631 1255l-180 301h208l97 -301h-125z" />
    <glyph glyph-name="amacron.alt" horiz-adv-x="1236" 
d="M623 948q-172 0 -267.5 -133.5t-95.5 -349.5q0 -161 74.5 -251.5t214.5 -90.5q158 0 264.5 135t106.5 356q0 149 -83.5 241.5t-213.5 92.5zM514 -18q-194 0 -314 130.5t-120 344.5q0 128 37.5 243t105 201.5t169.5 137.5t224 51q240 0 342 -213l31 194h170l-119 -752
q-28 -179 -22 -319h-162q-6 89 8 195q-124 -213 -350 -213zM434 1327l21 131h536l-20 -131h-537z" />
    <glyph glyph-name="aogonek.alt" horiz-adv-x="1236" 
d="M1018 0q-3 -2 -22 -13.5t-25.5 -16t-24 -16t-25.5 -19t-22.5 -19.5t-21 -22.5t-14.5 -24t-11.5 -27t-3.5 -28.5q0 -64 76 -64q47 0 98 21l-18 -121q-62 -23 -119 -23q-89 0 -146.5 41t-56.5 125q0 120 174 207q-6 89 8 195q-124 -213 -350 -213q-195 0 -314.5 129.5
t-119.5 345.5q0 128 37.5 243t105 201.5t169.5 137.5t224 51q240 0 342 -213l31 194h170l-119 -752q-28 -179 -22 -319zM623 948q-172 0 -267.5 -133.5t-95.5 -349.5q0 -161 74.5 -251.5t214.5 -90.5q158 0 264.5 135t106.5 356q0 149 -83.5 241.5t-213.5 92.5z" />
    <glyph glyph-name="aring.alt" horiz-adv-x="1236" 
d="M623 948q-172 0 -267.5 -133.5t-95.5 -349.5q0 -161 74.5 -251.5t214.5 -90.5q158 0 264.5 135t106.5 356q0 149 -83.5 241.5t-213.5 92.5zM514 -18q-194 0 -314 130.5t-120 344.5q0 128 37.5 243t105 201.5t169.5 137.5t224 51q240 0 342 -213l31 194h170l-119 -752
q-28 -179 -22 -319h-162q-6 89 8 195q-124 -213 -350 -213zM715 1319q48 0 80 34.5t32 88.5q0 51 -28.5 82.5t-75.5 31.5q-48 0 -80.5 -34.5t-32.5 -87.5q0 -51 29 -83t76 -32zM715 1225q-91 0 -153 60.5t-62 148.5q0 90 66 153.5t157 63.5t153 -60.5t62 -148.5
q0 -90 -66 -153.5t-157 -63.5z" />
    <glyph glyph-name="aringacute.alt" horiz-adv-x="1236" 
d="M623 948q-172 0 -267.5 -133.5t-95.5 -349.5q0 -161 74.5 -251.5t214.5 -90.5q158 0 264.5 135t106.5 356q0 149 -83.5 241.5t-213.5 92.5zM514 -18q-194 0 -314 130.5t-120 344.5q0 128 37.5 243t105 201.5t169.5 137.5t224 51q240 0 342 -213l31 194h170l-119 -752
q-28 -179 -22 -319h-162q-6 89 8 195q-124 -213 -350 -213zM711 1278q48 0 80 34.5t32 88.5q0 51 -28.5 83t-75.5 32q-48 0 -80.5 -35t-32.5 -88q0 -51 29 -83t76 -32zM711 1184q-91 0 -153 60.5t-62 148.5q0 90 66 153.5t157 63.5t153 -60.5t62 -148.5q0 -90 -66 -153.5
t-157 -63.5zM682 1698l139 260h217l-221 -260h-135z" />
    <glyph glyph-name="atilde.alt" horiz-adv-x="1236" 
d="M623 948q-172 0 -267.5 -133.5t-95.5 -349.5q0 -161 74.5 -251.5t214.5 -90.5q158 0 264.5 135t106.5 356q0 149 -83.5 241.5t-213.5 92.5zM514 -18q-194 0 -314 130.5t-120 344.5q0 128 37.5 243t105 201.5t169.5 137.5t224 51q240 0 342 -213l31 194h170l-119 -752
q-28 -179 -22 -319h-162q-6 89 8 195q-124 -213 -350 -213zM821 1268q-41 0 -85 22t-81 44t-61 22q-30 0 -57 -25t-37 -67h-123q22 112 80.5 174.5t138.5 62.5q40 0 84 -22t80.5 -44t60.5 -22q30 0 56 25t36 67h123q-22 -112 -79 -174.5t-136 -62.5z" />
    <glyph glyph-name="tbar.alt" horiz-adv-x="692" 
d="M59 571l19 123h168l37 234h-168l22 143h168l39 244h170l-39 -244h236l-23 -143h-235l-37 -234h235l-18 -123h-238l-88 -571h-170l88 571h-166z" />
    <glyph glyph-name="tcaron.alt" horiz-adv-x="692" 
d="M137 0l146 928h-168l22 143h168l39 244h170l-39 -244h236l-23 -143h-235l-146 -928h-170zM641 1225l78 358h186l-143 -358h-121z" />
    <glyph glyph-name="tcommaaccent.alt" horiz-adv-x="692" 
d="M137 0l146 928h-168l22 143h168l39 244h170l-39 -244h236l-23 -143h-235l-146 -928h-170zM78 -451l-101 54l148 321l160 -49z" />
    <glyph glyph-name="f.short" horiz-adv-x="688" 
d="M104 928l23 143h152l32 197q25 161 114 241t224 80q84 0 142 -26l-21 -136q-52 21 -115 21q-75 0 -117 -45t-57 -139l-30 -193h262l-23 -143h-262l-147 -928h-170l145 928h-152z" />
    <glyph glyph-name="f_f.short" horiz-adv-x="1269" 
d="M104 928l23 143h152l30 189q24 150 117 229.5t231 79.5q86 0 142 -27l-21 -135q-48 20 -112 20q-159 0 -187 -172l-30 -184h411l33 197q25 161 114 241t224 80q83 0 141 -26l-20 -136q-52 21 -115 21q-75 0 -117 -45t-57 -139l-31 -193h262l-22 -143h-262l-148 -928h-170
l146 928h-412l-145 -928h-170l145 928h-152z" />
    <glyph glyph-name="questiondown.uc" horiz-adv-x="1001" 
d="M713 1051l-17 -105q-13 -85 -60 -158t-84.5 -106t-114.5 -90q-17 -13 -25 -19q-44 -34 -70 -57t-52.5 -55.5t-38 -70t-11.5 -83.5q0 -86 56 -135t159 -49q110 0 187.5 69t98.5 197h162q-26 -192 -155 -300.5t-312 -106.5q-182 0 -276 93t-94 230q0 69 17.5 123t62 102.5
t73 72t97.5 72.5l12 9q48 35 76 58t62.5 58.5t54 75t26.5 85.5l14 90h152zM672 1475q54 0 92.5 -38.5t38.5 -93.5t-37.5 -93t-91.5 -38q-55 0 -94 38t-39 93t38.5 93.5t92.5 38.5z" />
    <glyph glyph-name="exclamdown.uc" horiz-adv-x="589" 
d="M442 1051l-139 -1051h-188l196 1051h131zM418 1475q54 0 92.5 -38.5t38.5 -93.5t-37.5 -93t-91.5 -38q-55 0 -94 38t-39 93t38.5 93.5t92.5 38.5z" />
    <glyph glyph-name="hyphen.uc" horiz-adv-x="745" 
d="M129 590l25 160h499l-24 -160h-500z" />
    <glyph glyph-name="endash.uc" horiz-adv-x="1077" 
d="M100 596l23 143h893l-23 -143h-893z" />
    <glyph glyph-name="emdash.uc" horiz-adv-x="1812" 
d="M100 596l23 143h1628l-22 -143h-1629z" />
    <glyph glyph-name="guilsinglleft.uc" horiz-adv-x="659" 
d="M330 231l-213 387l327 383h174l-325 -389l201 -381h-164z" />
    <glyph glyph-name="guilsinglright.uc" horiz-adv-x="659" 
d="M362 1001l213 -387l-327 -383h-174l325 390l-200 380h163z" />
    <glyph glyph-name="guillemotleft.uc" horiz-adv-x="1024" 
d="M330 231l-213 387l327 383h174l-325 -389l201 -381h-164zM694 231l-213 387l328 383h174l-326 -389l201 -381h-164z" />
    <glyph glyph-name="guillemotright.uc" horiz-adv-x="1024" 
d="M727 1001l213 -387l-328 -383h-174l326 390l-201 380h164zM362 1001l213 -387l-327 -383h-174l325 390l-200 380h163z" />
    <glyph glyph-name="parenleft.uc" horiz-adv-x="659" 
d="M336 -201q-209 314 -209 701q0 609 485 1104h181q-241 -264 -364.5 -525.5t-123.5 -574.5q0 -376 195 -705h-164z" />
    <glyph glyph-name="parenright.uc" horiz-adv-x="659" 
d="M375 1604q209 -314 209 -701q0 -608 -486 -1104h-180q241 264 364.5 525.5t123.5 574.5q0 376 -195 705h164z" />
    <glyph glyph-name="bracketleft.uc" horiz-adv-x="729" 
d="M66 -172l280 1765h459l-23 -135h-288l-236 -1495h289l-23 -135h-458z" />
    <glyph glyph-name="bracketright.uc" horiz-adv-x="729" 
d="M-25 -172l23 135h289l235 1495h-289l23 135h459l-281 -1765h-459z" />
    <glyph glyph-name="braceleft.uc" horiz-adv-x="780" 
d="M575 -178q-230 12 -311.5 125.5t-11.5 326.5l41 121q18 55 18.5 99.5t-19.5 80.5t-69 57t-125 23l21 125q154 -3 215.5 52.5t56.5 181.5l-8 176q-10 221 107 315.5t366 89.5l-20 -127q-87 -1 -142 -14.5t-90.5 -47.5t-48.5 -88t-10 -138l6 -166q4 -135 -59 -204.5
t-179 -98.5q106 -29 141.5 -116t-5.5 -210l-39 -119q-53 -166 -9.5 -236t195.5 -79z" />
    <glyph glyph-name="braceright.uc" horiz-adv-x="780" 
d="M256 1595q230 -12 312 -125.5t12 -326.5l-41 -121q-38 -115 4.5 -185.5t189.5 -74.5l-20 -125q-154 3 -216 -52.5t-57 -181.5l9 -176q10 -221 -107.5 -315.5t-366.5 -89.5l21 127q87 1 142 15t90.5 48t48.5 88t10 138l-6 165q-4 135 59 207t178 101q-106 29 -141 113.5
t6 207.5l39 119q53 166 9.5 236t-195.5 79z" />
    <glyph glyph-name="slash.uc" horiz-adv-x="825" 
d="M-59 -172l829 1765h160l-832 -1765h-157z" />
    <glyph glyph-name="backslash.uc" horiz-adv-x="825" 
d="M506 -172l-281 1765h152l280 -1765h-151z" />
    <glyph glyph-name="bar.uc" horiz-adv-x="518" 
d="M221 -172l-2 1765h137l2 -1765h-137z" />
    <glyph glyph-name="at.uc" horiz-adv-x="1873" 
d="M942 -119q-154 0 -285.5 43.5t-224.5 118t-158.5 173t-97 209t-31.5 226.5q0 154 47 293t130.5 246t193.5 186t240.5 120.5t267.5 41.5q173 0 319 -54.5t243.5 -148t151.5 -219t54 -266.5q0 -100 -18 -184t-49 -142t-70 -101.5t-84.5 -68.5t-88.5 -37t-85 -12
q-114 0 -166 44t-60 128q-47 -80 -131 -133t-174 -53q-142 0 -223.5 87.5t-83.5 231.5q-1 107 31.5 199.5t88.5 155t130.5 98t155.5 35.5q98 0 157 -38.5t80 -96.5l19 118h170l-78 -499q-24 -158 86 -158q36 0 69.5 14t65.5 46t55.5 80t38 121t14.5 163q0 118 -40.5 218.5
t-117.5 175t-197 117t-269 42.5q-150 0 -281 -53t-227 -148.5t-151 -239t-54 -315.5q1 -96 25 -186t75.5 -170.5t125.5 -140.5t181 -95t236 -35q158 0 267 37t206 117h158q-83 -131 -254 -211t-383 -80zM909 418q47 0 93.5 22t85 63t62.5 107.5t24 147.5q0 101 -52 155
t-149 54q-101 0 -173 -93.5t-69 -257.5q2 -89 49.5 -143.5t128.5 -54.5z" />
    </font>
</defs>
</svg>
